M48
; DRILL file {KiCad 8.0.1} date 2026-01-03T23:46:30+0900
; FORMAT={-:-/ absolute / metric / decimal}
; #@! TF.CreationDate,2026-01-03T23:46:30+09:00
; #@! TF.GenerationSoftware,Kicad,Pcbnew,8.0.1
; #@! TF.FileFunction,Plated,1,2,PTH
FMAT,2
METRIC
; #@! TA.AperFunction,Plated,PTH,ViaDrill
T1C0.300
; #@! TA.AperFunction,Plated,PTH,ComponentDrill
T2C0.350
; #@! TA.AperFunction,Plated,PTH,ComponentDrill
T3C0.991
; #@! TA.AperFunction,Plated,PTH,ComponentDrill
T4C1.800
%
G90
G05
T1
X30.875Y-90.25
X36.112Y-102.412
X40.375Y-33.25
X47.5Y-52.25
X47.5Y-71.25
X47.5Y-109.25
X52.25Y-90.25
X54.625Y-71.25
X59.375Y-33.25
X60.912Y-101.362
X64.125Y-90.25
X68.875Y-52.25
X71.25Y-109.25
X73.625Y-71.25
X78.375Y-33.25
X83.125Y-90.25
X85.037Y-100.987
X87.875Y-52.25
X92.625Y-71.25
X92.625Y-109.25
X97.375Y-33.25
X102.125Y-90.25
X106.875Y-52.25
X106.875Y-109.25
X108.77Y-46.976
X109.2Y-96.41
X109.336Y-47.542
X109.902Y-48.107
X111.625Y-68.875
X111.68Y-112.49
X112.2Y-97.5
X112.275Y-42.125
X114.95Y-37.475
X116.375Y-33.25
X117.175Y-104.95
X117.7Y-97.5
X118.025Y-43.05
X119.425Y-103.425
X119.702Y-110.721
X119.707Y-112.221
X122.775Y-110.15
X123.525Y-105.95
X123.66Y-96.5
X124.772Y-110.941
X124.9Y-97.775
X124.9Y-100.15
X125.875Y-52.25
X126.23Y-96.45
X126.32Y-107.05
X127.03Y-96.463
X127.83Y-96.473
X128.016Y-108.746
X128.375Y-99.025
X128.63Y-96.469
X129.43Y-96.47
X129.575Y-57.569
X129.6Y-76.569
X130.23Y-96.47
X130.625Y-71.25
X131.03Y-96.47
X131.313Y-104.924
X131.45Y-99.15
X131.83Y-96.47
X132.575Y-98.525
X132.8Y-100.525
X134.125Y-101.85
X134.8Y-102.525
X135.225Y-98.95
X135.375Y-33.25
X135.375Y-109.25
X140.125Y-90.25
X144.875Y-52.25
X144.875Y-109.25
X149.625Y-71.25
X154.375Y-33.25
X159.125Y-90.25
X163.875Y-52.25
X164.09Y-92.52
X164.09Y-93.32
X164.09Y-94.12
X168.625Y-71.25
X173.375Y-33.25
X173.375Y-109.25
X178.125Y-90.25
X182.875Y-52.25
X187.625Y-71.25
X192.375Y-33.25
X197.125Y-90.25
X201.875Y-52.25
X201.875Y-109.25
X206.625Y-71.25
X211.375Y-33.25
X216.125Y-90.25
X216.125Y-109.25
X220.875Y-52.25
X223.205Y-94.125
X225.625Y-71.25
X230.375Y-33.25
X235.125Y-90.25
X235.125Y-109.25
X239.875Y-52.25
X240.84Y-98.125
X244.625Y-71.25
X249.375Y-33.25
X254.125Y-90.25
X256.5Y-109.25
X258.875Y-52.25
X261.25Y-90.25
X263.625Y-71.25
X265.875Y-100.45
X268.375Y-33.25
X280.25Y-52.25
X280.25Y-109.25
X287.375Y-90.25
X289.774Y-100.9
X296.875Y-71.25
T2
X126.869Y-105.841
X127.771Y-104.939
X127.771Y-106.742
X128.672Y-104.038
X128.672Y-105.841
X128.672Y-107.644
X129.574Y-104.939
X129.574Y-106.742
X130.475Y-105.841
T3
X31.967Y-76.33
X34.508Y-76.33
X36.73Y-76.33
X39.27Y-76.33
T4
X27.065Y-30.71
X29.427Y-68.71
X31.815Y-49.71
X31.815Y-106.71
X33.415Y-28.17
X34.19Y-68.71
X35.777Y-66.17
X38.165Y-47.17
X38.165Y-104.17
X38.94Y-87.71
X40.54Y-66.17
X45.29Y-85.17
X46.065Y-30.71
X52.415Y-28.17
X55.565Y-49.71
X55.565Y-106.71
X60.315Y-68.71
X61.915Y-47.17
X61.915Y-104.17
X65.065Y-30.71
X66.665Y-66.17
X69.815Y-87.71
X71.415Y-28.17
X74.565Y-49.71
X76.165Y-85.17
X79.315Y-68.71
X79.315Y-106.71
X80.915Y-47.17
X84.065Y-30.71
X85.665Y-66.17
X85.665Y-104.17
X88.815Y-87.71
X90.415Y-28.17
X93.565Y-49.71
X95.165Y-85.17
X98.315Y-68.71
X99.915Y-47.17
X103.065Y-30.71
X104.665Y-66.17
X107.815Y-87.71
X109.415Y-28.17
X112.565Y-49.71
X114.165Y-85.17
X117.315Y-68.71
X118.915Y-47.17
X122.065Y-30.71
X123.665Y-66.17
X126.815Y-87.71
X128.415Y-28.17
X131.565Y-49.71
X133.165Y-85.17
X136.315Y-68.71
X137.915Y-47.17
X141.065Y-30.71
X142.665Y-66.17
X145.815Y-87.71
X147.415Y-28.17
X150.565Y-49.71
X150.565Y-106.71
X152.165Y-85.17
X155.315Y-68.71
X156.915Y-47.17
X156.915Y-104.17
X160.065Y-30.71
X160.065Y-106.71
X161.665Y-66.17
X164.815Y-87.71
X166.415Y-28.17
X166.415Y-104.17
X169.565Y-49.71
X171.165Y-85.17
X174.315Y-68.71
X175.915Y-47.17
X179.065Y-30.71
X180.665Y-66.17
X183.815Y-87.71
X185.415Y-28.17
X188.565Y-49.71
X190.165Y-85.17
X193.315Y-68.71
X194.915Y-47.17
X198.065Y-30.71
X199.665Y-66.17
X202.815Y-87.71
X204.415Y-28.17
X207.565Y-49.71
X209.165Y-85.17
X212.315Y-68.71
X213.915Y-47.17
X217.065Y-30.71
X218.665Y-66.17
X221.815Y-87.71
X221.815Y-106.71
X223.415Y-28.17
X226.565Y-49.71
X228.165Y-85.17
X228.165Y-104.17
X231.315Y-68.71
X232.915Y-47.17
X236.065Y-30.71
X237.665Y-66.17
X240.815Y-87.71
X240.815Y-106.71
X242.415Y-28.17
X245.565Y-49.71
X245.577Y-106.71
X247.165Y-85.17
X247.165Y-104.17
X250.315Y-68.71
X251.915Y-47.17
X251.927Y-104.17
X255.065Y-30.71
X256.665Y-66.17
X261.415Y-28.17
X264.565Y-49.71
X264.565Y-106.71
X266.94Y-87.71
X269.315Y-68.71
X270.915Y-47.17
X270.915Y-104.17
X273.29Y-85.17
X274.065Y-30.71
X275.665Y-66.17
X276.44Y-87.71
X280.415Y-28.17
X281.19Y-68.71
X282.79Y-85.17
X283.565Y-30.71
X287.54Y-66.17
X288.315Y-49.71
X288.315Y-106.71
X289.42Y-59.21
X289.915Y-28.17
X291.96Y-65.56
X293.065Y-30.71
X293.065Y-87.71
X294.665Y-47.17
X294.665Y-104.17
X299.415Y-28.17
X299.415Y-85.17
M30
