%TF.GenerationSoftware,KiCad,Pcbnew,8.0.1*%
%TF.CreationDate,2025-07-18T19:56:24+09:00*%
%TF.ProjectId,Cloudnine_rp2040,436c6f75-646e-4696-9e65-5f7270323034,rev?*%
%TF.SameCoordinates,Original*%
%TF.FileFunction,Soldermask,Top*%
%TF.FilePolarity,Negative*%
%FSLAX46Y46*%
G04 Gerber Fmt 4.6, Leading zero omitted, Abs format (unit mm)*
G04 Created by KiCad (PCBNEW 8.0.1) date 2025-07-18 19:56:24*
%MOMM*%
%LPD*%
G01*
G04 APERTURE LIST*
%ADD10C,1.750000*%
%ADD11C,4.000000*%
%ADD12C,2.500000*%
%ADD13C,3.048000*%
%ADD14C,3.987800*%
%ADD15C,1.690600*%
%ADD16R,1.690600X1.690600*%
G04 APERTURE END LIST*
D10*
%TO.C,MX49*%
X163545000Y-90250000D03*
D11*
X168625000Y-90250000D03*
D10*
X173705000Y-90250000D03*
D12*
X164815000Y-87710000D03*
X171165000Y-85170000D03*
%TD*%
D10*
%TO.C,MX57*%
X30545000Y-109250000D03*
D11*
X35625000Y-109250000D03*
D10*
X40705000Y-109250000D03*
D12*
X31815000Y-106710000D03*
X38165000Y-104170000D03*
%TD*%
D10*
%TO.C,MX41*%
X249045000Y-71250000D03*
D11*
X254125000Y-71250000D03*
D10*
X259205000Y-71250000D03*
D12*
X250315000Y-68710000D03*
X256665000Y-66170000D03*
%TD*%
D10*
%TO.C,MX45*%
X87545000Y-90250000D03*
D11*
X92625000Y-90250000D03*
D10*
X97705000Y-90250000D03*
D12*
X88815000Y-87710000D03*
X95165000Y-85170000D03*
%TD*%
D10*
%TO.C,MX29*%
X287045000Y-52250000D03*
D11*
X292125000Y-52250000D03*
D10*
X294500000Y-56670000D03*
D11*
X294500000Y-61750000D03*
D10*
X294500000Y-66830000D03*
X297205000Y-52250000D03*
D12*
X288315000Y-49710000D03*
X291960000Y-65560000D03*
X289420000Y-59210000D03*
X294665000Y-47170000D03*
%TD*%
D10*
%TO.C,MX40*%
X230045000Y-71250000D03*
D11*
X235125000Y-71250000D03*
D10*
X240205000Y-71250000D03*
D12*
X231315000Y-68710000D03*
X237665000Y-66170000D03*
%TD*%
D10*
%TO.C,MX23*%
X168295000Y-52250000D03*
D11*
X173375000Y-52250000D03*
D10*
X178455000Y-52250000D03*
D12*
X169565000Y-49710000D03*
X175915000Y-47170000D03*
%TD*%
D13*
%TO.C,REF\u002A\u002A*%
X268312000Y-83265000D03*
D14*
X268312000Y-98475000D03*
D13*
X292188000Y-83265000D03*
D14*
X292188000Y-98475000D03*
%TD*%
D10*
%TO.C,MX51*%
X201545000Y-90250000D03*
D11*
X206625000Y-90250000D03*
D10*
X211705000Y-90250000D03*
D12*
X202815000Y-87710000D03*
X209165000Y-85170000D03*
%TD*%
D10*
%TO.C,MX62*%
X287045000Y-109250000D03*
D11*
X292125000Y-109250000D03*
D10*
X297205000Y-109250000D03*
D12*
X288315000Y-106710000D03*
X294665000Y-104170000D03*
%TD*%
D13*
%TO.C,REF\u002A\u002A*%
X221025000Y-116234999D03*
D14*
X221025000Y-101025000D03*
D13*
X106725000Y-116234999D03*
D14*
X106725000Y-101025000D03*
%TD*%
D10*
%TO.C,MX20*%
X111295000Y-52250000D03*
D11*
X116375000Y-52250000D03*
D10*
X121455000Y-52250000D03*
D12*
X112565000Y-49710000D03*
X118915000Y-47170000D03*
%TD*%
D13*
%TO.C,REF\u002A\u002A*%
X301485000Y-49812000D03*
D14*
X286275000Y-49812000D03*
D13*
X301485000Y-73688000D03*
D14*
X286275000Y-73688000D03*
%TD*%
D10*
%TO.C,MX14*%
X272795000Y-33250000D03*
D11*
X277875000Y-33250000D03*
D10*
X282955000Y-33250000D03*
D12*
X274065000Y-30710000D03*
X280415000Y-28170000D03*
%TD*%
D10*
%TO.C,MX31*%
X59045000Y-71250000D03*
D11*
X64125000Y-71250000D03*
D10*
X69205000Y-71250000D03*
D12*
X60315000Y-68710000D03*
X66665000Y-66170000D03*
%TD*%
D10*
%TO.C,MX34*%
X116045000Y-71250000D03*
D11*
X121125000Y-71250000D03*
D10*
X126205000Y-71250000D03*
D12*
X117315000Y-68710000D03*
X123665000Y-66170000D03*
%TD*%
D10*
%TO.C,MX15*%
X282295000Y-33250000D03*
D11*
X287375000Y-33250000D03*
D10*
X291795000Y-33250000D03*
X292455000Y-33250000D03*
D11*
X296875000Y-33250000D03*
D10*
X301955000Y-33250000D03*
D12*
X283565000Y-30710000D03*
X293065000Y-30710000D03*
X289915000Y-28170000D03*
X299415000Y-28170000D03*
%TD*%
D10*
%TO.C,MX22*%
X149295000Y-52250000D03*
D11*
X154375000Y-52250000D03*
D10*
X159455000Y-52250000D03*
D12*
X150565000Y-49710000D03*
X156915000Y-47170000D03*
%TD*%
D10*
%TO.C,MX5*%
X101795000Y-33250000D03*
D11*
X106875000Y-33250000D03*
D10*
X111955000Y-33250000D03*
D12*
X103065000Y-30710000D03*
X109415000Y-28170000D03*
%TD*%
D10*
%TO.C,MX24*%
X187295000Y-52250000D03*
D11*
X192375000Y-52250000D03*
D10*
X197455000Y-52250000D03*
D12*
X188565000Y-49710000D03*
X194915000Y-47170000D03*
%TD*%
D10*
%TO.C,MX47*%
X125545000Y-90250000D03*
D11*
X130625000Y-90250000D03*
D10*
X135705000Y-90250000D03*
D12*
X126815000Y-87710000D03*
X133165000Y-85170000D03*
%TD*%
D10*
%TO.C,MX53*%
X239545000Y-90250000D03*
D11*
X244625000Y-90250000D03*
D10*
X249705000Y-90250000D03*
D12*
X240815000Y-87710000D03*
X247165000Y-85170000D03*
%TD*%
D13*
%TO.C,REF\u002A\u002A*%
X202000000Y-116234999D03*
D14*
X202000000Y-101025000D03*
D13*
X106750000Y-116234999D03*
D14*
X106750000Y-101025000D03*
%TD*%
D10*
%TO.C,MX58*%
X54295000Y-109250000D03*
D11*
X59375000Y-109250000D03*
D10*
X64455000Y-109250000D03*
D12*
X55565000Y-106710000D03*
X61915000Y-104170000D03*
%TD*%
D10*
%TO.C,MX54*%
X265670000Y-90250000D03*
D11*
X270750000Y-90250000D03*
D10*
X275170000Y-90250000D03*
X275830000Y-90250000D03*
D11*
X280250000Y-90250000D03*
D10*
X285330000Y-90250000D03*
D12*
X266940000Y-87710000D03*
X276440000Y-87710000D03*
X273290000Y-85170000D03*
X282790000Y-85170000D03*
%TD*%
D10*
%TO.C,MX2*%
X44795000Y-33250000D03*
D11*
X49875000Y-33250000D03*
D10*
X54955000Y-33250000D03*
D12*
X46065000Y-30710000D03*
X52415000Y-28170000D03*
%TD*%
D10*
%TO.C,MX8*%
X158795000Y-33250000D03*
D11*
X163875000Y-33250000D03*
D10*
X168955000Y-33250000D03*
D12*
X160065000Y-30710000D03*
X166415000Y-28170000D03*
%TD*%
D10*
%TO.C,MX9*%
X177795000Y-33250000D03*
D11*
X182875000Y-33250000D03*
D10*
X187955000Y-33250000D03*
D12*
X179065000Y-30710000D03*
X185415000Y-28170000D03*
%TD*%
D10*
%TO.C,MX32*%
X78045000Y-71250000D03*
D11*
X83125000Y-71250000D03*
D10*
X88205000Y-71250000D03*
D12*
X79315000Y-68710000D03*
X85665000Y-66170000D03*
%TD*%
D10*
%TO.C,MX37*%
X173045000Y-71250000D03*
D11*
X178125000Y-71250000D03*
D10*
X183205000Y-71250000D03*
D12*
X174315000Y-68710000D03*
X180665000Y-66170000D03*
%TD*%
D10*
%TO.C,MX26*%
X225295000Y-52250000D03*
D11*
X230375000Y-52250000D03*
D10*
X235455000Y-52250000D03*
D12*
X226565000Y-49710000D03*
X232915000Y-47170000D03*
%TD*%
D10*
%TO.C,MX12*%
X234795000Y-33250000D03*
D11*
X239875000Y-33250000D03*
D10*
X244955000Y-33250000D03*
D12*
X236065000Y-30710000D03*
X242415000Y-28170000D03*
%TD*%
D10*
%TO.C,MX16*%
X30545000Y-52250000D03*
D11*
X35625000Y-52250000D03*
D10*
X40705000Y-52250000D03*
D12*
X31815000Y-49710000D03*
X38165000Y-47170000D03*
%TD*%
D10*
%TO.C,MX55*%
X291795000Y-90250000D03*
D11*
X296875000Y-90250000D03*
D10*
X301955000Y-90250000D03*
D12*
X293065000Y-87710000D03*
X299415000Y-85170000D03*
%TD*%
D10*
%TO.C,MX27*%
X244295000Y-52250000D03*
D11*
X249375000Y-52250000D03*
D10*
X254455000Y-52250000D03*
D12*
X245565000Y-49710000D03*
X251915000Y-47170000D03*
%TD*%
D10*
%TO.C,MX7*%
X139795000Y-33250000D03*
D11*
X144875000Y-33250000D03*
D10*
X149955000Y-33250000D03*
D12*
X141065000Y-30710000D03*
X147415000Y-28170000D03*
%TD*%
D10*
%TO.C,MX19*%
X92295000Y-52250000D03*
D11*
X97375000Y-52250000D03*
D10*
X102455000Y-52250000D03*
D12*
X93565000Y-49710000D03*
X99915000Y-47170000D03*
%TD*%
D10*
%TO.C,MX36*%
X154045000Y-71250000D03*
D11*
X159125000Y-71250000D03*
D10*
X164205000Y-71250000D03*
D12*
X155315000Y-68710000D03*
X161665000Y-66170000D03*
%TD*%
D13*
%TO.C,REF\u002A\u002A*%
X275437000Y-26265000D03*
D14*
X275437000Y-41475000D03*
D13*
X299313000Y-26265000D03*
D14*
X299313000Y-41475000D03*
%TD*%
D10*
%TO.C,MX25*%
X206295000Y-52250000D03*
D11*
X211375000Y-52250000D03*
D10*
X216455000Y-52250000D03*
D12*
X207565000Y-49710000D03*
X213915000Y-47170000D03*
%TD*%
D10*
%TO.C,MX50*%
X182545000Y-90250000D03*
D11*
X187625000Y-90250000D03*
D10*
X192705000Y-90250000D03*
D12*
X183815000Y-87710000D03*
X190165000Y-85170000D03*
%TD*%
D10*
%TO.C,MX35*%
X135045000Y-71250000D03*
D11*
X140125000Y-71250000D03*
D10*
X145205000Y-71250000D03*
D12*
X136315000Y-68710000D03*
X142665000Y-66170000D03*
%TD*%
D10*
%TO.C,MX61*%
X263295000Y-109250000D03*
D11*
X268375000Y-109250000D03*
D10*
X273455000Y-109250000D03*
D12*
X264565000Y-106710000D03*
X270915000Y-104170000D03*
%TD*%
D10*
%TO.C,MX43*%
X37670000Y-90250000D03*
D11*
X42750000Y-90250000D03*
D10*
X47830000Y-90250000D03*
D12*
X38940000Y-87710000D03*
X45290000Y-85170000D03*
%TD*%
D10*
%TO.C,MX63*%
X78045000Y-109250000D03*
D11*
X83125000Y-109250000D03*
D10*
X88205000Y-109250000D03*
D12*
X79315000Y-106710000D03*
X85665000Y-104170000D03*
%TD*%
D10*
%TO.C,MX60*%
X220545000Y-109250000D03*
D11*
X225625000Y-109250000D03*
D10*
X230705000Y-109250000D03*
D12*
X221815000Y-106710000D03*
X228165000Y-104170000D03*
%TD*%
D10*
%TO.C,MX42*%
X268045000Y-71250000D03*
D11*
X273125000Y-71250000D03*
D10*
X278205000Y-71250000D03*
X279920000Y-71250000D03*
D11*
X285000000Y-71250000D03*
D10*
X290080000Y-71250000D03*
D12*
X269315000Y-68710000D03*
X281190000Y-68710000D03*
X275665000Y-66170000D03*
X287540000Y-66170000D03*
%TD*%
D15*
%TO.C,D65*%
X34507500Y-76330000D03*
X36730000Y-76330000D03*
D16*
X31967500Y-76330000D03*
X39270000Y-76330000D03*
%TD*%
D10*
%TO.C,MX30*%
X28170000Y-71250000D03*
X32920000Y-71250000D03*
D11*
X33250000Y-71250000D03*
X38000000Y-71250000D03*
D10*
X38330000Y-71250000D03*
X43080000Y-71250000D03*
D12*
X29440000Y-68710000D03*
X34190000Y-68710000D03*
X35790000Y-66170000D03*
X40540000Y-66170000D03*
%TD*%
D10*
%TO.C,MX11*%
X215795000Y-33250000D03*
D11*
X220875000Y-33250000D03*
D10*
X225955000Y-33250000D03*
D12*
X217065000Y-30710000D03*
X223415000Y-28170000D03*
%TD*%
D10*
%TO.C,MX18*%
X73295000Y-52250000D03*
D11*
X78375000Y-52250000D03*
D10*
X83455000Y-52250000D03*
D12*
X74565000Y-49710000D03*
X80915000Y-47170000D03*
%TD*%
D10*
%TO.C,MX33*%
X97045000Y-71250000D03*
D11*
X102125000Y-71250000D03*
D10*
X107205000Y-71250000D03*
D12*
X98315000Y-68710000D03*
X104665000Y-66170000D03*
%TD*%
D10*
%TO.C,MX39*%
X211045000Y-71250000D03*
D11*
X216125000Y-71250000D03*
D10*
X221205000Y-71250000D03*
D12*
X212315000Y-68710000D03*
X218665000Y-66170000D03*
%TD*%
D10*
%TO.C,MX17*%
X54295000Y-52250000D03*
D11*
X59375000Y-52250000D03*
D10*
X64455000Y-52250000D03*
D12*
X55565000Y-49710000D03*
X61915000Y-47170000D03*
%TD*%
D10*
%TO.C,MX21*%
X130295000Y-52250000D03*
D11*
X135375000Y-52250000D03*
D10*
X140455000Y-52250000D03*
D12*
X131565000Y-49710000D03*
X137915000Y-47170000D03*
%TD*%
D10*
%TO.C,MX46*%
X106545000Y-90250000D03*
D11*
X111625000Y-90250000D03*
D10*
X116705000Y-90250000D03*
D12*
X107815000Y-87710000D03*
X114165000Y-85170000D03*
%TD*%
D13*
%TO.C,REF\u002A\u002A*%
X30812000Y-83265000D03*
D14*
X30812000Y-98475000D03*
D13*
X54688000Y-83265000D03*
D14*
X54688000Y-98475000D03*
%TD*%
D10*
%TO.C,MX3*%
X63795000Y-33250000D03*
D11*
X68875000Y-33250000D03*
D10*
X73955000Y-33250000D03*
D12*
X65065000Y-30710000D03*
X71415000Y-28170000D03*
%TD*%
D10*
%TO.C,MX48*%
X144545000Y-90250000D03*
D11*
X149625000Y-90250000D03*
D10*
X154705000Y-90250000D03*
D12*
X145815000Y-87710000D03*
X152165000Y-85170000D03*
%TD*%
D10*
%TO.C,MX10*%
X196795000Y-33250000D03*
D11*
X201875000Y-33250000D03*
D10*
X206955000Y-33250000D03*
D12*
X198065000Y-30710000D03*
X204415000Y-28170000D03*
%TD*%
D10*
%TO.C,MX4*%
X82795000Y-33250000D03*
D11*
X87875000Y-33250000D03*
D10*
X92955000Y-33250000D03*
D12*
X84065000Y-30710000D03*
X90415000Y-28170000D03*
%TD*%
D10*
%TO.C,MX38*%
X192045000Y-71250000D03*
D11*
X197125000Y-71250000D03*
D10*
X202205000Y-71250000D03*
D12*
X193315000Y-68710000D03*
X199665000Y-66170000D03*
%TD*%
D10*
%TO.C,MX52*%
X220545000Y-90250000D03*
D11*
X225625000Y-90250000D03*
D10*
X230705000Y-90250000D03*
D12*
X221815000Y-87710000D03*
X228165000Y-85170000D03*
%TD*%
D10*
%TO.C,MX59*%
X149295000Y-109250000D03*
D11*
X154375000Y-109250000D03*
D10*
X158795000Y-109250000D03*
X159455000Y-109250000D03*
D11*
X163875000Y-109250000D03*
D10*
X168955000Y-109250000D03*
D12*
X150565000Y-106710000D03*
X160065000Y-106710000D03*
X156915000Y-104170000D03*
X166415000Y-104170000D03*
%TD*%
D13*
%TO.C,REF\u002A\u002A*%
X273062000Y-64265000D03*
D14*
X273062000Y-79475000D03*
D13*
X296938000Y-64265000D03*
D14*
X296938000Y-79475000D03*
%TD*%
D10*
%TO.C,MX1*%
X25795000Y-33250000D03*
D11*
X30875000Y-33250000D03*
D10*
X35955000Y-33250000D03*
D12*
X27065000Y-30710000D03*
X33415000Y-28170000D03*
%TD*%
D10*
%TO.C,MX6*%
X120795000Y-33250000D03*
D11*
X125875000Y-33250000D03*
D10*
X130955000Y-33250000D03*
D12*
X122065000Y-30710000D03*
X128415000Y-28170000D03*
%TD*%
D10*
%TO.C,MX44*%
X68545000Y-90250000D03*
D11*
X73625000Y-90250000D03*
D10*
X78705000Y-90250000D03*
D12*
X69815000Y-87710000D03*
X76165000Y-85170000D03*
%TD*%
D10*
%TO.C,MX56*%
X239545000Y-109250000D03*
X244295000Y-109250000D03*
D11*
X244625000Y-109250000D03*
X249375000Y-109250000D03*
D10*
X249705000Y-109250000D03*
X254455000Y-109250000D03*
D12*
X240815000Y-106710000D03*
X245565000Y-106710000D03*
X247165000Y-104170000D03*
X251915000Y-104170000D03*
%TD*%
D10*
%TO.C,MX13*%
X253795000Y-33250000D03*
D11*
X258875000Y-33250000D03*
D10*
X263955000Y-33250000D03*
D12*
X255065000Y-30710000D03*
X261415000Y-28170000D03*
%TD*%
D10*
%TO.C,MX28*%
X263295000Y-52250000D03*
D11*
X268375000Y-52250000D03*
D10*
X273455000Y-52250000D03*
D12*
X264565000Y-49710000D03*
X270915000Y-47170000D03*
%TD*%
M02*
