%TF.GenerationSoftware,KiCad,Pcbnew,8.0.1*%
%TF.CreationDate,2025-07-18T19:56:24+09:00*%
%TF.ProjectId,Cloudnine_rp2040,436c6f75-646e-4696-9e65-5f7270323034,rev?*%
%TF.SameCoordinates,Original*%
%TF.FileFunction,Paste,Bot*%
%TF.FilePolarity,Positive*%
%FSLAX46Y46*%
G04 Gerber Fmt 4.6, Leading zero omitted, Abs format (unit mm)*
G04 Created by KiCad (PCBNEW 8.0.1) date 2025-07-18 19:56:24*
%MOMM*%
%LPD*%
G01*
G04 APERTURE LIST*
G04 Aperture macros list*
%AMRoundRect*
0 Rectangle with rounded corners*
0 $1 Rounding radius*
0 $2 $3 $4 $5 $6 $7 $8 $9 X,Y pos of 4 corners*
0 Add a 4 corners polygon primitive as box body*
4,1,4,$2,$3,$4,$5,$6,$7,$8,$9,$2,$3,0*
0 Add four circle primitives for the rounded corners*
1,1,$1+$1,$2,$3*
1,1,$1+$1,$4,$5*
1,1,$1+$1,$6,$7*
1,1,$1+$1,$8,$9*
0 Add four rect primitives between the rounded corners*
20,1,$1+$1,$2,$3,$4,$5,0*
20,1,$1+$1,$4,$5,$6,$7,0*
20,1,$1+$1,$6,$7,$8,$9,0*
20,1,$1+$1,$8,$9,$2,$3,0*%
%AMRotRect*
0 Rectangle, with rotation*
0 The origin of the aperture is its center*
0 $1 length*
0 $2 width*
0 $3 Rotation angle, in degrees counterclockwise*
0 Add horizontal line*
21,1,$1,$2,0,0,$3*%
G04 Aperture macros list end*
%ADD10RoundRect,0.225000X0.375000X-0.225000X0.375000X0.225000X-0.375000X0.225000X-0.375000X-0.225000X0*%
%ADD11RoundRect,0.140000X0.140000X0.170000X-0.140000X0.170000X-0.140000X-0.170000X0.140000X-0.170000X0*%
%ADD12RoundRect,0.140000X-0.170000X0.140000X-0.170000X-0.140000X0.170000X-0.140000X0.170000X0.140000X0*%
%ADD13RoundRect,0.150000X-0.150000X0.650000X-0.150000X-0.650000X0.150000X-0.650000X0.150000X0.650000X0*%
%ADD14RoundRect,0.140000X-0.140000X-0.170000X0.140000X-0.170000X0.140000X0.170000X-0.140000X0.170000X0*%
%ADD15RoundRect,0.140000X0.021213X-0.219203X0.219203X-0.021213X-0.021213X0.219203X-0.219203X0.021213X0*%
%ADD16R,0.750000X1.000000*%
%ADD17RoundRect,0.140000X0.219203X0.021213X0.021213X0.219203X-0.219203X-0.021213X-0.021213X-0.219203X0*%
%ADD18RotRect,1.000000X0.900000X315.000000*%
%ADD19RoundRect,0.250000X-0.413257X0.000000X0.000000X-0.413257X0.413257X0.000000X0.000000X0.413257X0*%
%ADD20RoundRect,0.050000X-0.309359X0.238649X0.238649X-0.309359X0.309359X-0.238649X-0.238649X0.309359X0*%
%ADD21RoundRect,0.050000X-0.309359X-0.238649X-0.238649X-0.309359X0.309359X0.238649X0.238649X0.309359X0*%
%ADD22RoundRect,0.140000X-0.021213X0.219203X-0.219203X0.021213X0.021213X-0.219203X0.219203X-0.021213X0*%
%ADD23RoundRect,0.225000X-0.225000X-0.250000X0.225000X-0.250000X0.225000X0.250000X-0.225000X0.250000X0*%
%ADD24RoundRect,0.140000X-0.219203X-0.021213X-0.021213X-0.219203X0.219203X0.021213X0.021213X0.219203X0*%
%ADD25RoundRect,0.150000X-0.587500X-0.150000X0.587500X-0.150000X0.587500X0.150000X-0.587500X0.150000X0*%
%ADD26RoundRect,0.150000X-0.625000X0.150000X-0.625000X-0.150000X0.625000X-0.150000X0.625000X0.150000X0*%
%ADD27RoundRect,0.250000X-0.650000X0.350000X-0.650000X-0.350000X0.650000X-0.350000X0.650000X0.350000X0*%
%ADD28RoundRect,0.140000X0.170000X-0.140000X0.170000X0.140000X-0.170000X0.140000X-0.170000X-0.140000X0*%
%ADD29RoundRect,0.225000X0.225000X0.250000X-0.225000X0.250000X-0.225000X-0.250000X0.225000X-0.250000X0*%
%ADD30RoundRect,0.150000X-0.512500X-0.150000X0.512500X-0.150000X0.512500X0.150000X-0.512500X0.150000X0*%
G04 APERTURE END LIST*
D10*
%TO.C,D20*%
X119556250Y-57568750D03*
X119556250Y-54268750D03*
%TD*%
%TO.C,D3*%
X72056250Y-38568750D03*
X72056250Y-35268750D03*
%TD*%
%TO.C,D54*%
X273931250Y-95568750D03*
X273931250Y-92268750D03*
%TD*%
%TO.C,D59*%
X167056250Y-114568750D03*
X167056250Y-111268750D03*
%TD*%
%TO.C,D43*%
X45931250Y-95568750D03*
X45931250Y-92268750D03*
%TD*%
%TO.C,D8*%
X167056250Y-38568750D03*
X167056250Y-35268750D03*
%TD*%
%TO.C,D29*%
X299250000Y-57568750D03*
X299250000Y-54268750D03*
%TD*%
%TO.C,D56*%
X252556250Y-114568750D03*
X252556250Y-111268750D03*
%TD*%
D11*
%TO.C,R5*%
X111680000Y-111530000D03*
X110720000Y-111530000D03*
%TD*%
D10*
%TO.C,D14*%
X281056250Y-38568750D03*
X281056250Y-35268750D03*
%TD*%
%TO.C,D49*%
X171806250Y-95568750D03*
X171806250Y-92268750D03*
%TD*%
D12*
%TO.C,C8*%
X128122101Y-112150742D03*
X128122101Y-113110742D03*
%TD*%
D13*
%TO.C,U3*%
X113367101Y-104920742D03*
X114637101Y-104920742D03*
X115907101Y-104920742D03*
X117177101Y-104920742D03*
X117177101Y-112120742D03*
X115907101Y-112120742D03*
X114637101Y-112120742D03*
X113367101Y-112120742D03*
%TD*%
D10*
%TO.C,D35*%
X143306250Y-76568750D03*
X143306250Y-73268750D03*
%TD*%
%TO.C,D6*%
X129056250Y-38568750D03*
X129056250Y-35268750D03*
%TD*%
%TO.C,D41*%
X257306250Y-76568750D03*
X257306250Y-73268750D03*
%TD*%
D14*
%TO.C,C12*%
X121470000Y-40700000D03*
X122430000Y-40700000D03*
%TD*%
D10*
%TO.C,D61*%
X271556250Y-114568750D03*
X271556250Y-111268750D03*
%TD*%
%TO.C,D26*%
X233556250Y-57568750D03*
X233556250Y-54268750D03*
%TD*%
%TO.C,D37*%
X181306250Y-76568750D03*
X181306250Y-73268750D03*
%TD*%
%TO.C,D22*%
X157556250Y-57568750D03*
X157556250Y-54268750D03*
%TD*%
%TO.C,D63*%
X86306250Y-114568750D03*
X86306250Y-111268750D03*
%TD*%
D15*
%TO.C,C7*%
X122352690Y-105310153D03*
X123031512Y-104631331D03*
%TD*%
D10*
%TO.C,D21*%
X138556250Y-57568750D03*
X138556250Y-54268750D03*
%TD*%
%TO.C,D5*%
X114950000Y-37475000D03*
X114950000Y-34175000D03*
%TD*%
%TO.C,D19*%
X100556250Y-57568750D03*
X100556250Y-54268750D03*
%TD*%
%TO.C,D28*%
X271556250Y-57568750D03*
X271556250Y-54268750D03*
%TD*%
%TO.C,D7*%
X148056250Y-38568750D03*
X148056250Y-35268750D03*
%TD*%
D16*
%TO.C,BOOTSEL1*%
X96975000Y-104650000D03*
X96975000Y-110650000D03*
X100725000Y-104650000D03*
X100725000Y-110650000D03*
%TD*%
D10*
%TO.C,D48*%
X152806250Y-95568750D03*
X152806250Y-92268750D03*
%TD*%
%TO.C,D60*%
X228806250Y-114568750D03*
X228806250Y-111268750D03*
%TD*%
D17*
%TO.C,R4*%
X132801512Y-101860153D03*
X132122690Y-101181331D03*
%TD*%
D18*
%TO.C,Y1*%
X133697888Y-97438646D03*
X135218168Y-98958926D03*
X134122152Y-100054942D03*
X132601872Y-98534662D03*
%TD*%
D10*
%TO.C,D42*%
X276306250Y-76568750D03*
X276306250Y-73268750D03*
%TD*%
%TO.C,D50*%
X190806250Y-95568750D03*
X190806250Y-92268750D03*
%TD*%
%TO.C,D12*%
X243056250Y-38568750D03*
X243056250Y-35268750D03*
%TD*%
D14*
%TO.C,R6*%
X110720000Y-110180000D03*
X111680000Y-110180000D03*
%TD*%
D10*
%TO.C,D34*%
X124306250Y-76568750D03*
X124306250Y-73268750D03*
%TD*%
D19*
%TO.C,U1*%
X128672101Y-104939181D03*
X127770540Y-105840742D03*
X129573662Y-105840742D03*
X128672101Y-106742303D03*
D20*
X124402944Y-105248540D03*
X124685787Y-104965697D03*
X124968629Y-104682855D03*
X125251472Y-104400012D03*
X125534315Y-104117169D03*
X125817157Y-103834327D03*
X126100000Y-103551484D03*
X126382843Y-103268641D03*
X126665686Y-102985798D03*
X126948528Y-102702956D03*
X127231371Y-102420113D03*
X127514214Y-102137270D03*
X127797056Y-101854428D03*
X128079899Y-101571585D03*
D21*
X129264303Y-101571585D03*
X129547146Y-101854428D03*
X129829988Y-102137270D03*
X130112831Y-102420113D03*
X130395674Y-102702956D03*
X130678516Y-102985798D03*
X130961359Y-103268641D03*
X131244202Y-103551484D03*
X131527045Y-103834327D03*
X131809887Y-104117169D03*
X132092730Y-104400012D03*
X132375573Y-104682855D03*
X132658415Y-104965697D03*
X132941258Y-105248540D03*
D20*
X132941258Y-106432944D03*
X132658415Y-106715787D03*
X132375573Y-106998629D03*
X132092730Y-107281472D03*
X131809887Y-107564315D03*
X131527045Y-107847157D03*
X131244202Y-108130000D03*
X130961359Y-108412843D03*
X130678516Y-108695686D03*
X130395674Y-108978528D03*
X130112831Y-109261371D03*
X129829988Y-109544214D03*
X129547146Y-109827056D03*
X129264303Y-110109899D03*
D21*
X128079899Y-110109899D03*
X127797056Y-109827056D03*
X127514214Y-109544214D03*
X127231371Y-109261371D03*
X126948528Y-108978528D03*
X126665686Y-108695686D03*
X126382843Y-108412843D03*
X126100000Y-108130000D03*
X125817157Y-107847157D03*
X125534315Y-107564315D03*
X125251472Y-107281472D03*
X124968629Y-106998629D03*
X124685787Y-106715787D03*
X124402944Y-106432944D03*
%TD*%
D10*
%TO.C,D39*%
X219306250Y-76568750D03*
X219306250Y-73268750D03*
%TD*%
%TO.C,D62*%
X295306250Y-114568750D03*
X295306250Y-111268750D03*
%TD*%
D22*
%TO.C,C9*%
X124101512Y-110271331D03*
X123422690Y-110950153D03*
%TD*%
D11*
%TO.C,R3*%
X36780000Y-79025000D03*
X35820000Y-79025000D03*
%TD*%
D23*
%TO.C,R1*%
X119702101Y-110720742D03*
X121252101Y-110720742D03*
%TD*%
D10*
%TO.C,D17*%
X62556250Y-57568750D03*
X62556250Y-54268750D03*
%TD*%
%TO.C,D31*%
X67306250Y-76568750D03*
X67306250Y-73268750D03*
%TD*%
%TO.C,D51*%
X209806250Y-95568750D03*
X209806250Y-92268750D03*
%TD*%
%TO.C,D46*%
X114806250Y-95568750D03*
X114806250Y-92268750D03*
%TD*%
%TO.C,D4*%
X95250000Y-35525000D03*
X95250000Y-32225000D03*
%TD*%
%TO.C,D1*%
X34056250Y-38568750D03*
X34056250Y-35268750D03*
%TD*%
%TO.C,D52*%
X228806250Y-95568750D03*
X228806250Y-92268750D03*
%TD*%
D11*
%TO.C,C16*%
X111680000Y-112490000D03*
X110720000Y-112490000D03*
%TD*%
D22*
%TO.C,C5*%
X134121512Y-101841331D03*
X133442690Y-102520153D03*
%TD*%
D10*
%TO.C,D58*%
X62556250Y-114568750D03*
X62556250Y-111268750D03*
%TD*%
D24*
%TO.C,C17*%
X124892690Y-100141331D03*
X125571512Y-100820153D03*
%TD*%
D10*
%TO.C,D25*%
X214556250Y-57568750D03*
X214556250Y-54268750D03*
%TD*%
%TO.C,D38*%
X200306250Y-76568750D03*
X200306250Y-73268750D03*
%TD*%
%TO.C,D44*%
X76806250Y-95568750D03*
X76806250Y-92268750D03*
%TD*%
D25*
%TO.C,U2*%
X119642500Y-43992501D03*
X119642500Y-42092501D03*
X121517501Y-43042501D03*
%TD*%
D10*
%TO.C,D2*%
X53056250Y-38568750D03*
X53056250Y-35268750D03*
%TD*%
%TO.C,D53*%
X247806250Y-95568750D03*
X247806250Y-92268750D03*
%TD*%
D15*
%TO.C,C1*%
X124092690Y-111620153D03*
X124771512Y-110941331D03*
%TD*%
D10*
%TO.C,D24*%
X195556250Y-57568750D03*
X195556250Y-54268750D03*
%TD*%
%TO.C,D11*%
X224056250Y-38568750D03*
X224056250Y-35268750D03*
%TD*%
%TO.C,D15*%
X300056250Y-38568750D03*
X300056250Y-35268750D03*
%TD*%
D26*
%TO.C,J2*%
X92625000Y-39000000D03*
X92625000Y-40000000D03*
X92625000Y-41000000D03*
X92625000Y-42000000D03*
D27*
X96500000Y-37700000D03*
X96500000Y-43300000D03*
%TD*%
D10*
%TO.C,D9*%
X186056250Y-38568750D03*
X186056250Y-35268750D03*
%TD*%
D24*
%TO.C,C14*%
X131442690Y-99151331D03*
X132121512Y-99830153D03*
%TD*%
D12*
%TO.C,C13*%
X118030000Y-42090000D03*
X118030000Y-43050000D03*
%TD*%
D10*
%TO.C,D55*%
X300056250Y-95568750D03*
X300056250Y-92268750D03*
%TD*%
%TO.C,D10*%
X205056250Y-38568750D03*
X205056250Y-35268750D03*
%TD*%
%TO.C,D47*%
X133806250Y-95568750D03*
X133806250Y-92268750D03*
%TD*%
D17*
%TO.C,C6*%
X134211512Y-109470153D03*
X133532690Y-108791331D03*
%TD*%
D10*
%TO.C,D18*%
X81556250Y-57568750D03*
X81556250Y-54268750D03*
%TD*%
D28*
%TO.C,C4*%
X130022101Y-113110742D03*
X130022101Y-112150742D03*
%TD*%
D10*
%TO.C,D32*%
X86306250Y-76568750D03*
X86306250Y-73268750D03*
%TD*%
%TO.C,D13*%
X262056250Y-38568750D03*
X262056250Y-35268750D03*
%TD*%
D12*
%TO.C,C11*%
X127169761Y-112148402D03*
X127169761Y-113108402D03*
%TD*%
D10*
%TO.C,D16*%
X38806250Y-57568750D03*
X38806250Y-54268750D03*
%TD*%
D15*
%TO.C,C10*%
X134114441Y-103191904D03*
X134793263Y-102513082D03*
%TD*%
D29*
%TO.C,R2*%
X121257101Y-112220742D03*
X119707101Y-112220742D03*
%TD*%
D10*
%TO.C,D23*%
X176556250Y-57568750D03*
X176556250Y-54268750D03*
%TD*%
D28*
%TO.C,C3*%
X129072101Y-113110742D03*
X129072101Y-112150742D03*
%TD*%
D24*
%TO.C,C15*%
X132800335Y-100508976D03*
X133479157Y-101187798D03*
%TD*%
D30*
%TO.C,U4*%
X112282500Y-43079999D03*
X112282500Y-42130000D03*
X112282500Y-41180001D03*
X114557500Y-41180001D03*
X114557500Y-42130000D03*
X114557500Y-43079999D03*
%TD*%
D15*
%TO.C,C2*%
X124762690Y-112290153D03*
X125441512Y-111611331D03*
%TD*%
D10*
%TO.C,D45*%
X95806250Y-95568750D03*
X95806250Y-92268750D03*
%TD*%
%TO.C,D36*%
X162306250Y-76568750D03*
X162306250Y-73268750D03*
%TD*%
%TO.C,D30*%
X42390000Y-76568750D03*
X42390000Y-73268750D03*
%TD*%
%TO.C,D40*%
X238306250Y-76568750D03*
X238306250Y-73268750D03*
%TD*%
%TO.C,D33*%
X105306250Y-76568750D03*
X105306250Y-73268750D03*
%TD*%
%TO.C,D27*%
X252556250Y-57568750D03*
X252556250Y-54268750D03*
%TD*%
%TO.C,D57*%
X38806250Y-114568750D03*
X38806250Y-111268750D03*
%TD*%
M02*
