%TF.GenerationSoftware,KiCad,Pcbnew,8.0.1*%
%TF.CreationDate,2026-01-03T23:46:27+09:00*%
%TF.ProjectId,Cloudnine_rp2040,436c6f75-646e-4696-9e65-5f7270323034,rev?*%
%TF.SameCoordinates,Original*%
%TF.FileFunction,Profile,NP*%
%FSLAX46Y46*%
G04 Gerber Fmt 4.6, Leading zero omitted, Abs format (unit mm)*
G04 Created by KiCad (PCBNEW 8.0.1) date 2026-01-03 23:46:27*
%MOMM*%
%LPD*%
G01*
G04 APERTURE LIST*
%TA.AperFunction,Profile*%
%ADD10C,0.500000*%
%TD*%
G04 APERTURE END LIST*
D10*
X204533331Y-117650000D02*
X218491667Y-117650000D01*
X104191699Y-117650000D02*
G75*
G02*
X104915472Y-117960005I1J-999900D01*
G01*
X222834522Y-117960001D02*
G75*
G02*
X219215478Y-117960000I-1809522J1725001D01*
G01*
X109264230Y-117650000D02*
X199466667Y-117650000D01*
X199466667Y-117650000D02*
G75*
G02*
X200190493Y-117959983I33J-1000000D01*
G01*
X23774999Y-117650000D02*
G75*
G02*
X21775000Y-115650001I1J2000000D01*
G01*
X21774999Y-26050000D02*
X21774998Y-115650001D01*
X305975000Y-115650001D02*
X305975000Y-26049999D01*
X108534522Y-117960001D02*
G75*
G02*
X109264230Y-117650018I723978J-690399D01*
G01*
X303975000Y-24050000D02*
X23774999Y-24050000D01*
X21774999Y-26050000D02*
G75*
G02*
X23774999Y-24049999I2000001J0D01*
G01*
X108534521Y-117960000D02*
G75*
G02*
X104915478Y-117959999I-1809521J1725000D01*
G01*
X222834522Y-117960001D02*
G75*
G02*
X223558331Y-117650024I723778J-689999D01*
G01*
X223558331Y-117650000D02*
X303975001Y-117650000D01*
X305975000Y-115650001D02*
G75*
G02*
X303975001Y-117650000I-2000000J1D01*
G01*
X303975000Y-24050000D02*
G75*
G02*
X305975000Y-26049999I0J-2000000D01*
G01*
X218491667Y-117650000D02*
G75*
G02*
X219215494Y-117959984I33J-1000000D01*
G01*
X23774999Y-117650000D02*
X104191699Y-117650000D01*
X203809522Y-117960000D02*
G75*
G02*
X200190476Y-117960000I-1809523J1725002D01*
G01*
X203809522Y-117960000D02*
G75*
G02*
X204533331Y-117650023I723778J-690000D01*
G01*
M02*
