%TF.GenerationSoftware,KiCad,Pcbnew,8.0.1*%
%TF.CreationDate,2025-07-13T23:20:01+09:00*%
%TF.ProjectId,Cloudnine_rp2040,436c6f75-646e-4696-9e65-5f7270323034,rev?*%
%TF.SameCoordinates,Original*%
%TF.FileFunction,Legend,Bot*%
%TF.FilePolarity,Positive*%
%FSLAX46Y46*%
G04 Gerber Fmt 4.6, Leading zero omitted, Abs format (unit mm)*
G04 Created by KiCad (PCBNEW 8.0.1) date 2025-07-13 23:20:01*
%MOMM*%
%LPD*%
G01*
G04 APERTURE LIST*
%ADD10C,2.000000*%
%ADD11C,0.100000*%
%ADD12C,0.075000*%
%ADD13C,0.150000*%
%ADD14C,1.000000*%
%ADD15C,0.120000*%
G04 APERTURE END LIST*
D10*
X108534522Y-117960001D02*
G75*
G02*
X109264230Y-117650018I723978J-690399D01*
G01*
X21774999Y-26050000D02*
G75*
G02*
X23774999Y-24049999I2000001J0D01*
G01*
X108534521Y-117960000D02*
G75*
G02*
X104915478Y-117959999I-1809521J1725000D01*
G01*
X305975000Y-115650001D02*
G75*
G02*
X303975001Y-117650000I-2000000J1D01*
G01*
X204533331Y-117650000D02*
X218491667Y-117650000D01*
X21774999Y-26050000D02*
X21774998Y-115650001D01*
X218491667Y-117650000D02*
G75*
G02*
X219215494Y-117959984I33J-1000000D01*
G01*
X222834522Y-117960001D02*
G75*
G02*
X219215478Y-117960000I-1809522J1725001D01*
G01*
X303975000Y-24050000D02*
G75*
G02*
X305975000Y-26049999I0J-2000000D01*
G01*
X104191699Y-117650000D02*
G75*
G02*
X104915472Y-117960005I1J-999900D01*
G01*
X222834522Y-117960001D02*
G75*
G02*
X223558331Y-117650024I723778J-689999D01*
G01*
X109264230Y-117650000D02*
X199466667Y-117650000D01*
X203809522Y-117960000D02*
G75*
G02*
X204533331Y-117650023I723778J-690000D01*
G01*
X305975000Y-115650001D02*
X305975000Y-26049999D01*
X23774999Y-117650000D02*
G75*
G02*
X21775000Y-115650001I1J2000000D01*
G01*
X203809522Y-117960000D02*
G75*
G02*
X200190476Y-117960000I-1809523J1725002D01*
G01*
X199466667Y-117650000D02*
G75*
G02*
X200190493Y-117959983I33J-1000000D01*
G01*
X303975000Y-24050000D02*
X23774999Y-24050000D01*
X223558331Y-117650000D02*
X303975001Y-117650000D01*
X23774999Y-117650000D02*
X104191699Y-117650000D01*
D11*
X34119048Y-77951466D02*
X34880953Y-77951466D01*
X34500000Y-78332419D02*
X34500000Y-77570514D01*
X38894048Y-77951466D02*
X39655953Y-77951466D01*
X31594048Y-77951466D02*
X32355953Y-77951466D01*
X36369048Y-77951466D02*
X37130953Y-77951466D01*
X36750000Y-78332419D02*
X36750000Y-77570514D01*
D12*
G36*
X110084757Y-111746674D02*
G01*
X110107610Y-111768699D01*
X110116229Y-111797566D01*
X110116307Y-111800772D01*
X110116307Y-112290528D01*
X110109059Y-112319606D01*
X110087292Y-112342852D01*
X110058923Y-112351703D01*
X110055784Y-112351784D01*
X110026706Y-112344336D01*
X110003459Y-112322171D01*
X109994608Y-112293656D01*
X109994528Y-112290528D01*
X109994528Y-112124931D01*
X109979434Y-112104854D01*
X109905428Y-112103975D01*
X109875660Y-112106901D01*
X109847054Y-112117616D01*
X109823594Y-112137954D01*
X109808307Y-112167249D01*
X109802559Y-112196860D01*
X109802113Y-112208169D01*
X109802113Y-112290528D01*
X109794865Y-112319606D01*
X109773098Y-112342852D01*
X109744729Y-112351703D01*
X109741590Y-112351784D01*
X109712512Y-112344336D01*
X109689265Y-112322171D01*
X109680414Y-112293656D01*
X109680334Y-112290528D01*
X109680334Y-112208169D01*
X109682413Y-112175242D01*
X109688804Y-112143457D01*
X109699739Y-112114142D01*
X109715450Y-112088622D01*
X109740125Y-112065418D01*
X109744228Y-112062796D01*
X109744961Y-112042719D01*
X109720767Y-112025947D01*
X109697504Y-112002086D01*
X109680382Y-111973206D01*
X109671229Y-111944143D01*
X109669793Y-111930465D01*
X109777787Y-111930465D01*
X109783829Y-111960411D01*
X109800546Y-111985360D01*
X109825819Y-112003767D01*
X109857532Y-112014085D01*
X109877731Y-112015755D01*
X109973572Y-112015755D01*
X109995407Y-111997876D01*
X109994528Y-111864812D01*
X109973572Y-111846201D01*
X109877731Y-111846201D01*
X109847938Y-111849821D01*
X109817848Y-111862363D01*
X109794804Y-111882487D01*
X109780921Y-111908749D01*
X109777787Y-111930465D01*
X109669793Y-111930465D01*
X109667731Y-111910828D01*
X109671116Y-111872830D01*
X109682038Y-111839030D01*
X109699663Y-111809694D01*
X109723162Y-111785092D01*
X109751703Y-111765490D01*
X109784455Y-111751157D01*
X109820586Y-111742361D01*
X109859266Y-111739369D01*
X110055784Y-111739369D01*
X110084757Y-111746674D01*
G37*
G36*
X109416845Y-111878588D02*
G01*
X109385239Y-111878867D01*
X109354738Y-111879392D01*
X109324304Y-111879694D01*
X109292895Y-111879303D01*
X109274109Y-111878588D01*
X109243835Y-111872398D01*
X109223557Y-111850381D01*
X109220327Y-111830667D01*
X109228546Y-111799960D01*
X109251603Y-111781106D01*
X109274109Y-111776885D01*
X109306975Y-111776453D01*
X109339516Y-111776503D01*
X109371773Y-111776786D01*
X109403785Y-111777054D01*
X109435593Y-111777059D01*
X109467238Y-111776553D01*
X109479859Y-111776152D01*
X109509144Y-111784186D01*
X109526656Y-111808045D01*
X109527780Y-111812203D01*
X109534899Y-111845811D01*
X109540885Y-111876041D01*
X109547179Y-111909930D01*
X109553210Y-111943618D01*
X109558575Y-111973374D01*
X109564709Y-112006229D01*
X109568437Y-112037095D01*
X109561619Y-112067459D01*
X109548736Y-112081700D01*
X109520848Y-112094078D01*
X109489260Y-112094566D01*
X109469748Y-112085803D01*
X109443990Y-112070759D01*
X109413371Y-112061586D01*
X109380902Y-112058306D01*
X109368924Y-112058253D01*
X109339747Y-112062756D01*
X109311416Y-112076937D01*
X109290391Y-112099427D01*
X109277885Y-112128854D01*
X109274842Y-112153361D01*
X109279102Y-112183044D01*
X109291985Y-112209925D01*
X109312407Y-112232254D01*
X109339283Y-112248281D01*
X109371530Y-112256256D01*
X109383286Y-112256822D01*
X109416153Y-112253191D01*
X109444722Y-112242389D01*
X109467816Y-112222411D01*
X109479859Y-112195859D01*
X109492683Y-112167701D01*
X109517743Y-112148230D01*
X109541995Y-112145008D01*
X109570136Y-112158540D01*
X109586072Y-112183374D01*
X109590241Y-112215069D01*
X109589915Y-112218427D01*
X109583062Y-112248718D01*
X109570262Y-112275967D01*
X109551778Y-112299867D01*
X109527871Y-112320112D01*
X109498806Y-112336392D01*
X109464845Y-112348402D01*
X109426251Y-112355833D01*
X109394422Y-112358217D01*
X109383286Y-112358378D01*
X109351993Y-112356828D01*
X109310444Y-112349159D01*
X109275000Y-112335982D01*
X109245254Y-112318313D01*
X109220797Y-112297169D01*
X109201222Y-112273565D01*
X109182010Y-112240026D01*
X109169785Y-112206331D01*
X109163580Y-112174891D01*
X109162295Y-112154240D01*
X109165696Y-112120090D01*
X109175630Y-112086131D01*
X109191692Y-112053707D01*
X109213476Y-112024163D01*
X109240577Y-111998843D01*
X109272589Y-111979093D01*
X109309107Y-111966257D01*
X109339210Y-111961976D01*
X109349727Y-111961679D01*
X109379942Y-111964066D01*
X109409228Y-111969346D01*
X109436189Y-111974282D01*
X109454654Y-111956697D01*
X109446191Y-111927497D01*
X109437951Y-111897568D01*
X109436189Y-111891044D01*
X109416845Y-111878588D01*
G37*
G36*
X128228947Y-113988510D02*
G01*
X128225668Y-113959090D01*
X128237717Y-113931043D01*
X128258696Y-113910254D01*
X128259575Y-113909522D01*
X128284475Y-113889713D01*
X128304158Y-113866930D01*
X128319509Y-113837803D01*
X128326397Y-113806000D01*
X128326693Y-113797707D01*
X128322682Y-113767390D01*
X128311171Y-113739160D01*
X128292945Y-113713619D01*
X128268789Y-113691370D01*
X128239488Y-113673016D01*
X128205827Y-113659160D01*
X128168591Y-113650404D01*
X128138789Y-113647547D01*
X128128563Y-113647351D01*
X128098552Y-113649082D01*
X128060733Y-113656469D01*
X128026171Y-113669107D01*
X127995684Y-113686393D01*
X127970091Y-113707724D01*
X127950207Y-113732499D01*
X127936851Y-113760114D01*
X127930839Y-113789965D01*
X127930580Y-113797707D01*
X127934933Y-113828882D01*
X127947398Y-113857903D01*
X127967081Y-113884090D01*
X127989020Y-113903763D01*
X128010448Y-113917875D01*
X128034009Y-113938714D01*
X128045118Y-113968199D01*
X128041076Y-113991880D01*
X128022538Y-114015942D01*
X127995311Y-114027334D01*
X127967949Y-114022069D01*
X127967070Y-114021189D01*
X127936172Y-114002228D01*
X127908323Y-113980150D01*
X127883855Y-113955231D01*
X127863096Y-113927748D01*
X127846376Y-113897978D01*
X127834025Y-113866197D01*
X127826372Y-113832681D01*
X127823748Y-113797707D01*
X127827263Y-113757217D01*
X127837462Y-113718715D01*
X127853825Y-113682638D01*
X127875835Y-113649420D01*
X127902972Y-113619497D01*
X127934718Y-113593305D01*
X127970555Y-113571278D01*
X128009962Y-113553853D01*
X128037962Y-113545007D01*
X128067164Y-113538529D01*
X128097416Y-113534548D01*
X128128563Y-113533192D01*
X128159880Y-113534558D01*
X128190257Y-113538565D01*
X128219546Y-113545083D01*
X128247597Y-113553976D01*
X128287028Y-113571483D01*
X128322834Y-113593589D01*
X128354514Y-113619846D01*
X128381562Y-113649806D01*
X128403477Y-113683021D01*
X128419753Y-113719042D01*
X128429888Y-113757420D01*
X128433378Y-113797707D01*
X128430947Y-113831212D01*
X128423848Y-113863513D01*
X128412374Y-113894341D01*
X128396815Y-113923425D01*
X128377465Y-113950497D01*
X128354615Y-113975286D01*
X128328556Y-113997524D01*
X128299582Y-114016940D01*
X128269775Y-114022602D01*
X128241900Y-114007831D01*
X128228947Y-113988510D01*
G37*
G36*
X128285696Y-114079982D02*
G01*
X128320735Y-114093100D01*
X128352277Y-114113874D01*
X128379633Y-114141412D01*
X128396986Y-114165969D01*
X128411305Y-114193453D01*
X128422298Y-114223489D01*
X128429674Y-114255701D01*
X128433142Y-114289713D01*
X128433378Y-114301385D01*
X128431279Y-114335654D01*
X128425173Y-114368304D01*
X128415354Y-114398953D01*
X128402111Y-114427217D01*
X128385737Y-114452715D01*
X128366522Y-114475064D01*
X128336986Y-114499302D01*
X128303610Y-114516355D01*
X128267082Y-114525316D01*
X128247852Y-114526479D01*
X128214523Y-114522903D01*
X128183205Y-114512850D01*
X128154477Y-114497333D01*
X128128919Y-114477364D01*
X128115960Y-114464344D01*
X128086541Y-114458194D01*
X128080643Y-114462585D01*
X128054842Y-114479915D01*
X128026084Y-114493726D01*
X127997804Y-114502640D01*
X127973518Y-114505523D01*
X127941266Y-114501368D01*
X127911309Y-114489453D01*
X127884265Y-114470608D01*
X127860751Y-114445659D01*
X127841386Y-114415435D01*
X127826789Y-114380762D01*
X127819342Y-114352337D01*
X127815184Y-114322225D01*
X127814369Y-114301385D01*
X127905228Y-114301385D01*
X127910089Y-114331780D01*
X127926012Y-114361007D01*
X127950478Y-114381485D01*
X127980865Y-114390221D01*
X127984949Y-114390338D01*
X128016907Y-114383281D01*
X128042779Y-114364106D01*
X128060106Y-114335809D01*
X128066324Y-114305921D01*
X128066428Y-114301385D01*
X128152011Y-114301385D01*
X128156403Y-114334437D01*
X128168664Y-114363636D01*
X128187421Y-114387419D01*
X128215681Y-114406230D01*
X128248731Y-114413053D01*
X128278035Y-114407997D01*
X128303754Y-114393872D01*
X128324589Y-114372243D01*
X128339241Y-114344675D01*
X128346413Y-114312734D01*
X128346916Y-114301385D01*
X128342527Y-114267857D01*
X128330224Y-114238358D01*
X128311306Y-114214411D01*
X128287071Y-114197541D01*
X128258817Y-114189272D01*
X128248731Y-114188691D01*
X128215681Y-114195525D01*
X128187421Y-114214411D01*
X128168664Y-114238358D01*
X128156403Y-114267857D01*
X128152011Y-114301385D01*
X128066428Y-114301385D01*
X128061548Y-114270453D01*
X128048008Y-114244156D01*
X128024042Y-114222269D01*
X127993374Y-114211870D01*
X127984949Y-114211406D01*
X127954007Y-114218479D01*
X127928657Y-114237766D01*
X127911522Y-114266367D01*
X127905332Y-114296756D01*
X127905228Y-114301385D01*
X127814369Y-114301385D01*
X127816188Y-114270117D01*
X127821471Y-114240345D01*
X127833453Y-114203573D01*
X127850511Y-114170892D01*
X127872028Y-114143119D01*
X127897384Y-114121072D01*
X127925962Y-114105568D01*
X127957144Y-114097424D01*
X127973518Y-114096367D01*
X128006001Y-114100796D01*
X128037522Y-114111681D01*
X128063822Y-114125425D01*
X128080643Y-114138426D01*
X128110026Y-114143714D01*
X128115960Y-114137547D01*
X128139447Y-114115429D01*
X128166434Y-114097242D01*
X128196343Y-114083969D01*
X128228594Y-114076597D01*
X128247852Y-114075411D01*
X128285696Y-114079982D01*
G37*
D13*
G36*
X118454320Y-108419096D02*
G01*
X118463988Y-108381222D01*
X118492763Y-108350788D01*
X118533845Y-108338399D01*
X119008849Y-108336054D01*
X119050154Y-108329058D01*
X119089081Y-108306315D01*
X119117039Y-108270709D01*
X119131481Y-108232213D01*
X119136441Y-108188336D01*
X119131381Y-108144284D01*
X119116730Y-108105557D01*
X119093284Y-108074140D01*
X119055878Y-108049377D01*
X119016108Y-108040614D01*
X119008849Y-108040422D01*
X118533845Y-108040422D01*
X118496093Y-108030002D01*
X118465914Y-108000941D01*
X118454320Y-107959724D01*
X118466189Y-107918962D01*
X118496907Y-107890768D01*
X118535018Y-107881371D01*
X119030147Y-107881371D01*
X119080856Y-107887575D01*
X119128109Y-107905390D01*
X119170889Y-107933623D01*
X119199424Y-107960917D01*
X119224440Y-107992898D01*
X119245506Y-108029061D01*
X119262193Y-108068904D01*
X119274070Y-108111923D01*
X119280708Y-108157615D01*
X119282010Y-108189313D01*
X119279076Y-108236286D01*
X119270571Y-108281019D01*
X119256944Y-108322992D01*
X119238640Y-108361685D01*
X119216109Y-108396578D01*
X119189796Y-108427152D01*
X119160149Y-108452887D01*
X119116206Y-108478775D01*
X119068192Y-108493904D01*
X119030147Y-108497449D01*
X118535018Y-108497449D01*
X118496907Y-108488053D01*
X118466189Y-108459858D01*
X118454320Y-108419096D01*
G37*
G36*
X118699149Y-108689717D02*
G01*
X118705834Y-108729792D01*
X118688317Y-108768059D01*
X118663392Y-108789369D01*
X118630710Y-108811617D01*
X118603416Y-108841109D01*
X118587627Y-108878315D01*
X118584452Y-108908168D01*
X118588150Y-108949565D01*
X118603304Y-108989381D01*
X118635148Y-109016676D01*
X118667886Y-109022474D01*
X118705933Y-109013467D01*
X118740738Y-108987638D01*
X118762986Y-108955144D01*
X118774571Y-108922627D01*
X118792472Y-108886518D01*
X118828989Y-108867922D01*
X118833580Y-108867722D01*
X118869833Y-108883435D01*
X118888752Y-108920166D01*
X118889267Y-108922627D01*
X118904380Y-108961706D01*
X118927417Y-108994602D01*
X118959712Y-109022088D01*
X119000570Y-109036529D01*
X119040658Y-109033090D01*
X119049295Y-109030290D01*
X119083471Y-109009539D01*
X119109342Y-108974199D01*
X119122244Y-108937057D01*
X119127745Y-108897802D01*
X119128235Y-108881204D01*
X119119065Y-108841209D01*
X119098497Y-108804551D01*
X119070364Y-108772822D01*
X119042652Y-108753611D01*
X119009576Y-108732190D01*
X118990692Y-108697420D01*
X118991459Y-108667247D01*
X119016218Y-108634692D01*
X119057954Y-108625262D01*
X119094822Y-108632662D01*
X119130025Y-108650586D01*
X119161571Y-108675741D01*
X119189155Y-108706748D01*
X119212474Y-108742230D01*
X119231222Y-108780807D01*
X119245096Y-108821102D01*
X119253790Y-108861735D01*
X119257000Y-108901329D01*
X119253262Y-108947184D01*
X119241463Y-108994160D01*
X119222038Y-109040028D01*
X119195426Y-109082558D01*
X119162063Y-109119518D01*
X119122388Y-109148680D01*
X119076837Y-109167813D01*
X119025848Y-109174686D01*
X118979176Y-109171154D01*
X118931577Y-109157156D01*
X118897896Y-109135593D01*
X118870705Y-109103074D01*
X118852058Y-109064473D01*
X118831178Y-109030841D01*
X118828109Y-109030290D01*
X118806261Y-109063950D01*
X118786419Y-109098387D01*
X118758000Y-109126460D01*
X118713744Y-109147821D01*
X118663766Y-109156206D01*
X118648933Y-109156710D01*
X118609458Y-109152307D01*
X118564878Y-109134128D01*
X118533702Y-109110536D01*
X118507120Y-109079870D01*
X118485686Y-109043026D01*
X118469958Y-109000899D01*
X118460492Y-108954384D01*
X118457837Y-108917156D01*
X118459627Y-108878088D01*
X118468260Y-108831171D01*
X118483141Y-108787634D01*
X118503356Y-108748815D01*
X118527987Y-108716050D01*
X118562081Y-108686607D01*
X118574292Y-108679557D01*
X118613444Y-108663294D01*
X118652765Y-108657518D01*
X118688847Y-108673902D01*
X118699149Y-108689717D01*
G37*
D12*
G36*
X123328947Y-40411745D02*
G01*
X123325668Y-40382325D01*
X123337717Y-40354278D01*
X123358696Y-40333489D01*
X123359575Y-40332757D01*
X123384475Y-40312948D01*
X123404158Y-40290165D01*
X123419509Y-40261038D01*
X123426397Y-40229235D01*
X123426693Y-40220942D01*
X123422682Y-40190625D01*
X123411171Y-40162395D01*
X123392945Y-40136854D01*
X123368789Y-40114605D01*
X123339488Y-40096251D01*
X123305827Y-40082395D01*
X123268591Y-40073639D01*
X123238789Y-40070782D01*
X123228563Y-40070586D01*
X123198552Y-40072317D01*
X123160733Y-40079704D01*
X123126171Y-40092342D01*
X123095684Y-40109628D01*
X123070091Y-40130959D01*
X123050207Y-40155734D01*
X123036851Y-40183349D01*
X123030839Y-40213200D01*
X123030580Y-40220942D01*
X123034933Y-40252117D01*
X123047398Y-40281138D01*
X123067081Y-40307325D01*
X123089020Y-40326998D01*
X123110448Y-40341110D01*
X123134009Y-40361949D01*
X123145118Y-40391434D01*
X123141076Y-40415115D01*
X123122538Y-40439177D01*
X123095311Y-40450569D01*
X123067949Y-40445304D01*
X123067070Y-40444424D01*
X123036172Y-40425463D01*
X123008323Y-40403385D01*
X122983855Y-40378466D01*
X122963096Y-40350983D01*
X122946376Y-40321213D01*
X122934025Y-40289432D01*
X122926372Y-40255916D01*
X122923748Y-40220942D01*
X122927263Y-40180452D01*
X122937462Y-40141950D01*
X122953825Y-40105873D01*
X122975835Y-40072655D01*
X123002972Y-40042732D01*
X123034718Y-40016540D01*
X123070555Y-39994513D01*
X123109962Y-39977088D01*
X123137962Y-39968242D01*
X123167164Y-39961764D01*
X123197416Y-39957783D01*
X123228563Y-39956427D01*
X123259880Y-39957793D01*
X123290257Y-39961800D01*
X123319546Y-39968318D01*
X123347597Y-39977211D01*
X123387028Y-39994718D01*
X123422834Y-40016824D01*
X123454514Y-40043081D01*
X123481562Y-40073041D01*
X123503477Y-40106256D01*
X123519753Y-40142277D01*
X123529888Y-40180655D01*
X123533378Y-40220942D01*
X123530947Y-40254447D01*
X123523848Y-40286748D01*
X123512374Y-40317576D01*
X123496815Y-40346660D01*
X123477465Y-40373732D01*
X123454615Y-40398521D01*
X123428556Y-40420759D01*
X123399582Y-40440175D01*
X123369775Y-40445837D01*
X123341900Y-40431066D01*
X123328947Y-40411745D01*
G37*
G36*
X123472122Y-40704396D02*
G01*
X123501200Y-40711645D01*
X123524447Y-40733412D01*
X123533298Y-40761781D01*
X123533378Y-40764920D01*
X123525930Y-40793998D01*
X123503765Y-40817244D01*
X123475251Y-40826095D01*
X123472122Y-40826176D01*
X122984858Y-40826176D01*
X122955057Y-40819087D01*
X122935130Y-40796800D01*
X122930343Y-40771661D01*
X122936944Y-40740770D01*
X122957233Y-40719000D01*
X122983246Y-40702784D01*
X123005093Y-40681847D01*
X123020855Y-40656844D01*
X123031166Y-40632149D01*
X123047783Y-40606891D01*
X123074348Y-40591401D01*
X123084069Y-40590091D01*
X123111986Y-40601632D01*
X123127740Y-40627900D01*
X123130283Y-40658033D01*
X123130231Y-40685052D01*
X123153770Y-40704269D01*
X123163057Y-40704396D01*
X123472122Y-40704396D01*
G37*
G36*
X123477105Y-41432289D02*
G01*
X123448145Y-41423111D01*
X123430838Y-41399388D01*
X123425667Y-41370007D01*
X123425903Y-41328800D01*
X123426471Y-41293305D01*
X123427163Y-41263160D01*
X123427917Y-41230662D01*
X123427893Y-41201201D01*
X123419529Y-41172163D01*
X123414237Y-41170998D01*
X123388796Y-41187271D01*
X123367562Y-41208569D01*
X123345648Y-41234303D01*
X123326161Y-41261024D01*
X123316051Y-41277683D01*
X123299289Y-41304890D01*
X123279939Y-41329620D01*
X123258243Y-41351609D01*
X123234443Y-41370593D01*
X123208782Y-41386307D01*
X123181502Y-41398487D01*
X123152844Y-41406868D01*
X123123050Y-41411186D01*
X123091778Y-41410116D01*
X123058483Y-41402652D01*
X123025085Y-41389010D01*
X122993504Y-41369403D01*
X122965660Y-41344046D01*
X122943472Y-41313154D01*
X122928862Y-41276942D01*
X122924031Y-41246421D01*
X122923748Y-41235625D01*
X122925812Y-41198263D01*
X122931201Y-41165804D01*
X122942976Y-41129504D01*
X122959263Y-41100363D01*
X122979260Y-41077492D01*
X123008257Y-41056366D01*
X123040239Y-41041909D01*
X123066923Y-41033978D01*
X123096619Y-41033650D01*
X123123384Y-41048364D01*
X123134481Y-41077795D01*
X123126529Y-41106157D01*
X123101554Y-41123142D01*
X123069113Y-41134711D01*
X123043535Y-41150282D01*
X123025406Y-41179860D01*
X123020125Y-41219035D01*
X123020468Y-41231521D01*
X123031201Y-41261251D01*
X123051866Y-41284571D01*
X123077543Y-41299248D01*
X123110083Y-41304679D01*
X123135360Y-41301131D01*
X123168842Y-41286381D01*
X123193982Y-41267917D01*
X123217524Y-41245479D01*
X123239346Y-41220867D01*
X123259323Y-41195880D01*
X123277333Y-41172319D01*
X123296888Y-41147614D01*
X123303741Y-41139930D01*
X123325786Y-41116520D01*
X123350010Y-41091932D01*
X123376404Y-41068272D01*
X123404957Y-41047647D01*
X123435659Y-41032163D01*
X123468501Y-41023927D01*
X123482234Y-41023133D01*
X123510723Y-41032752D01*
X123528099Y-41057273D01*
X123533378Y-41087027D01*
X123533378Y-41370007D01*
X123527116Y-41399388D01*
X123507451Y-41423111D01*
X123477105Y-41432289D01*
G37*
G36*
X121781730Y-105932716D02*
G01*
X121804852Y-105951201D01*
X121816164Y-105979552D01*
X121816029Y-106009087D01*
X121815926Y-106010227D01*
X121812325Y-106041840D01*
X121814518Y-106071869D01*
X121824259Y-106103319D01*
X121841876Y-106130677D01*
X121847531Y-106136751D01*
X121871805Y-106155352D01*
X121899906Y-106167174D01*
X121930854Y-106172347D01*
X121963667Y-106170999D01*
X121997364Y-106163258D01*
X122030964Y-106149254D01*
X122063485Y-106129115D01*
X122086579Y-106110062D01*
X122093947Y-106102970D01*
X122113944Y-106080525D01*
X122135464Y-106048559D01*
X122150966Y-106015184D01*
X122160300Y-105981404D01*
X122163314Y-105948222D01*
X122159856Y-105916644D01*
X122149774Y-105887673D01*
X122132916Y-105862315D01*
X122127625Y-105856657D01*
X122102503Y-105837691D01*
X122073168Y-105825983D01*
X122040733Y-105821385D01*
X122011309Y-105822987D01*
X121986179Y-105828160D01*
X121954783Y-105830086D01*
X121926078Y-105817092D01*
X121912192Y-105797488D01*
X121908286Y-105767366D01*
X121919482Y-105740058D01*
X121942554Y-105724433D01*
X121943797Y-105724433D01*
X121979053Y-105715993D01*
X122014357Y-105711913D01*
X122049279Y-105712231D01*
X122083391Y-105716985D01*
X122116264Y-105726213D01*
X122147471Y-105739953D01*
X122176581Y-105758241D01*
X122203167Y-105781115D01*
X122229312Y-105812232D01*
X122249326Y-105846668D01*
X122263265Y-105883749D01*
X122271191Y-105922801D01*
X122273160Y-105963149D01*
X122269233Y-106004118D01*
X122259468Y-106045033D01*
X122243925Y-106085219D01*
X122230381Y-106111273D01*
X122214312Y-106136503D01*
X122195736Y-106160709D01*
X122174670Y-106183692D01*
X122151560Y-106204871D01*
X122127247Y-106223517D01*
X122101928Y-106239619D01*
X122075804Y-106253166D01*
X122035543Y-106268668D01*
X121994593Y-106278356D01*
X121953626Y-106282190D01*
X121913314Y-106280131D01*
X121874332Y-106272140D01*
X121837352Y-106258179D01*
X121803048Y-106238208D01*
X121772093Y-106212189D01*
X121750121Y-106186778D01*
X121732300Y-106158918D01*
X121718615Y-106129006D01*
X121709051Y-106097439D01*
X121703591Y-106064614D01*
X121702220Y-106030927D01*
X121704922Y-105996777D01*
X121711680Y-105962560D01*
X121728753Y-105937480D01*
X121758908Y-105928214D01*
X121781730Y-105932716D01*
G37*
G36*
X121965869Y-105629411D02*
G01*
X121939947Y-105644751D01*
X121910652Y-105646123D01*
X121883656Y-105633583D01*
X121879032Y-105629411D01*
X121849668Y-105599910D01*
X121823922Y-105573848D01*
X121801589Y-105551154D01*
X121776762Y-105526013D01*
X121752998Y-105502577D01*
X121729521Y-105482781D01*
X121721628Y-105481540D01*
X121711205Y-105510791D01*
X121705526Y-105542232D01*
X121699970Y-105572913D01*
X121699038Y-105577702D01*
X121692738Y-105608493D01*
X121685882Y-105638324D01*
X121678350Y-105667108D01*
X121668552Y-105699252D01*
X121657485Y-105729718D01*
X121645396Y-105757473D01*
X121631108Y-105784627D01*
X121614545Y-105812178D01*
X121595627Y-105841121D01*
X121578008Y-105867022D01*
X121566608Y-105883599D01*
X121543090Y-105904879D01*
X121513027Y-105909806D01*
X121484035Y-105897451D01*
X121476352Y-105890749D01*
X121460962Y-105864073D01*
X121462750Y-105831821D01*
X121476253Y-105805574D01*
X121480497Y-105799975D01*
X121498762Y-105776308D01*
X121516553Y-105750908D01*
X121533071Y-105724690D01*
X121550369Y-105693847D01*
X121564295Y-105665821D01*
X121577903Y-105634799D01*
X121589347Y-105602387D01*
X121597819Y-105572137D01*
X121605168Y-105540670D01*
X121611250Y-105509605D01*
X121615920Y-105480562D01*
X121619456Y-105450660D01*
X121621115Y-105417181D01*
X121621686Y-105383529D01*
X121625001Y-105354248D01*
X121637828Y-105324183D01*
X121649817Y-105309836D01*
X121677824Y-105294799D01*
X121709241Y-105296874D01*
X121734788Y-105312737D01*
X121965247Y-105543196D01*
X121980686Y-105568927D01*
X121981758Y-105600833D01*
X121968022Y-105627143D01*
X121965869Y-105629411D01*
G37*
D13*
G36*
X95783634Y-104881851D02*
G01*
X95812813Y-104908339D01*
X95826493Y-104946234D01*
X95826919Y-104954731D01*
X95826919Y-105289637D01*
X95822495Y-105333800D01*
X95809804Y-105374979D01*
X95789722Y-105412279D01*
X95763123Y-105444805D01*
X95730882Y-105471661D01*
X95693874Y-105491953D01*
X95652973Y-105504784D01*
X95609055Y-105509260D01*
X95566836Y-105505138D01*
X95527341Y-105493341D01*
X95491395Y-105474728D01*
X95459825Y-105450157D01*
X95433460Y-105420485D01*
X95425970Y-105409609D01*
X95392362Y-105407265D01*
X95363313Y-105435426D01*
X95328786Y-105456992D01*
X95289899Y-105470792D01*
X95247771Y-105475653D01*
X95200282Y-105469524D01*
X95157041Y-105452211D01*
X95119603Y-105425324D01*
X95089524Y-105390473D01*
X95068361Y-105349268D01*
X95057670Y-105303318D01*
X95056675Y-105283971D01*
X95056675Y-105195653D01*
X95175475Y-105195653D01*
X95181640Y-105236793D01*
X95201842Y-105276145D01*
X95232901Y-105303600D01*
X95271499Y-105315273D01*
X95276689Y-105315429D01*
X95316378Y-105306002D01*
X95348448Y-105280307D01*
X95369892Y-105242230D01*
X95375554Y-105212457D01*
X95481853Y-105212457D01*
X95486898Y-105252181D01*
X95504161Y-105292300D01*
X95531398Y-105323026D01*
X95566215Y-105341536D01*
X95594400Y-105345715D01*
X95633715Y-105337659D01*
X95666630Y-105315370D01*
X95691012Y-105281673D01*
X95704724Y-105239388D01*
X95706947Y-105212457D01*
X95706947Y-105071186D01*
X95683695Y-105043245D01*
X95505300Y-105043245D01*
X95481853Y-105071186D01*
X95481853Y-105212457D01*
X95375554Y-105212457D01*
X95377579Y-105201807D01*
X95377708Y-105195653D01*
X95377708Y-105067865D01*
X95356605Y-105043245D01*
X95196577Y-105043245D01*
X95175475Y-105067865D01*
X95175475Y-105195653D01*
X95056675Y-105195653D01*
X95056675Y-104954731D01*
X95066651Y-104915170D01*
X95092978Y-104885990D01*
X95130252Y-104872310D01*
X95138545Y-104871884D01*
X95744072Y-104871884D01*
X95783634Y-104881851D01*
G37*
G36*
X95479840Y-105607997D02*
G01*
X95520343Y-105613340D01*
X95559395Y-105622030D01*
X95596797Y-105633888D01*
X95649370Y-105657230D01*
X95697113Y-105686705D01*
X95739352Y-105721714D01*
X95775416Y-105761661D01*
X95804636Y-105805948D01*
X95826338Y-105853975D01*
X95839851Y-105905146D01*
X95844505Y-105958863D01*
X95839851Y-106012329D01*
X95826338Y-106063297D01*
X95804636Y-106111163D01*
X95775416Y-106155326D01*
X95739352Y-106195181D01*
X95697113Y-106230126D01*
X95649370Y-106259558D01*
X95596797Y-106282875D01*
X95559395Y-106294725D01*
X95520343Y-106303410D01*
X95479840Y-106308752D01*
X95438085Y-106310572D01*
X95396555Y-106308752D01*
X95356219Y-106303410D01*
X95317282Y-106294725D01*
X95279950Y-106282875D01*
X95227406Y-106259558D01*
X95179625Y-106230126D01*
X95137297Y-106195181D01*
X95101113Y-106155326D01*
X95071767Y-106111163D01*
X95049949Y-106063297D01*
X95036351Y-106012329D01*
X95031665Y-105958863D01*
X95174107Y-105958863D01*
X95179503Y-105998963D01*
X95194965Y-106036361D01*
X95219403Y-106070242D01*
X95251727Y-106099791D01*
X95290847Y-106124192D01*
X95335674Y-106142631D01*
X95385116Y-106154292D01*
X95424571Y-106158100D01*
X95438085Y-106158360D01*
X95478420Y-106156053D01*
X95529097Y-106146214D01*
X95575269Y-106129393D01*
X95615888Y-106106406D01*
X95649909Y-106078067D01*
X95676284Y-106045193D01*
X95693969Y-106008597D01*
X95701915Y-105969096D01*
X95702258Y-105958863D01*
X95696909Y-105918440D01*
X95681561Y-105880800D01*
X95657260Y-105846745D01*
X95625053Y-105817080D01*
X95585985Y-105792608D01*
X95541103Y-105774133D01*
X95491454Y-105762458D01*
X95451719Y-105758649D01*
X95438085Y-105758388D01*
X95398070Y-105760696D01*
X95347644Y-105770545D01*
X95301562Y-105787395D01*
X95260913Y-105810443D01*
X95226788Y-105838886D01*
X95200276Y-105871918D01*
X95182468Y-105908738D01*
X95174453Y-105948540D01*
X95174107Y-105958863D01*
X95031665Y-105958863D01*
X95036351Y-105904875D01*
X95049949Y-105853540D01*
X95071767Y-105805437D01*
X95101113Y-105761146D01*
X95137297Y-105721249D01*
X95179625Y-105686326D01*
X95227406Y-105656957D01*
X95279950Y-105633724D01*
X95317282Y-105621930D01*
X95356219Y-105613292D01*
X95396555Y-105607984D01*
X95438085Y-105606176D01*
X95479840Y-105607997D01*
G37*
G36*
X95479840Y-106395045D02*
G01*
X95520343Y-106400388D01*
X95559395Y-106409078D01*
X95596797Y-106420937D01*
X95649370Y-106444278D01*
X95697113Y-106473753D01*
X95739352Y-106508762D01*
X95775416Y-106548710D01*
X95804636Y-106592996D01*
X95826338Y-106641023D01*
X95839851Y-106692194D01*
X95844505Y-106745911D01*
X95839851Y-106799377D01*
X95826338Y-106850345D01*
X95804636Y-106898212D01*
X95775416Y-106942374D01*
X95739352Y-106982229D01*
X95697113Y-107017174D01*
X95649370Y-107046606D01*
X95596797Y-107069923D01*
X95559395Y-107081773D01*
X95520343Y-107090458D01*
X95479840Y-107095800D01*
X95438085Y-107097621D01*
X95396555Y-107095800D01*
X95356219Y-107090458D01*
X95317282Y-107081773D01*
X95279950Y-107069923D01*
X95227406Y-107046606D01*
X95179625Y-107017174D01*
X95137297Y-106982229D01*
X95101113Y-106942374D01*
X95071767Y-106898212D01*
X95049949Y-106850345D01*
X95036351Y-106799377D01*
X95031665Y-106745911D01*
X95174107Y-106745911D01*
X95179503Y-106786011D01*
X95194965Y-106823409D01*
X95219403Y-106857290D01*
X95251727Y-106886839D01*
X95290847Y-106911240D01*
X95335674Y-106929679D01*
X95385116Y-106941340D01*
X95424571Y-106945148D01*
X95438085Y-106945408D01*
X95478420Y-106943101D01*
X95529097Y-106933262D01*
X95575269Y-106916441D01*
X95615888Y-106893454D01*
X95649909Y-106865115D01*
X95676284Y-106832241D01*
X95693969Y-106795646D01*
X95701915Y-106756145D01*
X95702258Y-106745911D01*
X95696909Y-106705488D01*
X95681561Y-106667848D01*
X95657260Y-106633793D01*
X95625053Y-106604128D01*
X95585985Y-106579656D01*
X95541103Y-106561181D01*
X95491454Y-106549506D01*
X95451719Y-106545697D01*
X95438085Y-106545436D01*
X95398070Y-106547745D01*
X95347644Y-106557593D01*
X95301562Y-106574443D01*
X95260913Y-106597492D01*
X95226788Y-106625934D01*
X95200276Y-106658967D01*
X95182468Y-106695786D01*
X95174453Y-106735588D01*
X95174107Y-106745911D01*
X95031665Y-106745911D01*
X95036351Y-106691924D01*
X95049949Y-106640588D01*
X95071767Y-106592485D01*
X95101113Y-106548194D01*
X95137297Y-106508297D01*
X95179625Y-106473374D01*
X95227406Y-106444005D01*
X95279950Y-106420772D01*
X95317282Y-106408978D01*
X95356219Y-106400340D01*
X95396555Y-106395032D01*
X95438085Y-106393224D01*
X95479840Y-106395045D01*
G37*
G36*
X95019159Y-107682045D02*
G01*
X95019159Y-107241822D01*
X95029100Y-107203278D01*
X95058454Y-107172765D01*
X95095792Y-107161228D01*
X95099857Y-107161124D01*
X95138759Y-107170828D01*
X95169811Y-107199898D01*
X95181620Y-107237653D01*
X95181727Y-107241822D01*
X95181727Y-107353782D01*
X95209669Y-107381724D01*
X95750715Y-107381724D01*
X95789486Y-107391428D01*
X95820482Y-107420498D01*
X95832283Y-107458253D01*
X95832390Y-107462422D01*
X95822460Y-107501237D01*
X95792906Y-107532330D01*
X95754887Y-107544184D01*
X95750715Y-107544292D01*
X95209669Y-107544292D01*
X95181727Y-107572233D01*
X95181727Y-107682045D01*
X95172023Y-107720815D01*
X95142953Y-107751811D01*
X95105198Y-107763612D01*
X95101030Y-107763720D01*
X95062214Y-107753789D01*
X95031121Y-107724235D01*
X95019267Y-107686216D01*
X95019159Y-107682045D01*
G37*
G36*
X95603193Y-108416532D02*
G01*
X95555626Y-108411566D01*
X95512371Y-108397471D01*
X95474220Y-108375449D01*
X95441964Y-108346703D01*
X95416395Y-108312437D01*
X95398304Y-108273854D01*
X95393339Y-108257481D01*
X95382583Y-108212769D01*
X95372127Y-108170052D01*
X95359586Y-108124967D01*
X95344557Y-108081028D01*
X95326632Y-108041751D01*
X95299538Y-108004564D01*
X95259103Y-107986469D01*
X95219112Y-107997087D01*
X95190524Y-108024354D01*
X95173512Y-108061977D01*
X95166584Y-108104450D01*
X95166096Y-108120705D01*
X95170792Y-108159670D01*
X95185983Y-108195919D01*
X95211552Y-108226584D01*
X95244084Y-108249376D01*
X95251092Y-108252987D01*
X95282911Y-108278046D01*
X95295701Y-108316274D01*
X95285922Y-108354158D01*
X95277471Y-108367293D01*
X95244613Y-108388708D01*
X95205070Y-108393393D01*
X95165372Y-108382781D01*
X95130412Y-108359240D01*
X95124672Y-108353810D01*
X95095422Y-108321251D01*
X95072364Y-108287946D01*
X95054993Y-108252634D01*
X95042803Y-108214054D01*
X95035290Y-108170944D01*
X95031947Y-108122043D01*
X95031665Y-108100579D01*
X95035244Y-108057268D01*
X95045794Y-108012740D01*
X95063030Y-107969152D01*
X95086668Y-107928657D01*
X95116424Y-107893410D01*
X95152015Y-107865566D01*
X95193156Y-107847279D01*
X95239564Y-107840705D01*
X95289929Y-107844790D01*
X95333096Y-107856359D01*
X95369727Y-107874388D01*
X95409552Y-107906702D01*
X95440512Y-107946243D01*
X95464181Y-107990580D01*
X95482132Y-108037281D01*
X95495938Y-108083915D01*
X95504519Y-108117383D01*
X95518007Y-108160310D01*
X95536341Y-108199073D01*
X95559296Y-108231201D01*
X95591619Y-108256998D01*
X95629571Y-108266469D01*
X95671224Y-108253933D01*
X95700182Y-108219965D01*
X95715610Y-108176953D01*
X95721816Y-108133124D01*
X95722579Y-108109567D01*
X95717861Y-108064919D01*
X95702469Y-108024856D01*
X95676184Y-107992872D01*
X95641853Y-107971488D01*
X95634260Y-107968493D01*
X95597809Y-107946776D01*
X95578200Y-107912122D01*
X95580332Y-107870991D01*
X95603561Y-107836065D01*
X95641480Y-107824675D01*
X95682462Y-107832670D01*
X95693856Y-107837383D01*
X95730398Y-107858705D01*
X95761578Y-107885588D01*
X95787547Y-107917806D01*
X95808454Y-107955133D01*
X95824453Y-107997341D01*
X95835694Y-108044205D01*
X95842327Y-108095497D01*
X95844370Y-108136736D01*
X95844505Y-108150991D01*
X95841173Y-108199755D01*
X95831679Y-108243338D01*
X95816774Y-108281823D01*
X95789782Y-108325353D01*
X95756289Y-108360170D01*
X95718076Y-108386473D01*
X95676923Y-108404461D01*
X95634613Y-108414333D01*
X95603193Y-108416532D01*
G37*
G36*
X95700108Y-109037495D02*
G01*
X95700108Y-108729358D01*
X95672167Y-108701417D01*
X95516829Y-108701417D01*
X95488887Y-108729358D01*
X95488887Y-108959142D01*
X95476491Y-108999005D01*
X95444456Y-109025142D01*
X95416005Y-109030852D01*
X95376142Y-109018466D01*
X95350005Y-108986833D01*
X95344295Y-108959142D01*
X95344295Y-108729358D01*
X95316354Y-108701417D01*
X95204198Y-108701417D01*
X95176256Y-108729358D01*
X95176256Y-109037495D01*
X95163861Y-109077444D01*
X95131825Y-109103523D01*
X95103374Y-109109205D01*
X95063512Y-109096871D01*
X95037374Y-109065268D01*
X95031665Y-109037495D01*
X95031665Y-108619742D01*
X95041641Y-108581112D01*
X95071291Y-108550640D01*
X95109363Y-108539148D01*
X95113535Y-108539044D01*
X95762830Y-108539044D01*
X95801600Y-108548709D01*
X95832596Y-108577732D01*
X95844397Y-108615556D01*
X95844505Y-108619742D01*
X95844505Y-109037495D01*
X95832181Y-109077444D01*
X95800651Y-109103523D01*
X95772990Y-109109205D01*
X95735112Y-109098746D01*
X95707262Y-109068440D01*
X95700108Y-109037495D01*
G37*
G36*
X95762830Y-109240900D02*
G01*
X95801600Y-109250831D01*
X95832596Y-109280385D01*
X95844397Y-109318404D01*
X95844505Y-109322575D01*
X95844505Y-109757327D01*
X95834574Y-109796098D01*
X95805020Y-109827094D01*
X95767001Y-109838895D01*
X95762830Y-109839002D01*
X95724286Y-109829072D01*
X95693774Y-109799518D01*
X95682237Y-109761499D01*
X95682132Y-109757327D01*
X95682132Y-109431214D01*
X95654191Y-109403273D01*
X95113144Y-109403273D01*
X95074374Y-109393342D01*
X95043378Y-109363789D01*
X95031576Y-109325769D01*
X95031469Y-109321598D01*
X95041400Y-109282968D01*
X95070954Y-109252497D01*
X95108973Y-109241004D01*
X95113144Y-109240900D01*
X95762830Y-109240900D01*
G37*
G36*
X95762830Y-110154173D02*
G01*
X95801600Y-110163838D01*
X95832596Y-110192861D01*
X95844397Y-110230686D01*
X95844505Y-110234871D01*
X95834574Y-110273642D01*
X95805020Y-110304637D01*
X95767001Y-110316439D01*
X95762830Y-110316546D01*
X95113144Y-110316546D01*
X95073410Y-110307093D01*
X95046840Y-110277378D01*
X95040457Y-110243859D01*
X95049259Y-110202672D01*
X95076311Y-110173645D01*
X95110995Y-110152024D01*
X95140124Y-110124107D01*
X95161140Y-110090770D01*
X95174889Y-110057844D01*
X95197045Y-110024166D01*
X95232464Y-110003513D01*
X95245426Y-110001766D01*
X95282648Y-110017153D01*
X95303653Y-110052177D01*
X95307044Y-110092355D01*
X95306975Y-110128381D01*
X95338360Y-110154003D01*
X95350743Y-110154173D01*
X95762830Y-110154173D01*
G37*
D12*
G36*
X132183449Y-101960381D02*
G01*
X132216742Y-101973405D01*
X132248511Y-101992734D01*
X132277977Y-102017969D01*
X132416937Y-102156928D01*
X132432258Y-102182581D01*
X132432844Y-102214314D01*
X132418527Y-102240821D01*
X132416315Y-102243143D01*
X132070005Y-102589453D01*
X132044318Y-102604888D01*
X132012489Y-102605935D01*
X131986171Y-102592134D01*
X131983894Y-102589971D01*
X131968599Y-102564143D01*
X131967835Y-102532032D01*
X131981739Y-102505611D01*
X131983894Y-102503342D01*
X132100989Y-102386247D01*
X132104512Y-102361378D01*
X132052804Y-102308426D01*
X132029685Y-102289446D01*
X132001882Y-102276795D01*
X131970912Y-102274588D01*
X131939387Y-102284492D01*
X131914385Y-102301366D01*
X131906073Y-102309048D01*
X131847836Y-102367284D01*
X131822150Y-102382720D01*
X131790320Y-102383766D01*
X131764002Y-102369965D01*
X131761725Y-102367802D01*
X131746431Y-102341975D01*
X131745666Y-102309863D01*
X131759570Y-102283442D01*
X131761725Y-102281173D01*
X131819962Y-102222937D01*
X131844714Y-102201124D01*
X131871709Y-102183168D01*
X131900171Y-102170171D01*
X131929325Y-102163235D01*
X131963180Y-102164275D01*
X131967936Y-102165322D01*
X131982651Y-102151644D01*
X131982424Y-102150390D01*
X132062514Y-102150390D01*
X132067369Y-102181276D01*
X132082498Y-102210997D01*
X132095600Y-102226460D01*
X132163370Y-102294230D01*
X132191452Y-102297027D01*
X132284920Y-102202316D01*
X132283262Y-102174337D01*
X132215492Y-102106567D01*
X132191866Y-102088060D01*
X132161721Y-102075652D01*
X132131196Y-102073587D01*
X132102810Y-102082341D01*
X132085238Y-102095480D01*
X132068336Y-102120927D01*
X132062514Y-102150390D01*
X131982424Y-102150390D01*
X131977403Y-102122677D01*
X131977826Y-102089354D01*
X131986140Y-102056826D01*
X132000218Y-102029804D01*
X132021302Y-102003773D01*
X132050564Y-101979298D01*
X132082187Y-101963120D01*
X132115394Y-101954840D01*
X132149407Y-101954060D01*
X132183449Y-101960381D01*
G37*
G36*
X131843042Y-101621656D02*
G01*
X131857473Y-101633526D01*
X131875539Y-101659990D01*
X131880748Y-101690185D01*
X131879609Y-101724476D01*
X131876333Y-101757046D01*
X131872895Y-101786907D01*
X131868494Y-101823967D01*
X131864297Y-101858685D01*
X131860296Y-101891946D01*
X131856486Y-101924631D01*
X131852861Y-101957624D01*
X131849415Y-101991807D01*
X131846142Y-102028063D01*
X131845349Y-102037554D01*
X131841661Y-102066701D01*
X131831940Y-102094943D01*
X131817993Y-102113614D01*
X131790431Y-102132012D01*
X131758604Y-102138859D01*
X131726757Y-102133680D01*
X131699137Y-102115997D01*
X131585773Y-102002633D01*
X131556213Y-102002387D01*
X131555411Y-102003151D01*
X131522148Y-102036414D01*
X131496464Y-102051853D01*
X131464661Y-102052926D01*
X131438408Y-102039189D01*
X131436140Y-102037036D01*
X131420776Y-102011138D01*
X131419982Y-101978998D01*
X131433882Y-101952572D01*
X131436037Y-101950303D01*
X131468408Y-101917932D01*
X131648031Y-101917932D01*
X131651159Y-101921703D01*
X131730120Y-102000664D01*
X131756233Y-101992374D01*
X131784315Y-101801604D01*
X131762810Y-101780700D01*
X131753539Y-101786164D01*
X131651159Y-101888544D01*
X131648031Y-101917932D01*
X131468408Y-101917932D01*
X131469922Y-101916418D01*
X131470055Y-101886953D01*
X131469300Y-101886160D01*
X131462150Y-101879010D01*
X131447975Y-101852540D01*
X131451881Y-101821287D01*
X131462254Y-101806578D01*
X131488920Y-101792140D01*
X131518210Y-101794599D01*
X131535308Y-101805852D01*
X131543080Y-101813624D01*
X131572536Y-101813766D01*
X131573338Y-101813002D01*
X131758202Y-101628138D01*
X131785068Y-101611518D01*
X131814409Y-101609837D01*
X131843042Y-101621656D01*
G37*
D13*
G36*
X136583651Y-97418430D02*
G01*
X136399980Y-97793587D01*
X136392164Y-97828367D01*
X136392164Y-98037830D01*
X136382500Y-98076600D01*
X136353477Y-98107596D01*
X136315652Y-98119397D01*
X136311467Y-98119505D01*
X136309317Y-98119505D01*
X136270773Y-98109574D01*
X136240261Y-98080020D01*
X136228724Y-98042001D01*
X136228619Y-98037830D01*
X136228619Y-97828367D01*
X136220804Y-97793587D01*
X136037133Y-97418430D01*
X136032376Y-97379457D01*
X136052542Y-97342312D01*
X136072304Y-97328744D01*
X136114125Y-97324777D01*
X136150994Y-97345080D01*
X136162185Y-97361375D01*
X136182531Y-97404423D01*
X136203223Y-97448547D01*
X136220872Y-97486230D01*
X136238935Y-97524822D01*
X136256139Y-97561598D01*
X136275548Y-97603098D01*
X136291341Y-97636881D01*
X136326316Y-97636881D01*
X136347099Y-97593833D01*
X136368388Y-97549709D01*
X136386559Y-97512025D01*
X136405154Y-97473434D01*
X136422854Y-97436658D01*
X136442784Y-97395157D01*
X136458794Y-97361375D01*
X136488300Y-97331408D01*
X136529610Y-97323607D01*
X136548480Y-97328744D01*
X136578894Y-97355215D01*
X136589534Y-97395746D01*
X136583651Y-97418430D01*
G37*
G36*
X135692848Y-98037830D02*
G01*
X135683183Y-98076600D01*
X135654161Y-98107596D01*
X135616336Y-98119397D01*
X135612150Y-98119505D01*
X135573380Y-98109574D01*
X135542384Y-98080020D01*
X135530583Y-98042001D01*
X135530476Y-98037830D01*
X135530476Y-97388144D01*
X135539928Y-97348410D01*
X135569644Y-97321840D01*
X135603162Y-97315457D01*
X135644350Y-97324259D01*
X135673376Y-97351311D01*
X135694998Y-97385995D01*
X135722915Y-97415124D01*
X135756252Y-97436140D01*
X135789178Y-97449889D01*
X135822856Y-97472045D01*
X135843508Y-97507464D01*
X135845256Y-97520426D01*
X135829868Y-97557648D01*
X135794844Y-97578653D01*
X135754666Y-97582044D01*
X135718640Y-97581975D01*
X135693018Y-97613360D01*
X135692848Y-97625743D01*
X135692848Y-98037830D01*
G37*
D12*
G36*
X110084757Y-109521674D02*
G01*
X110107610Y-109543699D01*
X110116229Y-109572566D01*
X110116307Y-109575772D01*
X110116307Y-110065528D01*
X110109059Y-110094606D01*
X110087292Y-110117852D01*
X110058923Y-110126703D01*
X110055784Y-110126784D01*
X110026706Y-110119336D01*
X110003459Y-110097171D01*
X109994608Y-110068656D01*
X109994528Y-110065528D01*
X109994528Y-109899931D01*
X109979434Y-109879854D01*
X109905428Y-109878975D01*
X109875660Y-109881901D01*
X109847054Y-109892616D01*
X109823594Y-109912954D01*
X109808307Y-109942249D01*
X109802559Y-109971860D01*
X109802113Y-109983169D01*
X109802113Y-110065528D01*
X109794865Y-110094606D01*
X109773098Y-110117852D01*
X109744729Y-110126703D01*
X109741590Y-110126784D01*
X109712512Y-110119336D01*
X109689265Y-110097171D01*
X109680414Y-110068656D01*
X109680334Y-110065528D01*
X109680334Y-109983169D01*
X109682413Y-109950242D01*
X109688804Y-109918457D01*
X109699739Y-109889142D01*
X109715450Y-109863622D01*
X109740125Y-109840418D01*
X109744228Y-109837796D01*
X109744961Y-109817719D01*
X109720767Y-109800947D01*
X109697504Y-109777086D01*
X109680382Y-109748206D01*
X109671229Y-109719143D01*
X109669793Y-109705465D01*
X109777787Y-109705465D01*
X109783829Y-109735411D01*
X109800546Y-109760360D01*
X109825819Y-109778767D01*
X109857532Y-109789085D01*
X109877731Y-109790755D01*
X109973572Y-109790755D01*
X109995407Y-109772876D01*
X109994528Y-109639812D01*
X109973572Y-109621201D01*
X109877731Y-109621201D01*
X109847938Y-109624821D01*
X109817848Y-109637363D01*
X109794804Y-109657487D01*
X109780921Y-109683749D01*
X109777787Y-109705465D01*
X109669793Y-109705465D01*
X109667731Y-109685828D01*
X109671116Y-109647830D01*
X109682038Y-109614030D01*
X109699663Y-109584694D01*
X109723162Y-109560092D01*
X109751703Y-109540490D01*
X109784455Y-109526157D01*
X109820586Y-109517361D01*
X109859266Y-109514369D01*
X110055784Y-109514369D01*
X110084757Y-109521674D01*
G37*
G36*
X109397624Y-109521916D02*
G01*
X109429893Y-109529727D01*
X109459851Y-109543635D01*
X109487287Y-109563071D01*
X109511986Y-109587464D01*
X109533737Y-109616244D01*
X109552325Y-109648841D01*
X109567537Y-109684685D01*
X109579162Y-109723206D01*
X109586985Y-109763832D01*
X109590794Y-109805995D01*
X109591214Y-109843754D01*
X109589399Y-109878904D01*
X109585437Y-109911475D01*
X109579414Y-109941495D01*
X109566708Y-109981808D01*
X109549855Y-110016547D01*
X109529152Y-110045811D01*
X109504891Y-110069697D01*
X109477367Y-110088306D01*
X109446873Y-110101735D01*
X109413705Y-110110083D01*
X109378157Y-110113448D01*
X109366929Y-110113512D01*
X109334595Y-110110909D01*
X109304450Y-110104298D01*
X109276712Y-110093911D01*
X109243845Y-110074592D01*
X109216156Y-110049528D01*
X109194157Y-110019273D01*
X109178361Y-109984379D01*
X109170895Y-109955497D01*
X109167424Y-109924551D01*
X109167567Y-109912681D01*
X109268980Y-109912681D01*
X109269366Y-109921393D01*
X109276842Y-109953533D01*
X109290951Y-109980188D01*
X109312303Y-110002593D01*
X109341025Y-110017501D01*
X109370683Y-110021857D01*
X109380123Y-110021342D01*
X109412096Y-110011819D01*
X109436382Y-109994897D01*
X109455683Y-109970825D01*
X109468006Y-109940491D01*
X109471506Y-109911069D01*
X109466522Y-109879500D01*
X109452897Y-109851844D01*
X109432627Y-109829508D01*
X109403238Y-109812054D01*
X109370683Y-109805995D01*
X109364176Y-109806248D01*
X109335068Y-109812212D01*
X109307463Y-109827966D01*
X109287532Y-109850401D01*
X109273529Y-109881208D01*
X109268980Y-109912681D01*
X109167567Y-109912681D01*
X109167752Y-109897302D01*
X109173042Y-109860692D01*
X109184087Y-109825140D01*
X109201114Y-109792145D01*
X109224349Y-109763206D01*
X109254019Y-109739821D01*
X109280630Y-109726831D01*
X109311084Y-109718441D01*
X109345477Y-109715284D01*
X109370959Y-109715814D01*
X109405391Y-109719309D01*
X109438778Y-109727083D01*
X109467256Y-109735507D01*
X109465288Y-109716527D01*
X109454912Y-109688147D01*
X109440177Y-109662356D01*
X109420194Y-109638930D01*
X109395230Y-109621911D01*
X109365554Y-109615339D01*
X109343493Y-109616755D01*
X109313137Y-109626738D01*
X109291016Y-109648002D01*
X109272351Y-109672492D01*
X109262149Y-109681512D01*
X109233797Y-109691288D01*
X109205233Y-109684216D01*
X109197674Y-109678825D01*
X109184733Y-109652507D01*
X109188380Y-109622960D01*
X109201622Y-109596032D01*
X109220839Y-109572349D01*
X109245974Y-109552450D01*
X109276970Y-109536877D01*
X109305949Y-109527895D01*
X109338613Y-109522303D01*
X109374933Y-109520378D01*
X109397624Y-109521916D01*
G37*
D13*
G36*
X124182379Y-108111650D02*
G01*
X124229722Y-108123735D01*
X124267764Y-108159704D01*
X124283251Y-108211057D01*
X124286182Y-108804811D01*
X124294927Y-108856443D01*
X124323356Y-108905102D01*
X124367863Y-108940049D01*
X124415983Y-108958102D01*
X124470829Y-108964302D01*
X124525894Y-108957976D01*
X124574303Y-108939662D01*
X124613574Y-108910355D01*
X124644527Y-108863598D01*
X124655481Y-108813886D01*
X124655721Y-108804811D01*
X124655721Y-108211057D01*
X124668747Y-108163866D01*
X124705073Y-108126142D01*
X124756594Y-108111650D01*
X124807546Y-108126486D01*
X124842789Y-108164883D01*
X124854535Y-108212522D01*
X124854535Y-108831434D01*
X124846781Y-108894820D01*
X124824512Y-108953887D01*
X124789221Y-109007361D01*
X124755102Y-109043031D01*
X124715127Y-109074300D01*
X124669923Y-109100633D01*
X124620119Y-109121491D01*
X124566345Y-109136337D01*
X124509230Y-109144635D01*
X124469608Y-109146263D01*
X124410891Y-109142595D01*
X124354975Y-109131964D01*
X124302509Y-109114930D01*
X124254143Y-109092051D01*
X124210527Y-109063886D01*
X124172309Y-109030995D01*
X124140140Y-108993936D01*
X124107781Y-108939008D01*
X124088869Y-108878990D01*
X124084437Y-108831434D01*
X124084437Y-108212522D01*
X124096183Y-108164883D01*
X124131426Y-108126486D01*
X124182379Y-108111650D01*
G37*
G36*
X123587892Y-109028538D02*
G01*
X123575811Y-109077001D01*
X123539532Y-109115745D01*
X123492251Y-109130497D01*
X123487019Y-109130631D01*
X123438556Y-109118218D01*
X123399812Y-109081276D01*
X123385060Y-109033751D01*
X123384926Y-109028538D01*
X123384926Y-108216430D01*
X123396742Y-108166762D01*
X123433886Y-108133550D01*
X123475784Y-108125572D01*
X123527268Y-108136573D01*
X123563552Y-108170389D01*
X123590578Y-108213743D01*
X123625474Y-108250155D01*
X123667146Y-108276425D01*
X123708303Y-108293611D01*
X123750401Y-108321306D01*
X123776217Y-108365580D01*
X123778401Y-108381782D01*
X123759167Y-108428310D01*
X123715386Y-108454567D01*
X123665164Y-108458805D01*
X123620132Y-108458719D01*
X123588104Y-108497950D01*
X123587892Y-108513429D01*
X123587892Y-109028538D01*
G37*
D12*
G36*
X122909873Y-111638576D02*
G01*
X122928358Y-111615454D01*
X122956709Y-111604142D01*
X122986244Y-111604277D01*
X122987384Y-111604380D01*
X123018997Y-111607981D01*
X123049026Y-111605788D01*
X123080476Y-111596047D01*
X123107834Y-111578430D01*
X123113908Y-111572775D01*
X123132509Y-111548501D01*
X123144331Y-111520400D01*
X123149504Y-111489452D01*
X123148156Y-111456639D01*
X123140415Y-111422942D01*
X123126411Y-111389342D01*
X123106272Y-111356821D01*
X123087219Y-111333727D01*
X123080127Y-111326359D01*
X123057682Y-111306362D01*
X123025716Y-111284842D01*
X122992341Y-111269340D01*
X122958561Y-111260006D01*
X122925379Y-111256992D01*
X122893801Y-111260450D01*
X122864830Y-111270532D01*
X122839472Y-111287390D01*
X122833814Y-111292681D01*
X122814848Y-111317803D01*
X122803140Y-111347138D01*
X122798542Y-111379573D01*
X122800144Y-111408997D01*
X122805317Y-111434127D01*
X122807243Y-111465523D01*
X122794249Y-111494228D01*
X122774645Y-111508114D01*
X122744523Y-111512020D01*
X122717215Y-111500824D01*
X122701590Y-111477752D01*
X122701590Y-111476509D01*
X122693150Y-111441253D01*
X122689070Y-111405949D01*
X122689388Y-111371027D01*
X122694142Y-111336915D01*
X122703370Y-111304042D01*
X122717110Y-111272835D01*
X122735398Y-111243725D01*
X122758272Y-111217139D01*
X122789389Y-111190994D01*
X122823825Y-111170980D01*
X122860906Y-111157041D01*
X122899958Y-111149115D01*
X122940306Y-111147146D01*
X122981275Y-111151073D01*
X123022190Y-111160838D01*
X123062376Y-111176381D01*
X123088430Y-111189925D01*
X123113660Y-111205994D01*
X123137866Y-111224570D01*
X123160849Y-111245636D01*
X123182028Y-111268746D01*
X123200674Y-111293059D01*
X123216776Y-111318378D01*
X123230323Y-111344502D01*
X123245825Y-111384763D01*
X123255513Y-111425713D01*
X123259347Y-111466680D01*
X123257288Y-111506992D01*
X123249297Y-111545974D01*
X123235336Y-111582954D01*
X123215365Y-111617258D01*
X123189346Y-111648213D01*
X123163935Y-111670185D01*
X123136075Y-111688006D01*
X123106163Y-111701691D01*
X123074596Y-111711255D01*
X123041771Y-111716715D01*
X123008084Y-111718086D01*
X122973934Y-111715384D01*
X122939717Y-111708626D01*
X122914637Y-111691553D01*
X122905371Y-111661398D01*
X122909873Y-111638576D01*
G37*
G36*
X122603843Y-111499529D02*
G01*
X122632550Y-111507604D01*
X122660247Y-111519952D01*
X122686459Y-111536592D01*
X122710656Y-111557497D01*
X122731341Y-111581475D01*
X122747802Y-111607507D01*
X122760003Y-111635057D01*
X122767959Y-111663645D01*
X122771685Y-111692793D01*
X122770098Y-111731699D01*
X122761052Y-111769613D01*
X122749394Y-111796714D01*
X122733575Y-111822138D01*
X122713611Y-111845409D01*
X122690134Y-111865858D01*
X122664323Y-111882475D01*
X122636744Y-111894528D01*
X122620868Y-111898982D01*
X122613510Y-111918774D01*
X122638592Y-111938731D01*
X122668412Y-111950867D01*
X122700411Y-111954399D01*
X122732025Y-111948545D01*
X122760694Y-111932521D01*
X122769153Y-111924784D01*
X122787423Y-111899580D01*
X122798693Y-111869409D01*
X122802638Y-111837439D01*
X122802520Y-111831108D01*
X122803127Y-111799448D01*
X122811803Y-111769882D01*
X122835036Y-111751062D01*
X122842000Y-111749350D01*
X122873152Y-111756216D01*
X122897286Y-111777611D01*
X122910630Y-111804946D01*
X122911117Y-111807690D01*
X122912503Y-111842243D01*
X122907337Y-111876389D01*
X122896641Y-111909459D01*
X122881438Y-111940788D01*
X122862748Y-111969709D01*
X122841596Y-111995556D01*
X122832674Y-112004885D01*
X122807094Y-112027297D01*
X122781027Y-112044193D01*
X122741271Y-112060037D01*
X122701080Y-112065634D01*
X122660852Y-112062279D01*
X122620984Y-112051269D01*
X122581873Y-112033902D01*
X122543916Y-112011473D01*
X122519448Y-111994349D01*
X122495787Y-111975936D01*
X122473051Y-111956619D01*
X122451356Y-111936780D01*
X122430822Y-111916805D01*
X122407882Y-111892054D01*
X122388486Y-111867342D01*
X122372514Y-111842718D01*
X122354714Y-111806059D01*
X122343944Y-111769882D01*
X122339796Y-111734359D01*
X122340438Y-111723591D01*
X122444144Y-111723591D01*
X122456310Y-111755282D01*
X122475199Y-111780337D01*
X122479007Y-111784271D01*
X122504411Y-111803891D01*
X122532645Y-111815679D01*
X122561859Y-111819147D01*
X122594717Y-111812028D01*
X122619716Y-111795797D01*
X122623458Y-111792146D01*
X122643448Y-111766883D01*
X122656291Y-111736470D01*
X122658182Y-111706676D01*
X122650395Y-111678266D01*
X122634203Y-111652007D01*
X122623355Y-111639923D01*
X122598436Y-111620134D01*
X122571110Y-111608171D01*
X122537555Y-111605416D01*
X122508528Y-111613781D01*
X122480340Y-111633086D01*
X122475795Y-111637436D01*
X122456597Y-111661343D01*
X122444593Y-111690305D01*
X122444144Y-111723591D01*
X122340438Y-111723591D01*
X122341865Y-111699659D01*
X122349746Y-111665952D01*
X122363033Y-111633408D01*
X122381320Y-111602197D01*
X122404201Y-111572490D01*
X122421807Y-111553605D01*
X122445080Y-111533643D01*
X122470517Y-111517836D01*
X122497641Y-111506202D01*
X122535609Y-111497210D01*
X122574603Y-111495711D01*
X122603843Y-111499529D01*
G37*
G36*
X122710709Y-111557543D02*
G01*
X122710656Y-111557497D01*
X122710606Y-111557439D01*
X122710709Y-111557543D01*
G37*
D13*
G36*
X120921858Y-109321674D02*
G01*
X120944711Y-109343699D01*
X120953330Y-109372566D01*
X120953408Y-109375772D01*
X120953408Y-109865528D01*
X120946160Y-109894606D01*
X120924393Y-109917852D01*
X120896024Y-109926703D01*
X120892885Y-109926784D01*
X120863807Y-109919336D01*
X120840560Y-109897171D01*
X120831709Y-109868656D01*
X120831629Y-109865528D01*
X120831629Y-109699931D01*
X120816535Y-109679854D01*
X120742529Y-109678975D01*
X120712761Y-109681901D01*
X120684155Y-109692616D01*
X120660695Y-109712954D01*
X120645408Y-109742249D01*
X120639660Y-109771860D01*
X120639214Y-109783169D01*
X120639214Y-109865528D01*
X120631966Y-109894606D01*
X120610199Y-109917852D01*
X120581830Y-109926703D01*
X120578691Y-109926784D01*
X120549613Y-109919336D01*
X120526366Y-109897171D01*
X120517515Y-109868656D01*
X120517435Y-109865528D01*
X120517435Y-109783169D01*
X120519514Y-109750242D01*
X120525905Y-109718457D01*
X120536840Y-109689142D01*
X120552551Y-109663622D01*
X120577226Y-109640418D01*
X120581329Y-109637796D01*
X120582062Y-109617719D01*
X120557868Y-109600947D01*
X120534605Y-109577086D01*
X120517483Y-109548206D01*
X120508330Y-109519143D01*
X120506894Y-109505465D01*
X120614888Y-109505465D01*
X120620930Y-109535411D01*
X120637647Y-109560360D01*
X120662920Y-109578767D01*
X120694633Y-109589085D01*
X120714832Y-109590755D01*
X120810673Y-109590755D01*
X120832508Y-109572876D01*
X120831629Y-109439812D01*
X120810673Y-109421201D01*
X120714832Y-109421201D01*
X120685039Y-109424821D01*
X120654949Y-109437363D01*
X120631905Y-109457487D01*
X120618022Y-109483749D01*
X120614888Y-109505465D01*
X120506894Y-109505465D01*
X120504832Y-109485828D01*
X120508217Y-109447830D01*
X120519139Y-109414030D01*
X120536764Y-109384694D01*
X120560263Y-109360092D01*
X120588804Y-109340490D01*
X120621556Y-109326157D01*
X120657687Y-109317361D01*
X120696367Y-109314369D01*
X120892885Y-109314369D01*
X120921858Y-109321674D01*
G37*
G36*
X120226249Y-109872122D02*
G01*
X120219000Y-109901200D01*
X120197233Y-109924447D01*
X120168864Y-109933298D01*
X120165725Y-109933378D01*
X120136647Y-109925930D01*
X120113401Y-109903765D01*
X120104550Y-109875251D01*
X120104469Y-109872122D01*
X120104469Y-109384858D01*
X120111559Y-109355057D01*
X120133845Y-109335130D01*
X120158984Y-109330343D01*
X120189875Y-109336944D01*
X120211645Y-109357233D01*
X120227861Y-109383246D01*
X120248798Y-109405093D01*
X120273801Y-109420855D01*
X120298496Y-109431166D01*
X120323754Y-109447783D01*
X120339244Y-109474348D01*
X120340554Y-109484069D01*
X120329014Y-109511986D01*
X120302745Y-109527740D01*
X120272612Y-109530283D01*
X120245593Y-109530231D01*
X120226376Y-109553770D01*
X120226249Y-109563057D01*
X120226249Y-109872122D01*
G37*
D12*
G36*
X109688254Y-112828947D02*
G01*
X109717674Y-112825668D01*
X109745721Y-112837717D01*
X109766510Y-112858696D01*
X109767242Y-112859575D01*
X109787051Y-112884475D01*
X109809834Y-112904158D01*
X109838961Y-112919509D01*
X109870764Y-112926397D01*
X109879057Y-112926693D01*
X109909374Y-112922682D01*
X109937604Y-112911171D01*
X109963145Y-112892945D01*
X109985394Y-112868789D01*
X110003748Y-112839488D01*
X110017604Y-112805827D01*
X110026360Y-112768591D01*
X110029217Y-112738789D01*
X110029413Y-112728563D01*
X110027682Y-112698552D01*
X110020295Y-112660733D01*
X110007657Y-112626171D01*
X109990371Y-112595684D01*
X109969040Y-112570091D01*
X109944265Y-112550207D01*
X109916650Y-112536851D01*
X109886799Y-112530839D01*
X109879057Y-112530580D01*
X109847882Y-112534933D01*
X109818861Y-112547398D01*
X109792674Y-112567081D01*
X109773001Y-112589020D01*
X109758889Y-112610448D01*
X109738050Y-112634009D01*
X109708565Y-112645118D01*
X109684884Y-112641076D01*
X109660822Y-112622538D01*
X109649430Y-112595311D01*
X109654695Y-112567949D01*
X109655575Y-112567070D01*
X109674536Y-112536172D01*
X109696614Y-112508323D01*
X109721533Y-112483855D01*
X109749016Y-112463096D01*
X109778786Y-112446376D01*
X109810567Y-112434025D01*
X109844083Y-112426372D01*
X109879057Y-112423748D01*
X109919547Y-112427263D01*
X109958049Y-112437462D01*
X109994126Y-112453825D01*
X110027344Y-112475835D01*
X110057267Y-112502972D01*
X110083459Y-112534718D01*
X110105486Y-112570555D01*
X110122911Y-112609962D01*
X110131757Y-112637962D01*
X110138235Y-112667164D01*
X110142216Y-112697416D01*
X110143572Y-112728563D01*
X110142206Y-112759880D01*
X110138199Y-112790257D01*
X110131681Y-112819546D01*
X110122788Y-112847597D01*
X110105281Y-112887028D01*
X110083175Y-112922834D01*
X110056918Y-112954514D01*
X110026958Y-112981562D01*
X109993743Y-113003477D01*
X109957722Y-113019753D01*
X109919344Y-113029888D01*
X109879057Y-113033378D01*
X109845552Y-113030947D01*
X109813251Y-113023848D01*
X109782423Y-113012374D01*
X109753339Y-112996815D01*
X109726267Y-112977465D01*
X109701478Y-112954615D01*
X109679240Y-112928556D01*
X109659824Y-112899582D01*
X109654162Y-112869775D01*
X109668933Y-112841900D01*
X109688254Y-112828947D01*
G37*
G36*
X109395603Y-112972122D02*
G01*
X109388354Y-113001200D01*
X109366587Y-113024447D01*
X109338218Y-113033298D01*
X109335079Y-113033378D01*
X109306001Y-113025930D01*
X109282755Y-113003765D01*
X109273904Y-112975251D01*
X109273823Y-112972122D01*
X109273823Y-112484858D01*
X109280912Y-112455057D01*
X109303199Y-112435130D01*
X109328338Y-112430343D01*
X109359229Y-112436944D01*
X109380999Y-112457233D01*
X109397215Y-112483246D01*
X109418152Y-112505093D01*
X109443155Y-112520855D01*
X109467850Y-112531166D01*
X109493108Y-112547783D01*
X109508598Y-112574348D01*
X109509908Y-112584069D01*
X109498367Y-112611986D01*
X109472099Y-112627740D01*
X109441966Y-112630283D01*
X109414947Y-112630231D01*
X109395730Y-112653770D01*
X109395603Y-112663057D01*
X109395603Y-112972122D01*
G37*
G36*
X108900547Y-112421916D02*
G01*
X108932816Y-112429727D01*
X108962775Y-112443635D01*
X108990211Y-112463071D01*
X109014910Y-112487464D01*
X109036660Y-112516244D01*
X109055248Y-112548841D01*
X109070461Y-112584685D01*
X109082086Y-112623206D01*
X109089909Y-112663832D01*
X109093718Y-112705995D01*
X109094138Y-112743754D01*
X109092323Y-112778904D01*
X109088361Y-112811475D01*
X109082338Y-112841495D01*
X109069631Y-112881808D01*
X109052779Y-112916547D01*
X109032076Y-112945811D01*
X109007815Y-112969697D01*
X108980290Y-112988306D01*
X108949797Y-113001735D01*
X108916629Y-113010083D01*
X108881081Y-113013448D01*
X108869853Y-113013512D01*
X108837518Y-113010909D01*
X108807374Y-113004298D01*
X108779635Y-112993911D01*
X108746769Y-112974592D01*
X108719080Y-112949528D01*
X108697080Y-112919273D01*
X108681285Y-112884379D01*
X108673819Y-112855497D01*
X108670348Y-112824551D01*
X108670490Y-112812681D01*
X108771904Y-112812681D01*
X108772289Y-112821393D01*
X108779766Y-112853533D01*
X108793874Y-112880188D01*
X108815226Y-112902593D01*
X108843949Y-112917501D01*
X108873607Y-112921857D01*
X108883047Y-112921342D01*
X108915020Y-112911819D01*
X108939306Y-112894897D01*
X108958607Y-112870825D01*
X108970930Y-112840491D01*
X108974430Y-112811069D01*
X108969446Y-112779500D01*
X108955821Y-112751844D01*
X108935551Y-112729508D01*
X108906162Y-112712054D01*
X108873607Y-112705995D01*
X108867100Y-112706248D01*
X108837992Y-112712212D01*
X108810387Y-112727966D01*
X108790455Y-112750401D01*
X108776453Y-112781208D01*
X108771904Y-112812681D01*
X108670490Y-112812681D01*
X108670675Y-112797302D01*
X108675966Y-112760692D01*
X108687011Y-112725140D01*
X108704038Y-112692145D01*
X108727273Y-112663206D01*
X108756942Y-112639821D01*
X108783554Y-112626831D01*
X108814008Y-112618441D01*
X108848401Y-112615284D01*
X108873883Y-112615814D01*
X108908315Y-112619309D01*
X108941702Y-112627083D01*
X108970180Y-112635507D01*
X108968212Y-112616527D01*
X108957836Y-112588147D01*
X108943101Y-112562356D01*
X108923117Y-112538930D01*
X108898153Y-112521911D01*
X108868478Y-112515339D01*
X108846417Y-112516755D01*
X108816061Y-112526738D01*
X108793940Y-112548002D01*
X108775275Y-112572492D01*
X108765073Y-112581512D01*
X108736721Y-112591288D01*
X108708157Y-112584216D01*
X108700598Y-112578825D01*
X108687657Y-112552507D01*
X108691304Y-112522960D01*
X108704546Y-112496032D01*
X108723763Y-112472349D01*
X108748898Y-112452450D01*
X108779894Y-112436877D01*
X108808872Y-112427895D01*
X108841536Y-112422303D01*
X108877857Y-112420378D01*
X108900547Y-112421916D01*
G37*
G36*
X134913948Y-101237344D02*
G01*
X134932433Y-101214222D01*
X134960784Y-101202910D01*
X134990319Y-101203045D01*
X134991459Y-101203148D01*
X135023072Y-101206749D01*
X135053101Y-101204556D01*
X135084551Y-101194815D01*
X135111909Y-101177198D01*
X135117983Y-101171543D01*
X135136584Y-101147269D01*
X135148406Y-101119168D01*
X135153579Y-101088220D01*
X135152231Y-101055407D01*
X135144490Y-101021710D01*
X135130486Y-100988110D01*
X135110347Y-100955589D01*
X135091294Y-100932495D01*
X135084202Y-100925127D01*
X135061757Y-100905130D01*
X135029791Y-100883610D01*
X134996416Y-100868108D01*
X134962636Y-100858774D01*
X134929454Y-100855760D01*
X134897876Y-100859218D01*
X134868905Y-100869300D01*
X134843547Y-100886158D01*
X134837889Y-100891449D01*
X134818923Y-100916571D01*
X134807215Y-100945906D01*
X134802617Y-100978341D01*
X134804219Y-101007765D01*
X134809392Y-101032895D01*
X134811318Y-101064291D01*
X134798324Y-101092996D01*
X134778720Y-101106882D01*
X134748598Y-101110788D01*
X134721290Y-101099592D01*
X134705665Y-101076520D01*
X134705665Y-101075277D01*
X134697225Y-101040021D01*
X134693145Y-101004717D01*
X134693463Y-100969795D01*
X134698217Y-100935683D01*
X134707445Y-100902810D01*
X134721185Y-100871603D01*
X134739473Y-100842493D01*
X134762347Y-100815907D01*
X134793464Y-100789762D01*
X134827900Y-100769748D01*
X134864981Y-100755809D01*
X134904033Y-100747883D01*
X134944381Y-100745914D01*
X134985350Y-100749841D01*
X135026265Y-100759606D01*
X135066451Y-100775149D01*
X135092505Y-100788693D01*
X135117735Y-100804762D01*
X135141941Y-100823338D01*
X135164924Y-100844404D01*
X135186103Y-100867514D01*
X135204749Y-100891827D01*
X135220851Y-100917146D01*
X135234398Y-100943270D01*
X135249900Y-100983531D01*
X135259588Y-101024481D01*
X135263422Y-101065448D01*
X135261363Y-101105760D01*
X135253372Y-101144742D01*
X135239411Y-101181722D01*
X135219440Y-101216026D01*
X135193421Y-101246981D01*
X135168010Y-101268953D01*
X135140150Y-101286774D01*
X135110238Y-101300459D01*
X135078671Y-101310023D01*
X135045846Y-101315483D01*
X135012159Y-101316854D01*
X134978009Y-101314152D01*
X134943792Y-101307394D01*
X134918712Y-101290321D01*
X134909446Y-101260166D01*
X134913948Y-101237344D01*
G37*
G36*
X134531889Y-101229987D02*
G01*
X134509737Y-101252533D01*
X134488542Y-101274472D01*
X134467235Y-101296206D01*
X134444749Y-101318138D01*
X134430959Y-101330916D01*
X134405176Y-101347946D01*
X134375269Y-101346717D01*
X134359045Y-101335061D01*
X134343143Y-101307536D01*
X134346115Y-101277900D01*
X134359045Y-101259001D01*
X134381979Y-101235456D01*
X134405024Y-101212481D01*
X134428033Y-101189873D01*
X134450859Y-101167426D01*
X134473355Y-101144938D01*
X134495373Y-101122204D01*
X134504014Y-101112996D01*
X134530402Y-101097969D01*
X134559655Y-101102457D01*
X134563390Y-101104602D01*
X134592190Y-101123333D01*
X134617798Y-101140477D01*
X134646211Y-101159989D01*
X134674297Y-101179545D01*
X134699131Y-101196792D01*
X134726701Y-101215687D01*
X134751162Y-101234876D01*
X134767812Y-101261168D01*
X134768772Y-101280348D01*
X134757805Y-101308820D01*
X134735814Y-101331501D01*
X134715820Y-101339102D01*
X134686969Y-101346678D01*
X134658832Y-101361843D01*
X134633553Y-101382482D01*
X134625046Y-101390914D01*
X134607599Y-101414730D01*
X134597594Y-101444790D01*
X134598629Y-101475560D01*
X134610595Y-101505211D01*
X134625772Y-101524692D01*
X134649773Y-101542668D01*
X134677890Y-101552566D01*
X134708120Y-101553916D01*
X134738457Y-101546244D01*
X134766898Y-101529081D01*
X134775611Y-101521169D01*
X134796285Y-101495360D01*
X134808847Y-101467521D01*
X134811051Y-101437065D01*
X134800792Y-101409774D01*
X134789948Y-101380795D01*
X134793900Y-101349307D01*
X134808771Y-101329880D01*
X134838238Y-101319550D01*
X134867067Y-101325841D01*
X134892427Y-101345305D01*
X134894571Y-101347910D01*
X134911144Y-101374175D01*
X134921361Y-101402494D01*
X134925190Y-101432465D01*
X134922601Y-101463684D01*
X134913561Y-101495748D01*
X134898039Y-101528254D01*
X134876003Y-101560799D01*
X134855183Y-101584991D01*
X134847422Y-101592980D01*
X134824199Y-101614011D01*
X134789396Y-101637968D01*
X134755016Y-101653713D01*
X134721488Y-101662253D01*
X134689243Y-101664595D01*
X134658711Y-101661747D01*
X134621411Y-101651615D01*
X134588941Y-101636434D01*
X134562322Y-101618590D01*
X134546811Y-101604897D01*
X134525068Y-101578344D01*
X134508080Y-101547306D01*
X134496510Y-101513022D01*
X134491022Y-101476727D01*
X134492282Y-101439661D01*
X134500952Y-101403059D01*
X134517698Y-101368160D01*
X134535957Y-101343847D01*
X134543184Y-101336201D01*
X134566237Y-101316523D01*
X134590679Y-101299548D01*
X134613233Y-101283975D01*
X134613855Y-101258483D01*
X134587224Y-101243821D01*
X134560234Y-101228483D01*
X134554375Y-101225117D01*
X134531889Y-101229987D01*
G37*
G36*
X124576048Y-99417035D02*
G01*
X124594532Y-99393913D01*
X124622884Y-99382601D01*
X124652419Y-99382736D01*
X124653559Y-99382840D01*
X124685172Y-99386440D01*
X124715200Y-99384248D01*
X124746651Y-99374506D01*
X124774009Y-99356889D01*
X124780083Y-99351234D01*
X124798684Y-99326961D01*
X124810506Y-99298859D01*
X124815679Y-99267911D01*
X124814330Y-99235098D01*
X124806590Y-99201401D01*
X124792586Y-99167801D01*
X124772447Y-99135280D01*
X124753394Y-99112187D01*
X124746302Y-99104818D01*
X124723857Y-99084821D01*
X124691891Y-99063302D01*
X124658516Y-99047799D01*
X124624735Y-99038465D01*
X124591554Y-99035451D01*
X124559976Y-99038909D01*
X124531005Y-99048991D01*
X124505646Y-99065849D01*
X124499989Y-99071140D01*
X124481023Y-99096262D01*
X124469315Y-99125597D01*
X124464716Y-99158032D01*
X124466319Y-99187456D01*
X124471492Y-99212586D01*
X124473417Y-99243982D01*
X124460423Y-99272687D01*
X124440820Y-99286573D01*
X124410697Y-99290479D01*
X124383390Y-99279283D01*
X124367765Y-99256212D01*
X124367765Y-99254968D01*
X124359324Y-99219712D01*
X124355244Y-99184409D01*
X124355563Y-99149487D01*
X124360317Y-99115374D01*
X124369545Y-99082501D01*
X124383284Y-99051295D01*
X124401572Y-99022184D01*
X124424447Y-98995599D01*
X124455563Y-98969453D01*
X124490000Y-98949440D01*
X124527081Y-98935500D01*
X124566133Y-98927575D01*
X124606481Y-98925605D01*
X124647449Y-98929532D01*
X124688364Y-98939297D01*
X124728551Y-98954841D01*
X124754605Y-98968385D01*
X124779834Y-98984453D01*
X124804041Y-99003029D01*
X124827024Y-99024095D01*
X124848203Y-99047205D01*
X124866849Y-99071519D01*
X124882951Y-99096837D01*
X124896497Y-99122962D01*
X124912000Y-99163222D01*
X124921688Y-99204172D01*
X124925522Y-99245140D01*
X124923463Y-99285451D01*
X124915472Y-99324433D01*
X124901511Y-99361413D01*
X124881540Y-99395717D01*
X124855521Y-99426672D01*
X124830110Y-99448645D01*
X124802250Y-99466465D01*
X124772338Y-99480150D01*
X124740771Y-99489714D01*
X124707945Y-99495174D01*
X124674259Y-99496545D01*
X124640109Y-99493844D01*
X124605892Y-99487085D01*
X124580811Y-99470012D01*
X124571545Y-99439857D01*
X124576048Y-99417035D01*
G37*
G36*
X124470352Y-99725212D02*
G01*
X124485788Y-99750898D01*
X124486834Y-99782728D01*
X124473033Y-99809046D01*
X124470870Y-99811323D01*
X124445043Y-99826617D01*
X124412931Y-99827382D01*
X124386510Y-99813478D01*
X124384241Y-99811323D01*
X124039693Y-99466775D01*
X124023634Y-99440689D01*
X124025302Y-99410840D01*
X124039693Y-99389679D01*
X124066204Y-99372503D01*
X124095944Y-99371457D01*
X124125804Y-99378384D01*
X124156057Y-99379027D01*
X124184883Y-99372492D01*
X124209636Y-99362322D01*
X124239246Y-99356212D01*
X124268983Y-99364043D01*
X124276784Y-99369990D01*
X124288363Y-99397891D01*
X124280929Y-99427605D01*
X124261419Y-99450710D01*
X124242277Y-99469780D01*
X124245333Y-99500012D01*
X124251810Y-99506670D01*
X124470352Y-99725212D01*
G37*
G36*
X123916692Y-99588947D02*
G01*
X123932033Y-99614868D01*
X123933404Y-99644164D01*
X123920864Y-99671159D01*
X123916692Y-99675783D01*
X123887192Y-99705147D01*
X123861130Y-99730893D01*
X123838436Y-99753226D01*
X123813294Y-99778053D01*
X123789859Y-99801817D01*
X123770063Y-99825294D01*
X123768821Y-99833187D01*
X123798072Y-99843611D01*
X123829514Y-99849289D01*
X123860195Y-99854846D01*
X123864984Y-99855777D01*
X123895775Y-99862077D01*
X123925606Y-99868934D01*
X123954390Y-99876465D01*
X123986534Y-99886263D01*
X124017000Y-99897330D01*
X124044754Y-99909420D01*
X124071909Y-99923707D01*
X124099460Y-99940271D01*
X124128403Y-99959188D01*
X124154304Y-99976807D01*
X124170880Y-99988208D01*
X124192160Y-100011725D01*
X124197087Y-100041788D01*
X124184732Y-100070780D01*
X124178030Y-100078464D01*
X124151354Y-100093853D01*
X124119102Y-100092065D01*
X124092856Y-100078563D01*
X124087256Y-100074319D01*
X124063590Y-100056054D01*
X124038190Y-100038262D01*
X124011972Y-100021745D01*
X123981128Y-100004446D01*
X123953102Y-99990521D01*
X123922080Y-99976913D01*
X123889669Y-99965468D01*
X123859419Y-99956996D01*
X123827952Y-99949647D01*
X123796886Y-99943565D01*
X123767843Y-99938896D01*
X123737942Y-99935360D01*
X123704463Y-99933701D01*
X123670810Y-99933130D01*
X123641529Y-99929814D01*
X123611465Y-99916988D01*
X123597117Y-99904998D01*
X123582081Y-99876991D01*
X123584156Y-99845575D01*
X123600019Y-99820027D01*
X123830477Y-99589568D01*
X123856209Y-99574130D01*
X123888115Y-99573057D01*
X123914424Y-99586793D01*
X123916692Y-99588947D01*
G37*
D13*
G36*
X120685903Y-44971821D02*
G01*
X120723777Y-44981489D01*
X120754211Y-45010264D01*
X120766600Y-45051346D01*
X120768945Y-45526350D01*
X120775941Y-45567655D01*
X120798684Y-45606582D01*
X120834290Y-45634540D01*
X120872786Y-45648982D01*
X120916663Y-45653942D01*
X120960715Y-45648882D01*
X120999442Y-45634231D01*
X121030859Y-45610785D01*
X121055622Y-45573379D01*
X121064385Y-45533609D01*
X121064577Y-45526350D01*
X121064577Y-45051346D01*
X121074997Y-45013594D01*
X121104058Y-44983415D01*
X121145275Y-44971821D01*
X121186037Y-44983690D01*
X121214231Y-45014408D01*
X121223628Y-45052519D01*
X121223628Y-45547648D01*
X121217424Y-45598357D01*
X121199609Y-45645610D01*
X121171376Y-45688390D01*
X121144082Y-45716925D01*
X121112101Y-45741941D01*
X121075938Y-45763007D01*
X121036095Y-45779694D01*
X120993076Y-45791571D01*
X120947384Y-45798209D01*
X120915686Y-45799511D01*
X120868713Y-45796577D01*
X120823980Y-45788072D01*
X120782007Y-45774445D01*
X120743314Y-45756141D01*
X120708421Y-45733610D01*
X120677847Y-45707297D01*
X120652112Y-45677650D01*
X120626224Y-45633707D01*
X120611095Y-45585693D01*
X120607550Y-45547648D01*
X120607550Y-45052519D01*
X120616946Y-45014408D01*
X120645141Y-44983690D01*
X120685903Y-44971821D01*
G37*
G36*
X119911164Y-45711974D02*
G01*
X119923401Y-45673361D01*
X119955033Y-45650285D01*
X119994207Y-45643391D01*
X120049149Y-45643705D01*
X120096476Y-45644463D01*
X120136669Y-45645385D01*
X120180000Y-45646390D01*
X120219282Y-45646358D01*
X120257998Y-45635207D01*
X120259552Y-45628150D01*
X120237855Y-45594229D01*
X120209458Y-45565917D01*
X120175146Y-45536698D01*
X120139518Y-45510715D01*
X120117305Y-45497236D01*
X120081030Y-45474887D01*
X120048056Y-45449087D01*
X120018737Y-45420159D01*
X119993425Y-45388426D01*
X119972473Y-45354211D01*
X119956233Y-45317837D01*
X119945058Y-45279626D01*
X119939301Y-45239902D01*
X119940728Y-45198206D01*
X119950680Y-45153812D01*
X119968870Y-45109281D01*
X119995013Y-45067173D01*
X120028822Y-45030048D01*
X120070011Y-45000464D01*
X120118293Y-44980984D01*
X120158988Y-44974543D01*
X120173383Y-44974166D01*
X120223199Y-44976917D01*
X120266477Y-44984103D01*
X120314878Y-44999803D01*
X120353732Y-45021518D01*
X120384226Y-45048182D01*
X120412395Y-45086844D01*
X120431671Y-45129486D01*
X120442246Y-45165066D01*
X120442683Y-45204659D01*
X120423065Y-45240347D01*
X120383823Y-45255143D01*
X120346007Y-45244540D01*
X120323360Y-45211240D01*
X120307936Y-45167985D01*
X120287174Y-45133881D01*
X120247737Y-45109709D01*
X120195504Y-45102668D01*
X120178854Y-45103126D01*
X120139215Y-45117435D01*
X120108122Y-45144989D01*
X120088552Y-45179226D01*
X120081311Y-45222612D01*
X120086042Y-45256315D01*
X120105709Y-45300958D01*
X120130327Y-45334477D01*
X120160245Y-45365867D01*
X120193061Y-45394963D01*
X120226376Y-45421599D01*
X120257791Y-45445611D01*
X120290731Y-45471686D01*
X120300976Y-45480823D01*
X120332190Y-45510216D01*
X120364974Y-45542514D01*
X120396521Y-45577706D01*
X120424021Y-45615777D01*
X120444666Y-45656713D01*
X120455647Y-45700502D01*
X120456705Y-45718813D01*
X120443881Y-45756799D01*
X120411186Y-45779966D01*
X120371513Y-45787006D01*
X119994207Y-45787006D01*
X119955033Y-45778655D01*
X119923401Y-45752436D01*
X119911164Y-45711974D01*
G37*
D12*
G36*
X123568948Y-112292345D02*
G01*
X123587433Y-112269223D01*
X123615784Y-112257911D01*
X123645319Y-112258046D01*
X123646459Y-112258149D01*
X123678072Y-112261750D01*
X123708101Y-112259557D01*
X123739551Y-112249816D01*
X123766909Y-112232199D01*
X123772983Y-112226544D01*
X123791584Y-112202270D01*
X123803406Y-112174169D01*
X123808579Y-112143221D01*
X123807231Y-112110408D01*
X123799490Y-112076711D01*
X123785486Y-112043111D01*
X123765347Y-112010590D01*
X123746294Y-111987496D01*
X123739202Y-111980128D01*
X123716757Y-111960131D01*
X123684791Y-111938611D01*
X123651416Y-111923109D01*
X123617636Y-111913775D01*
X123584454Y-111910761D01*
X123552876Y-111914219D01*
X123523905Y-111924301D01*
X123498547Y-111941159D01*
X123492889Y-111946450D01*
X123473923Y-111971572D01*
X123462215Y-112000907D01*
X123457617Y-112033342D01*
X123459219Y-112062766D01*
X123464392Y-112087896D01*
X123466318Y-112119292D01*
X123453324Y-112147997D01*
X123433720Y-112161883D01*
X123403598Y-112165789D01*
X123376290Y-112154593D01*
X123360665Y-112131521D01*
X123360665Y-112130278D01*
X123352225Y-112095022D01*
X123348145Y-112059718D01*
X123348463Y-112024796D01*
X123353217Y-111990684D01*
X123362445Y-111957811D01*
X123376185Y-111926604D01*
X123394473Y-111897494D01*
X123417347Y-111870908D01*
X123448464Y-111844763D01*
X123482900Y-111824749D01*
X123519981Y-111810810D01*
X123559033Y-111802884D01*
X123599381Y-111800915D01*
X123640350Y-111804842D01*
X123681265Y-111814607D01*
X123721451Y-111830150D01*
X123747505Y-111843694D01*
X123772735Y-111859763D01*
X123796941Y-111878339D01*
X123819924Y-111899405D01*
X123841103Y-111922515D01*
X123859749Y-111946828D01*
X123875851Y-111972147D01*
X123889398Y-111998271D01*
X123904900Y-112038532D01*
X123914588Y-112079482D01*
X123918422Y-112120449D01*
X123916363Y-112160761D01*
X123908372Y-112199743D01*
X123894411Y-112236723D01*
X123874440Y-112271027D01*
X123848421Y-112301982D01*
X123823010Y-112323954D01*
X123795150Y-112341775D01*
X123765238Y-112355460D01*
X123733671Y-112365024D01*
X123700846Y-112370484D01*
X123667159Y-112371855D01*
X123633009Y-112369153D01*
X123598792Y-112362395D01*
X123573712Y-112345322D01*
X123564446Y-112315167D01*
X123568948Y-112292345D01*
G37*
G36*
X123463253Y-112600521D02*
G01*
X123478688Y-112626208D01*
X123479734Y-112658038D01*
X123465933Y-112684356D01*
X123463771Y-112686632D01*
X123437943Y-112701927D01*
X123405832Y-112702692D01*
X123379410Y-112688788D01*
X123377141Y-112686632D01*
X123032593Y-112342084D01*
X123016534Y-112315999D01*
X123018203Y-112286149D01*
X123032593Y-112264988D01*
X123059104Y-112247813D01*
X123088845Y-112246766D01*
X123118704Y-112253694D01*
X123148958Y-112254336D01*
X123177783Y-112247802D01*
X123202536Y-112237632D01*
X123232146Y-112231522D01*
X123261883Y-112239352D01*
X123269684Y-112245300D01*
X123281263Y-112273200D01*
X123273829Y-112302915D01*
X123254319Y-112326020D01*
X123235177Y-112345089D01*
X123238234Y-112375322D01*
X123244711Y-112381979D01*
X123463253Y-112600521D01*
G37*
D13*
G36*
X90162987Y-40283699D02*
G01*
X90172918Y-40245200D01*
X90202471Y-40214784D01*
X90240491Y-40203300D01*
X90244662Y-40203196D01*
X90779065Y-40203196D01*
X90820120Y-40192620D01*
X90847522Y-40164613D01*
X90859410Y-40124757D01*
X90859763Y-40115855D01*
X90848669Y-40073575D01*
X90822940Y-40040612D01*
X90786091Y-40017798D01*
X90747607Y-40010537D01*
X90708823Y-39997616D01*
X90685658Y-39964826D01*
X90682736Y-39945471D01*
X90695644Y-39907111D01*
X90728342Y-39884587D01*
X90747607Y-39881773D01*
X90796261Y-39886701D01*
X90841622Y-39900830D01*
X90882706Y-39923174D01*
X90918528Y-39952749D01*
X90948103Y-39988572D01*
X90970448Y-40029655D01*
X90984576Y-40075017D01*
X90989505Y-40123671D01*
X90984576Y-40172325D01*
X90970448Y-40217686D01*
X90948103Y-40258770D01*
X90918528Y-40294592D01*
X90882706Y-40324167D01*
X90841622Y-40346512D01*
X90796261Y-40360640D01*
X90747607Y-40365569D01*
X90244662Y-40365569D01*
X90205372Y-40355632D01*
X90174623Y-40326029D01*
X90163091Y-40287887D01*
X90162987Y-40283699D01*
G37*
G36*
X90914473Y-41061759D02*
G01*
X90875860Y-41049522D01*
X90852784Y-41017890D01*
X90845890Y-40978716D01*
X90846204Y-40923774D01*
X90846962Y-40876447D01*
X90847884Y-40836254D01*
X90848889Y-40792923D01*
X90848857Y-40753641D01*
X90837706Y-40714925D01*
X90830649Y-40713371D01*
X90796728Y-40735067D01*
X90768416Y-40763465D01*
X90739197Y-40797777D01*
X90713214Y-40833405D01*
X90699735Y-40855618D01*
X90677386Y-40891893D01*
X90651586Y-40924867D01*
X90622658Y-40954186D01*
X90590925Y-40979498D01*
X90556710Y-41000450D01*
X90520336Y-41016690D01*
X90482125Y-41027865D01*
X90442401Y-41033622D01*
X90400705Y-41032195D01*
X90356311Y-41022243D01*
X90311780Y-41004053D01*
X90269672Y-40977910D01*
X90232547Y-40944101D01*
X90202963Y-40902912D01*
X90183483Y-40854630D01*
X90177042Y-40813935D01*
X90176665Y-40799539D01*
X90179416Y-40749724D01*
X90186602Y-40706445D01*
X90202302Y-40658045D01*
X90224017Y-40619191D01*
X90250681Y-40588696D01*
X90289343Y-40560528D01*
X90331985Y-40541252D01*
X90367565Y-40530677D01*
X90407158Y-40530240D01*
X90442846Y-40549858D01*
X90457642Y-40589100D01*
X90447039Y-40626916D01*
X90413739Y-40649563D01*
X90370484Y-40664987D01*
X90336380Y-40685749D01*
X90312208Y-40725186D01*
X90305167Y-40777419D01*
X90305625Y-40794068D01*
X90319934Y-40833708D01*
X90347488Y-40864801D01*
X90381725Y-40884371D01*
X90425111Y-40891612D01*
X90458814Y-40886881D01*
X90503457Y-40867214D01*
X90536976Y-40842595D01*
X90568366Y-40812678D01*
X90597462Y-40779862D01*
X90624098Y-40746547D01*
X90648110Y-40715132D01*
X90674185Y-40682192D01*
X90683322Y-40671947D01*
X90712715Y-40640733D01*
X90745013Y-40607949D01*
X90780205Y-40576402D01*
X90818276Y-40548902D01*
X90859212Y-40528257D01*
X90903001Y-40517275D01*
X90921312Y-40516218D01*
X90959298Y-40529042D01*
X90982465Y-40561737D01*
X90989505Y-40601410D01*
X90989505Y-40978716D01*
X90981154Y-41017890D01*
X90954935Y-41049522D01*
X90914473Y-41061759D01*
G37*
D12*
G36*
X131126048Y-98427035D02*
G01*
X131144532Y-98403913D01*
X131172884Y-98392601D01*
X131202419Y-98392736D01*
X131203559Y-98392840D01*
X131235172Y-98396440D01*
X131265200Y-98394248D01*
X131296651Y-98384506D01*
X131324009Y-98366889D01*
X131330083Y-98361234D01*
X131348684Y-98336961D01*
X131360506Y-98308859D01*
X131365679Y-98277911D01*
X131364330Y-98245098D01*
X131356590Y-98211401D01*
X131342586Y-98177801D01*
X131322447Y-98145280D01*
X131303394Y-98122187D01*
X131296302Y-98114818D01*
X131273857Y-98094821D01*
X131241891Y-98073302D01*
X131208516Y-98057799D01*
X131174735Y-98048465D01*
X131141554Y-98045451D01*
X131109976Y-98048909D01*
X131081005Y-98058991D01*
X131055646Y-98075849D01*
X131049989Y-98081140D01*
X131031023Y-98106262D01*
X131019315Y-98135597D01*
X131014716Y-98168032D01*
X131016319Y-98197456D01*
X131021492Y-98222586D01*
X131023417Y-98253982D01*
X131010423Y-98282687D01*
X130990820Y-98296573D01*
X130960697Y-98300479D01*
X130933390Y-98289283D01*
X130917765Y-98266212D01*
X130917765Y-98264968D01*
X130909324Y-98229712D01*
X130905244Y-98194409D01*
X130905563Y-98159487D01*
X130910317Y-98125374D01*
X130919545Y-98092501D01*
X130933284Y-98061295D01*
X130951572Y-98032184D01*
X130974447Y-98005599D01*
X131005563Y-97979453D01*
X131040000Y-97959440D01*
X131077081Y-97945500D01*
X131116133Y-97937575D01*
X131156481Y-97935605D01*
X131197449Y-97939532D01*
X131238364Y-97949297D01*
X131278551Y-97964841D01*
X131304605Y-97978385D01*
X131329834Y-97994453D01*
X131354041Y-98013029D01*
X131377024Y-98034095D01*
X131398203Y-98057205D01*
X131416849Y-98081519D01*
X131432951Y-98106837D01*
X131446497Y-98132962D01*
X131462000Y-98173222D01*
X131471688Y-98214172D01*
X131475522Y-98255140D01*
X131473463Y-98295451D01*
X131465472Y-98334433D01*
X131451511Y-98371413D01*
X131431540Y-98405717D01*
X131405521Y-98436672D01*
X131380110Y-98458645D01*
X131352250Y-98476465D01*
X131322338Y-98490150D01*
X131290771Y-98499714D01*
X131257945Y-98505174D01*
X131224259Y-98506545D01*
X131190109Y-98503844D01*
X131155892Y-98497085D01*
X131130811Y-98480012D01*
X131121545Y-98449857D01*
X131126048Y-98427035D01*
G37*
G36*
X131020352Y-98735212D02*
G01*
X131035788Y-98760898D01*
X131036834Y-98792728D01*
X131023033Y-98819046D01*
X131020870Y-98821323D01*
X130995043Y-98836617D01*
X130962931Y-98837382D01*
X130936510Y-98823478D01*
X130934241Y-98821323D01*
X130589693Y-98476775D01*
X130573634Y-98450689D01*
X130575302Y-98420840D01*
X130589693Y-98399679D01*
X130616204Y-98382503D01*
X130645944Y-98381457D01*
X130675804Y-98388384D01*
X130706057Y-98389027D01*
X130734883Y-98382492D01*
X130759636Y-98372322D01*
X130789246Y-98366212D01*
X130818983Y-98374043D01*
X130826784Y-98379990D01*
X130838363Y-98407891D01*
X130830929Y-98437605D01*
X130811419Y-98460710D01*
X130792277Y-98479780D01*
X130795333Y-98510012D01*
X130801810Y-98516670D01*
X131020352Y-98735212D01*
G37*
G36*
X130308842Y-98762815D02*
G01*
X130341411Y-98766091D01*
X130371273Y-98769529D01*
X130408333Y-98773930D01*
X130443051Y-98778128D01*
X130476312Y-98782128D01*
X130508997Y-98785938D01*
X130541989Y-98789563D01*
X130576172Y-98793009D01*
X130612429Y-98796283D01*
X130621920Y-98797075D01*
X130651066Y-98800763D01*
X130679308Y-98810485D01*
X130697980Y-98824431D01*
X130716378Y-98851994D01*
X130723225Y-98883821D01*
X130718045Y-98915667D01*
X130700363Y-98943287D01*
X130586999Y-99056652D01*
X130586753Y-99086211D01*
X130587517Y-99087013D01*
X130620780Y-99120276D01*
X130636219Y-99145960D01*
X130637291Y-99177763D01*
X130623555Y-99204017D01*
X130621402Y-99206284D01*
X130595504Y-99221648D01*
X130563364Y-99222443D01*
X130536938Y-99208543D01*
X130534669Y-99206387D01*
X130500784Y-99172503D01*
X130471319Y-99172370D01*
X130470526Y-99173124D01*
X130463376Y-99180274D01*
X130436906Y-99194449D01*
X130405652Y-99190543D01*
X130390943Y-99180171D01*
X130376506Y-99153504D01*
X130378965Y-99124214D01*
X130390218Y-99107116D01*
X130397990Y-99099344D01*
X130398132Y-99069888D01*
X130397368Y-99069086D01*
X130212504Y-98884222D01*
X130209653Y-98879614D01*
X130365066Y-98879614D01*
X130370530Y-98888885D01*
X130472909Y-98991265D01*
X130502298Y-98994393D01*
X130506069Y-98991265D01*
X130585030Y-98912304D01*
X130576740Y-98886191D01*
X130385969Y-98858109D01*
X130365066Y-98879614D01*
X130209653Y-98879614D01*
X130195884Y-98857356D01*
X130194203Y-98828015D01*
X130206022Y-98799382D01*
X130217892Y-98784951D01*
X130244355Y-98766885D01*
X130274551Y-98761676D01*
X130308842Y-98762815D01*
G37*
G36*
X118318254Y-41353946D02*
G01*
X118347674Y-41350667D01*
X118375721Y-41362716D01*
X118396510Y-41383695D01*
X118397242Y-41384574D01*
X118417051Y-41409474D01*
X118439834Y-41429157D01*
X118468961Y-41444508D01*
X118500764Y-41451396D01*
X118509057Y-41451692D01*
X118539374Y-41447681D01*
X118567604Y-41436170D01*
X118593145Y-41417944D01*
X118615394Y-41393788D01*
X118633748Y-41364487D01*
X118647604Y-41330826D01*
X118656360Y-41293590D01*
X118659217Y-41263788D01*
X118659413Y-41253562D01*
X118657682Y-41223551D01*
X118650295Y-41185732D01*
X118637657Y-41151170D01*
X118620371Y-41120683D01*
X118599040Y-41095090D01*
X118574265Y-41075206D01*
X118546650Y-41061850D01*
X118516799Y-41055838D01*
X118509057Y-41055579D01*
X118477882Y-41059932D01*
X118448861Y-41072397D01*
X118422674Y-41092080D01*
X118403001Y-41114019D01*
X118388889Y-41135447D01*
X118368050Y-41159008D01*
X118338565Y-41170117D01*
X118314884Y-41166075D01*
X118290822Y-41147537D01*
X118279430Y-41120310D01*
X118284695Y-41092948D01*
X118285575Y-41092069D01*
X118304536Y-41061171D01*
X118326614Y-41033322D01*
X118351533Y-41008854D01*
X118379016Y-40988095D01*
X118408786Y-40971375D01*
X118440567Y-40959024D01*
X118474083Y-40951371D01*
X118509057Y-40948747D01*
X118549547Y-40952262D01*
X118588049Y-40962461D01*
X118624126Y-40978824D01*
X118657344Y-41000834D01*
X118687267Y-41027971D01*
X118713459Y-41059717D01*
X118735486Y-41095554D01*
X118752911Y-41134961D01*
X118761757Y-41162961D01*
X118768235Y-41192163D01*
X118772216Y-41222415D01*
X118773572Y-41253562D01*
X118772206Y-41284879D01*
X118768199Y-41315256D01*
X118761681Y-41344545D01*
X118752788Y-41372596D01*
X118735281Y-41412027D01*
X118713175Y-41447833D01*
X118686918Y-41479513D01*
X118656958Y-41506561D01*
X118623743Y-41528476D01*
X118587722Y-41544752D01*
X118549344Y-41554887D01*
X118509057Y-41558377D01*
X118475552Y-41555946D01*
X118443251Y-41548847D01*
X118412423Y-41537373D01*
X118383339Y-41521814D01*
X118356267Y-41502464D01*
X118331478Y-41479614D01*
X118309240Y-41453555D01*
X118289824Y-41424581D01*
X118284162Y-41394774D01*
X118298933Y-41366899D01*
X118318254Y-41353946D01*
G37*
G36*
X118025603Y-41497121D02*
G01*
X118018354Y-41526199D01*
X117996587Y-41549446D01*
X117968218Y-41558297D01*
X117965079Y-41558377D01*
X117936001Y-41550929D01*
X117912755Y-41528764D01*
X117903904Y-41500250D01*
X117903823Y-41497121D01*
X117903823Y-41009857D01*
X117910912Y-40980056D01*
X117933199Y-40960129D01*
X117958338Y-40955342D01*
X117989229Y-40961943D01*
X118010999Y-40982232D01*
X118027215Y-41008245D01*
X118048152Y-41030092D01*
X118073155Y-41045854D01*
X118097850Y-41056165D01*
X118123108Y-41072782D01*
X118138598Y-41099347D01*
X118139908Y-41109068D01*
X118128367Y-41136985D01*
X118102099Y-41152739D01*
X118071966Y-41155282D01*
X118044947Y-41155230D01*
X118025730Y-41178769D01*
X118025603Y-41188056D01*
X118025603Y-41497121D01*
G37*
G36*
X117675798Y-41130611D02*
G01*
X117645742Y-41135625D01*
X117617042Y-41122486D01*
X117601060Y-41103793D01*
X117584373Y-41079282D01*
X117562254Y-41058811D01*
X117534350Y-41046969D01*
X117511960Y-41044588D01*
X117480912Y-41047362D01*
X117451050Y-41058727D01*
X117430579Y-41082610D01*
X117426231Y-41107163D01*
X117432985Y-41135698D01*
X117452358Y-41161802D01*
X117476728Y-41178488D01*
X117501115Y-41187177D01*
X117528197Y-41200603D01*
X117542145Y-41227991D01*
X117542295Y-41231434D01*
X117530510Y-41258624D01*
X117502961Y-41272813D01*
X117501115Y-41273199D01*
X117471806Y-41284534D01*
X117447135Y-41301812D01*
X117426520Y-41326033D01*
X117415689Y-41356677D01*
X117418269Y-41386742D01*
X117420369Y-41393220D01*
X117435932Y-41418852D01*
X117462437Y-41438256D01*
X117490293Y-41447932D01*
X117519734Y-41452057D01*
X117532183Y-41452425D01*
X117562179Y-41445548D01*
X117589673Y-41430122D01*
X117613469Y-41409022D01*
X117627877Y-41388238D01*
X117643944Y-41363431D01*
X117670021Y-41349268D01*
X117692651Y-41349843D01*
X117717067Y-41368412D01*
X117724140Y-41399714D01*
X117718589Y-41427366D01*
X117705147Y-41453768D01*
X117686281Y-41477427D01*
X117663025Y-41498115D01*
X117636414Y-41515604D01*
X117607481Y-41529666D01*
X117577260Y-41540071D01*
X117546784Y-41546591D01*
X117517089Y-41548999D01*
X117482698Y-41546196D01*
X117447466Y-41537346D01*
X117413065Y-41522777D01*
X117381168Y-41502818D01*
X117353447Y-41477796D01*
X117331576Y-41448040D01*
X117317226Y-41413877D01*
X117312071Y-41375635D01*
X117314720Y-41340631D01*
X117325219Y-41304932D01*
X117341391Y-41279671D01*
X117365780Y-41259278D01*
X117394731Y-41245293D01*
X117419955Y-41229633D01*
X117420369Y-41227331D01*
X117395123Y-41210944D01*
X117369296Y-41196063D01*
X117348241Y-41174749D01*
X117332220Y-41141557D01*
X117325931Y-41104073D01*
X117325554Y-41092948D01*
X117328856Y-41063342D01*
X117342490Y-41029907D01*
X117360184Y-41006526D01*
X117383183Y-40986589D01*
X117410817Y-40970514D01*
X117442412Y-40958718D01*
X117477298Y-40951618D01*
X117505219Y-40949627D01*
X117534520Y-40950969D01*
X117569708Y-40957444D01*
X117602360Y-40968605D01*
X117631475Y-40983766D01*
X117656049Y-41002239D01*
X117678131Y-41027810D01*
X117683418Y-41036968D01*
X117695616Y-41066332D01*
X117699948Y-41095822D01*
X117687660Y-41122884D01*
X117675798Y-41130611D01*
G37*
G36*
X134834075Y-110041112D02*
G01*
X134852560Y-110017990D01*
X134880911Y-110006678D01*
X134910446Y-110006813D01*
X134911586Y-110006916D01*
X134943199Y-110010517D01*
X134973228Y-110008324D01*
X135004678Y-109998583D01*
X135032036Y-109980966D01*
X135038110Y-109975311D01*
X135056711Y-109951037D01*
X135068533Y-109922936D01*
X135073706Y-109891988D01*
X135072358Y-109859175D01*
X135064617Y-109825478D01*
X135050613Y-109791878D01*
X135030474Y-109759357D01*
X135011421Y-109736263D01*
X135004329Y-109728895D01*
X134981884Y-109708898D01*
X134949918Y-109687378D01*
X134916543Y-109671876D01*
X134882763Y-109662542D01*
X134849581Y-109659528D01*
X134818003Y-109662986D01*
X134789032Y-109673068D01*
X134763674Y-109689926D01*
X134758016Y-109695217D01*
X134739050Y-109720339D01*
X134727342Y-109749674D01*
X134722744Y-109782109D01*
X134724346Y-109811533D01*
X134729519Y-109836663D01*
X134731445Y-109868059D01*
X134718451Y-109896764D01*
X134698847Y-109910650D01*
X134668725Y-109914556D01*
X134641417Y-109903360D01*
X134625792Y-109880288D01*
X134625792Y-109879045D01*
X134617352Y-109843789D01*
X134613272Y-109808485D01*
X134613590Y-109773563D01*
X134618344Y-109739451D01*
X134627572Y-109706578D01*
X134641312Y-109675371D01*
X134659600Y-109646261D01*
X134682474Y-109619675D01*
X134713591Y-109593530D01*
X134748027Y-109573516D01*
X134785108Y-109559577D01*
X134824160Y-109551651D01*
X134864508Y-109549682D01*
X134905477Y-109553609D01*
X134946392Y-109563374D01*
X134986578Y-109578917D01*
X135012632Y-109592461D01*
X135037862Y-109608530D01*
X135062068Y-109627106D01*
X135085051Y-109648172D01*
X135106230Y-109671282D01*
X135124876Y-109695595D01*
X135140978Y-109720914D01*
X135154525Y-109747038D01*
X135170027Y-109787299D01*
X135179715Y-109828249D01*
X135183549Y-109869216D01*
X135181490Y-109909528D01*
X135173499Y-109948510D01*
X135159538Y-109985490D01*
X135139567Y-110019794D01*
X135113548Y-110050749D01*
X135088137Y-110072721D01*
X135060277Y-110090542D01*
X135030365Y-110104227D01*
X134998798Y-110113791D01*
X134965973Y-110119251D01*
X134932286Y-110120622D01*
X134898136Y-110117920D01*
X134863919Y-110111162D01*
X134838839Y-110094089D01*
X134829573Y-110063934D01*
X134834075Y-110041112D01*
G37*
G36*
X134508265Y-109924694D02*
G01*
X134544458Y-109934600D01*
X134580561Y-109949188D01*
X134616019Y-109968206D01*
X134650278Y-109991402D01*
X134682785Y-110018522D01*
X134709781Y-110044925D01*
X134733353Y-110071063D01*
X134753582Y-110096896D01*
X134770551Y-110122382D01*
X134790071Y-110159872D01*
X134802719Y-110196353D01*
X134808772Y-110231685D01*
X134808508Y-110265731D01*
X134802203Y-110298352D01*
X134790137Y-110329409D01*
X134772587Y-110358766D01*
X134749830Y-110386282D01*
X134741936Y-110394266D01*
X134717231Y-110415290D01*
X134691241Y-110431930D01*
X134664282Y-110444200D01*
X134627381Y-110453779D01*
X134590079Y-110455635D01*
X134553130Y-110449797D01*
X134517287Y-110436293D01*
X134491585Y-110421150D01*
X134467248Y-110401722D01*
X134448212Y-110382222D01*
X134426066Y-110352594D01*
X134408737Y-110319645D01*
X134397446Y-110284274D01*
X134393412Y-110247382D01*
X134394950Y-110234404D01*
X134497975Y-110234404D01*
X134499746Y-110264361D01*
X134511628Y-110296046D01*
X134530666Y-110321517D01*
X134537099Y-110327405D01*
X134565112Y-110344845D01*
X134593936Y-110353717D01*
X134624877Y-110354461D01*
X134655729Y-110344693D01*
X134679780Y-110326802D01*
X134686091Y-110319763D01*
X134701966Y-110290420D01*
X134707173Y-110261282D01*
X134703800Y-110230612D01*
X134691064Y-110200449D01*
X134672734Y-110177170D01*
X134646887Y-110158372D01*
X134617697Y-110148450D01*
X134587570Y-110146990D01*
X134554447Y-110155429D01*
X134527143Y-110174165D01*
X134522721Y-110178944D01*
X134506355Y-110203744D01*
X134497975Y-110234404D01*
X134394950Y-110234404D01*
X134397857Y-110209867D01*
X134407488Y-110181864D01*
X134423090Y-110154397D01*
X134445177Y-110127845D01*
X134463570Y-110110201D01*
X134490389Y-110088326D01*
X134519494Y-110070214D01*
X134545588Y-110056034D01*
X134530775Y-110044004D01*
X134503371Y-110031274D01*
X134474715Y-110023457D01*
X134444019Y-110021022D01*
X134414332Y-110026640D01*
X134388702Y-110042977D01*
X134374104Y-110059578D01*
X134359698Y-110088101D01*
X134359092Y-110118780D01*
X134363210Y-110149295D01*
X134362375Y-110162886D01*
X134349239Y-110189847D01*
X134324041Y-110205044D01*
X134314884Y-110206577D01*
X134287124Y-110197118D01*
X134268809Y-110173646D01*
X134259132Y-110145242D01*
X134255974Y-110114907D01*
X134259677Y-110083064D01*
X134270582Y-110050134D01*
X134284722Y-110023292D01*
X134303865Y-109996241D01*
X134328186Y-109969197D01*
X134345318Y-109954240D01*
X134373659Y-109936946D01*
X134404678Y-109925596D01*
X134437821Y-109919940D01*
X134472534Y-109919723D01*
X134508265Y-109924694D01*
G37*
G36*
X130128947Y-113988510D02*
G01*
X130125668Y-113959090D01*
X130137717Y-113931043D01*
X130158696Y-113910254D01*
X130159575Y-113909522D01*
X130184475Y-113889713D01*
X130204158Y-113866930D01*
X130219509Y-113837803D01*
X130226397Y-113806000D01*
X130226693Y-113797707D01*
X130222682Y-113767390D01*
X130211171Y-113739160D01*
X130192945Y-113713619D01*
X130168789Y-113691370D01*
X130139488Y-113673016D01*
X130105827Y-113659160D01*
X130068591Y-113650404D01*
X130038789Y-113647547D01*
X130028563Y-113647351D01*
X129998552Y-113649082D01*
X129960733Y-113656469D01*
X129926171Y-113669107D01*
X129895684Y-113686393D01*
X129870091Y-113707724D01*
X129850207Y-113732499D01*
X129836851Y-113760114D01*
X129830839Y-113789965D01*
X129830580Y-113797707D01*
X129834933Y-113828882D01*
X129847398Y-113857903D01*
X129867081Y-113884090D01*
X129889020Y-113903763D01*
X129910448Y-113917875D01*
X129934009Y-113938714D01*
X129945118Y-113968199D01*
X129941076Y-113991880D01*
X129922538Y-114015942D01*
X129895311Y-114027334D01*
X129867949Y-114022069D01*
X129867070Y-114021189D01*
X129836172Y-114002228D01*
X129808323Y-113980150D01*
X129783855Y-113955231D01*
X129763096Y-113927748D01*
X129746376Y-113897978D01*
X129734025Y-113866197D01*
X129726372Y-113832681D01*
X129723748Y-113797707D01*
X129727263Y-113757217D01*
X129737462Y-113718715D01*
X129753825Y-113682638D01*
X129775835Y-113649420D01*
X129802972Y-113619497D01*
X129834718Y-113593305D01*
X129870555Y-113571278D01*
X129909962Y-113553853D01*
X129937962Y-113545007D01*
X129967164Y-113538529D01*
X129997416Y-113534548D01*
X130028563Y-113533192D01*
X130059880Y-113534558D01*
X130090257Y-113538565D01*
X130119546Y-113545083D01*
X130147597Y-113553976D01*
X130187028Y-113571483D01*
X130222834Y-113593589D01*
X130254514Y-113619846D01*
X130281562Y-113649806D01*
X130303477Y-113683021D01*
X130319753Y-113719042D01*
X130329888Y-113757420D01*
X130333378Y-113797707D01*
X130330947Y-113831212D01*
X130323848Y-113863513D01*
X130312374Y-113894341D01*
X130296815Y-113923425D01*
X130277465Y-113950497D01*
X130254615Y-113975286D01*
X130228556Y-113997524D01*
X130199582Y-114016940D01*
X130169775Y-114022602D01*
X130141900Y-114007831D01*
X130128947Y-113988510D01*
G37*
G36*
X130139757Y-114075150D02*
G01*
X130167104Y-114092814D01*
X130185960Y-114118995D01*
X130192988Y-114151029D01*
X130192988Y-114311350D01*
X130213716Y-114332426D01*
X130214823Y-114332452D01*
X130261864Y-114332452D01*
X130290942Y-114339697D01*
X130314189Y-114361427D01*
X130323040Y-114389704D01*
X130323120Y-114392829D01*
X130315672Y-114422006D01*
X130293507Y-114445295D01*
X130264992Y-114454151D01*
X130261864Y-114454232D01*
X130213944Y-114454232D01*
X130193014Y-114474973D01*
X130192988Y-114476067D01*
X130192988Y-114486179D01*
X130184294Y-114514919D01*
X130159432Y-114534257D01*
X130141697Y-114537323D01*
X130112632Y-114528676D01*
X130093659Y-114506226D01*
X130089526Y-114486179D01*
X130089526Y-114475188D01*
X130068798Y-114454259D01*
X130067691Y-114454232D01*
X129806254Y-114454232D01*
X129775504Y-114446987D01*
X129753569Y-114427428D01*
X129741679Y-114398824D01*
X129739868Y-114380226D01*
X129745806Y-114348740D01*
X129763474Y-114323705D01*
X129774800Y-114313108D01*
X129910448Y-114313108D01*
X129910873Y-114343096D01*
X129921292Y-114345788D01*
X130066079Y-114345788D01*
X130089072Y-114327219D01*
X130089526Y-114322341D01*
X130089526Y-114210673D01*
X130065200Y-114198070D01*
X129910448Y-114313108D01*
X129774800Y-114313108D01*
X129788528Y-114300263D01*
X129813874Y-114279549D01*
X129837420Y-114260865D01*
X129866737Y-114237772D01*
X129894255Y-114216190D01*
X129920603Y-114195500D01*
X129946409Y-114175083D01*
X129972301Y-114154316D01*
X129998909Y-114132582D01*
X130026861Y-114109260D01*
X130034132Y-114103108D01*
X130057350Y-114085107D01*
X130084194Y-114072011D01*
X130107258Y-114068670D01*
X130139757Y-114075150D01*
G37*
G36*
X127276607Y-113984405D02*
G01*
X127273328Y-113954985D01*
X127285377Y-113926938D01*
X127306356Y-113906149D01*
X127307235Y-113905417D01*
X127332135Y-113885608D01*
X127351818Y-113862825D01*
X127367169Y-113833698D01*
X127374057Y-113801895D01*
X127374353Y-113793602D01*
X127370342Y-113763285D01*
X127358831Y-113735055D01*
X127340605Y-113709514D01*
X127316449Y-113687265D01*
X127287148Y-113668911D01*
X127253487Y-113655055D01*
X127216251Y-113646299D01*
X127186449Y-113643442D01*
X127176223Y-113643246D01*
X127146212Y-113644977D01*
X127108393Y-113652364D01*
X127073831Y-113665002D01*
X127043344Y-113682288D01*
X127017751Y-113703619D01*
X126997867Y-113728394D01*
X126984511Y-113756009D01*
X126978499Y-113785860D01*
X126978240Y-113793602D01*
X126982593Y-113824777D01*
X126995058Y-113853798D01*
X127014741Y-113879985D01*
X127036680Y-113899658D01*
X127058108Y-113913770D01*
X127081669Y-113934609D01*
X127092778Y-113964094D01*
X127088736Y-113987775D01*
X127070198Y-114011837D01*
X127042971Y-114023229D01*
X127015609Y-114017964D01*
X127014730Y-114017084D01*
X126983832Y-113998123D01*
X126955983Y-113976045D01*
X126931515Y-113951126D01*
X126910756Y-113923643D01*
X126894036Y-113893873D01*
X126881685Y-113862092D01*
X126874032Y-113828576D01*
X126871408Y-113793602D01*
X126874923Y-113753112D01*
X126885122Y-113714610D01*
X126901485Y-113678533D01*
X126923495Y-113645315D01*
X126950632Y-113615392D01*
X126982378Y-113589200D01*
X127018215Y-113567173D01*
X127057622Y-113549748D01*
X127085622Y-113540902D01*
X127114824Y-113534424D01*
X127145076Y-113530443D01*
X127176223Y-113529087D01*
X127207540Y-113530453D01*
X127237917Y-113534460D01*
X127267206Y-113540978D01*
X127295257Y-113549871D01*
X127334688Y-113567378D01*
X127370494Y-113589484D01*
X127402174Y-113615741D01*
X127429222Y-113645701D01*
X127451137Y-113678916D01*
X127467413Y-113714937D01*
X127477548Y-113753315D01*
X127481038Y-113793602D01*
X127478607Y-113827107D01*
X127471508Y-113859408D01*
X127460034Y-113890236D01*
X127444475Y-113919320D01*
X127425125Y-113946392D01*
X127402275Y-113971181D01*
X127376216Y-113993419D01*
X127347242Y-114012835D01*
X127317435Y-114018497D01*
X127289560Y-114003726D01*
X127276607Y-113984405D01*
G37*
G36*
X127419782Y-114277056D02*
G01*
X127448860Y-114284305D01*
X127472107Y-114306072D01*
X127480958Y-114334441D01*
X127481038Y-114337580D01*
X127473590Y-114366658D01*
X127451425Y-114389904D01*
X127422911Y-114398755D01*
X127419782Y-114398836D01*
X126932518Y-114398836D01*
X126902717Y-114391747D01*
X126882790Y-114369460D01*
X126878003Y-114344321D01*
X126884604Y-114313430D01*
X126904893Y-114291660D01*
X126930906Y-114275444D01*
X126952753Y-114254507D01*
X126968515Y-114229504D01*
X126978826Y-114204809D01*
X126995443Y-114179551D01*
X127022008Y-114164061D01*
X127031729Y-114162751D01*
X127059646Y-114174292D01*
X127075400Y-114200560D01*
X127077943Y-114230693D01*
X127077891Y-114257712D01*
X127101430Y-114276929D01*
X127110717Y-114277056D01*
X127419782Y-114277056D01*
G37*
G36*
X127419782Y-114780588D02*
G01*
X127448860Y-114787836D01*
X127472107Y-114809603D01*
X127480958Y-114837972D01*
X127481038Y-114841111D01*
X127473590Y-114870189D01*
X127451425Y-114893436D01*
X127422911Y-114902287D01*
X127419782Y-114902367D01*
X126932518Y-114902367D01*
X126902717Y-114895278D01*
X126882790Y-114872991D01*
X126878003Y-114847852D01*
X126884604Y-114816961D01*
X126904893Y-114795191D01*
X126930906Y-114778976D01*
X126952753Y-114758038D01*
X126968515Y-114733035D01*
X126978826Y-114708341D01*
X126995443Y-114683082D01*
X127022008Y-114667592D01*
X127031729Y-114666282D01*
X127059646Y-114677823D01*
X127075400Y-114704091D01*
X127077943Y-114734224D01*
X127077891Y-114761244D01*
X127101430Y-114780460D01*
X127110717Y-114780588D01*
X127419782Y-114780588D01*
G37*
G36*
X135966973Y-101534319D02*
G01*
X135985457Y-101511197D01*
X136013809Y-101499885D01*
X136043344Y-101500020D01*
X136044484Y-101500124D01*
X136076097Y-101503724D01*
X136106125Y-101501532D01*
X136137576Y-101491790D01*
X136164934Y-101474173D01*
X136171008Y-101468518D01*
X136189609Y-101444245D01*
X136201431Y-101416143D01*
X136206604Y-101385195D01*
X136205255Y-101352382D01*
X136197515Y-101318685D01*
X136183511Y-101285085D01*
X136163372Y-101252564D01*
X136144319Y-101229471D01*
X136137227Y-101222102D01*
X136114782Y-101202105D01*
X136082816Y-101180586D01*
X136049441Y-101165083D01*
X136015660Y-101155749D01*
X135982479Y-101152735D01*
X135950901Y-101156193D01*
X135921930Y-101166275D01*
X135896571Y-101183133D01*
X135890914Y-101188424D01*
X135871948Y-101213546D01*
X135860240Y-101242881D01*
X135855641Y-101275316D01*
X135857244Y-101304740D01*
X135862417Y-101329870D01*
X135864342Y-101361266D01*
X135851348Y-101389971D01*
X135831745Y-101403857D01*
X135801622Y-101407763D01*
X135774315Y-101396567D01*
X135758690Y-101373496D01*
X135758690Y-101372252D01*
X135750249Y-101336996D01*
X135746169Y-101301693D01*
X135746488Y-101266771D01*
X135751242Y-101232658D01*
X135760470Y-101199785D01*
X135774209Y-101168579D01*
X135792497Y-101139468D01*
X135815372Y-101112883D01*
X135846488Y-101086737D01*
X135880925Y-101066724D01*
X135918006Y-101052784D01*
X135957058Y-101044859D01*
X135997406Y-101042889D01*
X136038374Y-101046816D01*
X136079289Y-101056581D01*
X136119476Y-101072125D01*
X136145530Y-101085669D01*
X136170759Y-101101737D01*
X136194966Y-101120313D01*
X136217949Y-101141379D01*
X136239128Y-101164489D01*
X136257774Y-101188803D01*
X136273876Y-101214121D01*
X136287422Y-101240246D01*
X136302925Y-101280506D01*
X136312613Y-101321456D01*
X136316447Y-101362424D01*
X136314388Y-101402735D01*
X136306397Y-101441717D01*
X136292436Y-101478697D01*
X136272465Y-101513001D01*
X136246446Y-101543956D01*
X136221035Y-101565929D01*
X136193175Y-101583749D01*
X136163263Y-101597434D01*
X136131696Y-101606998D01*
X136098870Y-101612458D01*
X136065184Y-101613829D01*
X136031034Y-101611128D01*
X135996817Y-101604369D01*
X135971736Y-101587296D01*
X135962470Y-101557141D01*
X135966973Y-101534319D01*
G37*
G36*
X135861277Y-101842496D02*
G01*
X135876713Y-101868182D01*
X135877759Y-101900012D01*
X135863958Y-101926330D01*
X135861795Y-101928607D01*
X135835968Y-101943901D01*
X135803856Y-101944666D01*
X135777435Y-101930762D01*
X135775166Y-101928607D01*
X135430618Y-101584059D01*
X135414559Y-101557973D01*
X135416227Y-101528124D01*
X135430618Y-101506963D01*
X135457129Y-101489787D01*
X135486869Y-101488741D01*
X135516729Y-101495668D01*
X135546982Y-101496311D01*
X135575808Y-101489776D01*
X135600561Y-101479606D01*
X135630171Y-101473496D01*
X135659908Y-101481327D01*
X135667709Y-101487274D01*
X135679288Y-101515175D01*
X135671854Y-101544889D01*
X135652344Y-101567994D01*
X135633202Y-101587064D01*
X135636258Y-101617296D01*
X135642735Y-101623954D01*
X135861277Y-101842496D01*
G37*
G36*
X135275377Y-101764918D02*
G01*
X135314478Y-101770712D01*
X135353826Y-101782044D01*
X135392776Y-101798825D01*
X135430682Y-101820966D01*
X135455055Y-101838661D01*
X135478485Y-101858674D01*
X135489787Y-101869541D01*
X135511068Y-101892548D01*
X135530014Y-101916562D01*
X135546602Y-101941395D01*
X135567013Y-101979768D01*
X135581990Y-102018925D01*
X135591455Y-102058231D01*
X135595331Y-102097053D01*
X135593540Y-102134755D01*
X135586006Y-102170702D01*
X135572651Y-102204259D01*
X135553398Y-102234793D01*
X135537247Y-102253155D01*
X135509238Y-102276228D01*
X135477748Y-102293384D01*
X135443416Y-102304698D01*
X135406880Y-102310243D01*
X135368779Y-102310092D01*
X135329751Y-102304318D01*
X135290437Y-102292994D01*
X135251474Y-102276194D01*
X135213502Y-102253991D01*
X135189053Y-102236223D01*
X135165517Y-102216108D01*
X135154151Y-102205178D01*
X135132990Y-102182289D01*
X135114135Y-102158362D01*
X135097610Y-102133588D01*
X135077247Y-102095261D01*
X135062267Y-102056113D01*
X135052754Y-102016792D01*
X135048792Y-101977949D01*
X135049796Y-101955333D01*
X135151761Y-101955333D01*
X135153387Y-101990164D01*
X135162648Y-102018936D01*
X135178067Y-102048181D01*
X135198794Y-102077592D01*
X135223981Y-102106861D01*
X135237982Y-102121346D01*
X135259925Y-102142185D01*
X135289391Y-102166470D01*
X135318837Y-102185997D01*
X135347976Y-102199941D01*
X135376527Y-102207475D01*
X135410952Y-102206622D01*
X135443458Y-102192851D01*
X135461809Y-102177717D01*
X135481013Y-102152841D01*
X135492257Y-102119721D01*
X135490840Y-102084857D01*
X135481685Y-102056075D01*
X135466301Y-102026799D01*
X135445522Y-101997307D01*
X135420181Y-101967875D01*
X135406059Y-101953269D01*
X135384286Y-101932600D01*
X135354947Y-101908455D01*
X135325530Y-101888994D01*
X135296336Y-101875073D01*
X135267664Y-101867550D01*
X135233016Y-101868445D01*
X135200239Y-101882345D01*
X135181715Y-101897623D01*
X135162741Y-101922320D01*
X135151761Y-101955333D01*
X135049796Y-101955333D01*
X135050466Y-101940233D01*
X135057859Y-101904294D01*
X135071055Y-101870781D01*
X135090138Y-101840344D01*
X135106173Y-101822082D01*
X135134355Y-101798870D01*
X135166012Y-101781636D01*
X135200499Y-101770291D01*
X135237169Y-101764748D01*
X135275377Y-101764918D01*
G37*
D13*
G36*
X120916858Y-113021674D02*
G01*
X120939711Y-113043699D01*
X120948330Y-113072566D01*
X120948408Y-113075772D01*
X120948408Y-113565528D01*
X120941160Y-113594606D01*
X120919393Y-113617852D01*
X120891024Y-113626703D01*
X120887885Y-113626784D01*
X120858807Y-113619336D01*
X120835560Y-113597171D01*
X120826709Y-113568656D01*
X120826629Y-113565528D01*
X120826629Y-113399931D01*
X120811535Y-113379854D01*
X120737529Y-113378975D01*
X120707761Y-113381901D01*
X120679155Y-113392616D01*
X120655695Y-113412954D01*
X120640408Y-113442249D01*
X120634660Y-113471860D01*
X120634214Y-113483169D01*
X120634214Y-113565528D01*
X120626966Y-113594606D01*
X120605199Y-113617852D01*
X120576830Y-113626703D01*
X120573691Y-113626784D01*
X120544613Y-113619336D01*
X120521366Y-113597171D01*
X120512515Y-113568656D01*
X120512435Y-113565528D01*
X120512435Y-113483169D01*
X120514514Y-113450242D01*
X120520905Y-113418457D01*
X120531840Y-113389142D01*
X120547551Y-113363622D01*
X120572226Y-113340418D01*
X120576329Y-113337796D01*
X120577062Y-113317719D01*
X120552868Y-113300947D01*
X120529605Y-113277086D01*
X120512483Y-113248206D01*
X120503330Y-113219143D01*
X120501894Y-113205465D01*
X120609888Y-113205465D01*
X120615930Y-113235411D01*
X120632647Y-113260360D01*
X120657920Y-113278767D01*
X120689633Y-113289085D01*
X120709832Y-113290755D01*
X120805673Y-113290755D01*
X120827508Y-113272876D01*
X120826629Y-113139812D01*
X120805673Y-113121201D01*
X120709832Y-113121201D01*
X120680039Y-113124821D01*
X120649949Y-113137363D01*
X120626905Y-113157487D01*
X120613022Y-113183749D01*
X120609888Y-113205465D01*
X120501894Y-113205465D01*
X120499832Y-113185828D01*
X120503217Y-113147830D01*
X120514139Y-113114030D01*
X120531764Y-113084694D01*
X120555263Y-113060092D01*
X120583804Y-113040490D01*
X120616556Y-113026157D01*
X120652687Y-113017361D01*
X120691367Y-113014369D01*
X120887885Y-113014369D01*
X120916858Y-113021674D01*
G37*
G36*
X119996887Y-113577105D02*
G01*
X120006065Y-113548145D01*
X120029788Y-113530838D01*
X120059169Y-113525667D01*
X120100376Y-113525903D01*
X120135871Y-113526471D01*
X120166016Y-113527163D01*
X120198514Y-113527917D01*
X120227976Y-113527893D01*
X120257013Y-113519529D01*
X120258178Y-113514237D01*
X120241905Y-113488796D01*
X120220607Y-113467562D01*
X120194874Y-113445648D01*
X120168152Y-113426161D01*
X120151493Y-113416051D01*
X120124286Y-113399289D01*
X120099556Y-113379939D01*
X120077567Y-113358243D01*
X120058583Y-113334443D01*
X120042869Y-113308782D01*
X120030689Y-113281502D01*
X120022308Y-113252844D01*
X120017990Y-113223050D01*
X120019060Y-113191778D01*
X120026524Y-113158483D01*
X120040166Y-113125085D01*
X120059774Y-113093504D01*
X120085130Y-113065660D01*
X120116022Y-113043472D01*
X120152234Y-113028862D01*
X120182755Y-113024031D01*
X120193551Y-113023748D01*
X120230913Y-113025812D01*
X120263372Y-113031201D01*
X120299672Y-113042976D01*
X120328813Y-113059263D01*
X120351684Y-113079260D01*
X120372810Y-113108257D01*
X120387267Y-113140239D01*
X120395198Y-113166923D01*
X120395526Y-113196619D01*
X120380812Y-113223384D01*
X120351381Y-113234481D01*
X120323019Y-113226529D01*
X120306034Y-113201554D01*
X120294466Y-113169113D01*
X120278895Y-113143535D01*
X120249317Y-113125406D01*
X120210141Y-113120125D01*
X120197655Y-113120468D01*
X120167925Y-113131201D01*
X120144605Y-113151866D01*
X120129928Y-113177543D01*
X120124497Y-113210083D01*
X120128046Y-113235360D01*
X120142795Y-113268842D01*
X120161259Y-113293982D01*
X120183697Y-113317524D01*
X120208310Y-113339346D01*
X120233296Y-113359323D01*
X120256857Y-113377333D01*
X120281562Y-113396888D01*
X120289246Y-113403741D01*
X120312656Y-113425786D01*
X120337245Y-113450010D01*
X120360904Y-113476404D01*
X120381530Y-113504957D01*
X120397013Y-113535659D01*
X120405249Y-113568501D01*
X120406043Y-113582234D01*
X120396425Y-113610723D01*
X120371903Y-113628099D01*
X120342149Y-113633378D01*
X120059169Y-113633378D01*
X120029788Y-113627116D01*
X120006065Y-113607451D01*
X119996887Y-113577105D01*
G37*
D12*
G36*
X129178947Y-113988510D02*
G01*
X129175668Y-113959090D01*
X129187717Y-113931043D01*
X129208696Y-113910254D01*
X129209575Y-113909522D01*
X129234475Y-113889713D01*
X129254158Y-113866930D01*
X129269509Y-113837803D01*
X129276397Y-113806000D01*
X129276693Y-113797707D01*
X129272682Y-113767390D01*
X129261171Y-113739160D01*
X129242945Y-113713619D01*
X129218789Y-113691370D01*
X129189488Y-113673016D01*
X129155827Y-113659160D01*
X129118591Y-113650404D01*
X129088789Y-113647547D01*
X129078563Y-113647351D01*
X129048552Y-113649082D01*
X129010733Y-113656469D01*
X128976171Y-113669107D01*
X128945684Y-113686393D01*
X128920091Y-113707724D01*
X128900207Y-113732499D01*
X128886851Y-113760114D01*
X128880839Y-113789965D01*
X128880580Y-113797707D01*
X128884933Y-113828882D01*
X128897398Y-113857903D01*
X128917081Y-113884090D01*
X128939020Y-113903763D01*
X128960448Y-113917875D01*
X128984009Y-113938714D01*
X128995118Y-113968199D01*
X128991076Y-113991880D01*
X128972538Y-114015942D01*
X128945311Y-114027334D01*
X128917949Y-114022069D01*
X128917070Y-114021189D01*
X128886172Y-114002228D01*
X128858323Y-113980150D01*
X128833855Y-113955231D01*
X128813096Y-113927748D01*
X128796376Y-113897978D01*
X128784025Y-113866197D01*
X128776372Y-113832681D01*
X128773748Y-113797707D01*
X128777263Y-113757217D01*
X128787462Y-113718715D01*
X128803825Y-113682638D01*
X128825835Y-113649420D01*
X128852972Y-113619497D01*
X128884718Y-113593305D01*
X128920555Y-113571278D01*
X128959962Y-113553853D01*
X128987962Y-113545007D01*
X129017164Y-113538529D01*
X129047416Y-113534548D01*
X129078563Y-113533192D01*
X129109880Y-113534558D01*
X129140257Y-113538565D01*
X129169546Y-113545083D01*
X129197597Y-113553976D01*
X129237028Y-113571483D01*
X129272834Y-113593589D01*
X129304514Y-113619846D01*
X129331562Y-113649806D01*
X129353477Y-113683021D01*
X129369753Y-113719042D01*
X129379888Y-113757420D01*
X129383378Y-113797707D01*
X129380947Y-113831212D01*
X129373848Y-113863513D01*
X129362374Y-113894341D01*
X129346815Y-113923425D01*
X129327465Y-113950497D01*
X129304615Y-113975286D01*
X129278556Y-113997524D01*
X129249582Y-114016940D01*
X129219775Y-114022602D01*
X129191900Y-114007831D01*
X129178947Y-113988510D01*
G37*
G36*
X128955612Y-114127435D02*
G01*
X128960626Y-114157491D01*
X128947487Y-114186191D01*
X128928794Y-114202173D01*
X128904283Y-114218860D01*
X128883812Y-114240979D01*
X128871970Y-114268883D01*
X128869589Y-114291273D01*
X128872363Y-114322321D01*
X128883728Y-114352183D01*
X128907611Y-114372654D01*
X128932164Y-114377002D01*
X128960699Y-114370248D01*
X128986803Y-114350875D01*
X129003489Y-114326505D01*
X129012178Y-114302118D01*
X129025604Y-114275036D01*
X129052992Y-114261088D01*
X129056435Y-114260938D01*
X129083625Y-114272723D01*
X129097814Y-114300272D01*
X129098200Y-114302118D01*
X129109535Y-114331427D01*
X129126813Y-114356098D01*
X129151034Y-114376713D01*
X129181678Y-114387544D01*
X129211743Y-114384964D01*
X129218221Y-114382864D01*
X129243853Y-114367301D01*
X129263257Y-114340796D01*
X129272933Y-114312940D01*
X129277058Y-114283498D01*
X129277426Y-114271050D01*
X129270549Y-114241054D01*
X129255123Y-114213560D01*
X129234023Y-114189764D01*
X129213239Y-114175355D01*
X129188432Y-114159289D01*
X129174269Y-114133212D01*
X129174844Y-114110582D01*
X129193413Y-114086166D01*
X129224715Y-114079093D01*
X129252367Y-114084644D01*
X129278769Y-114098086D01*
X129302428Y-114116952D01*
X129323116Y-114140208D01*
X129340605Y-114166819D01*
X129354667Y-114195752D01*
X129365072Y-114225973D01*
X129371592Y-114256448D01*
X129374000Y-114286144D01*
X129371197Y-114320535D01*
X129362347Y-114355767D01*
X129347778Y-114390168D01*
X129327819Y-114422065D01*
X129302797Y-114449786D01*
X129273041Y-114471657D01*
X129238878Y-114486007D01*
X129200636Y-114491161D01*
X129165632Y-114488512D01*
X129129933Y-114478014D01*
X129104672Y-114461842D01*
X129084279Y-114437452D01*
X129070294Y-114408501D01*
X129054634Y-114383278D01*
X129052332Y-114382864D01*
X129035945Y-114408110D01*
X129021064Y-114433937D01*
X128999750Y-114454992D01*
X128966558Y-114471013D01*
X128929074Y-114477302D01*
X128917949Y-114477679D01*
X128888343Y-114474377D01*
X128854908Y-114460743D01*
X128831527Y-114443049D01*
X128811590Y-114420050D01*
X128795515Y-114392416D01*
X128783719Y-114360821D01*
X128776619Y-114325935D01*
X128774628Y-114298014D01*
X128775970Y-114268713D01*
X128782445Y-114233525D01*
X128793606Y-114200873D01*
X128808767Y-114171758D01*
X128827240Y-114147184D01*
X128852811Y-114125102D01*
X128861969Y-114119815D01*
X128891333Y-114107617D01*
X128920823Y-114103285D01*
X128947885Y-114115573D01*
X128955612Y-114127435D01*
G37*
G36*
X131440680Y-100441973D02*
G01*
X131463802Y-100460457D01*
X131475114Y-100488809D01*
X131474979Y-100518344D01*
X131474875Y-100519484D01*
X131471275Y-100551097D01*
X131473467Y-100581125D01*
X131483209Y-100612576D01*
X131500826Y-100639934D01*
X131506481Y-100646008D01*
X131530754Y-100664609D01*
X131558856Y-100676431D01*
X131589804Y-100681604D01*
X131622617Y-100680255D01*
X131656314Y-100672515D01*
X131689914Y-100658511D01*
X131722435Y-100638372D01*
X131745528Y-100619319D01*
X131752897Y-100612227D01*
X131772894Y-100589782D01*
X131794413Y-100557816D01*
X131809916Y-100524441D01*
X131819250Y-100490660D01*
X131822264Y-100457479D01*
X131818806Y-100425901D01*
X131808724Y-100396930D01*
X131791866Y-100371571D01*
X131786575Y-100365914D01*
X131761453Y-100346948D01*
X131732118Y-100335240D01*
X131699683Y-100330641D01*
X131670259Y-100332244D01*
X131645129Y-100337417D01*
X131613733Y-100339342D01*
X131585028Y-100326348D01*
X131571142Y-100306745D01*
X131567236Y-100276622D01*
X131578432Y-100249315D01*
X131601503Y-100233690D01*
X131602747Y-100233690D01*
X131638003Y-100225249D01*
X131673306Y-100221169D01*
X131708228Y-100221488D01*
X131742341Y-100226242D01*
X131775214Y-100235470D01*
X131806420Y-100249209D01*
X131835531Y-100267497D01*
X131862116Y-100290372D01*
X131888262Y-100321488D01*
X131908275Y-100355925D01*
X131922215Y-100393006D01*
X131930140Y-100432058D01*
X131932110Y-100472406D01*
X131928183Y-100513374D01*
X131918418Y-100554289D01*
X131902874Y-100594476D01*
X131889330Y-100620530D01*
X131873262Y-100645759D01*
X131854686Y-100669966D01*
X131833620Y-100692949D01*
X131810510Y-100714128D01*
X131786196Y-100732774D01*
X131760878Y-100748876D01*
X131734753Y-100762422D01*
X131694493Y-100777925D01*
X131653543Y-100787613D01*
X131612575Y-100791447D01*
X131572264Y-100789388D01*
X131533282Y-100781397D01*
X131496302Y-100767436D01*
X131461998Y-100747465D01*
X131431043Y-100721446D01*
X131409070Y-100696035D01*
X131391250Y-100668175D01*
X131377565Y-100638263D01*
X131368001Y-100606696D01*
X131362541Y-100573870D01*
X131361170Y-100540184D01*
X131363871Y-100506034D01*
X131370630Y-100471817D01*
X131387703Y-100446736D01*
X131417858Y-100437470D01*
X131440680Y-100441973D01*
G37*
G36*
X131132503Y-100336277D02*
G01*
X131106817Y-100351713D01*
X131074987Y-100352759D01*
X131048669Y-100338958D01*
X131046392Y-100336795D01*
X131031098Y-100310968D01*
X131030333Y-100278856D01*
X131044237Y-100252435D01*
X131046392Y-100250166D01*
X131390940Y-99905618D01*
X131417026Y-99889559D01*
X131446875Y-99891227D01*
X131468036Y-99905618D01*
X131485212Y-99932129D01*
X131486258Y-99961869D01*
X131479331Y-99991729D01*
X131478688Y-100021982D01*
X131485223Y-100050808D01*
X131495393Y-100075561D01*
X131501503Y-100105171D01*
X131493672Y-100134908D01*
X131487725Y-100142709D01*
X131459824Y-100154288D01*
X131430110Y-100146854D01*
X131407005Y-100127344D01*
X131387935Y-100108202D01*
X131357703Y-100111258D01*
X131351045Y-100117735D01*
X131132503Y-100336277D01*
G37*
G36*
X131091987Y-99703863D02*
G01*
X131069440Y-99681712D01*
X131047502Y-99660516D01*
X131025768Y-99639209D01*
X131003835Y-99616723D01*
X130991057Y-99602934D01*
X130974028Y-99577150D01*
X130975257Y-99547243D01*
X130986913Y-99531019D01*
X131014437Y-99515118D01*
X131044073Y-99518090D01*
X131062972Y-99531019D01*
X131086517Y-99553953D01*
X131109492Y-99576998D01*
X131132101Y-99600007D01*
X131154547Y-99622833D01*
X131177036Y-99645329D01*
X131199770Y-99667348D01*
X131208978Y-99675989D01*
X131224004Y-99702377D01*
X131219516Y-99731630D01*
X131217371Y-99735365D01*
X131198640Y-99764164D01*
X131181497Y-99789772D01*
X131161984Y-99818186D01*
X131142428Y-99846272D01*
X131125181Y-99871105D01*
X131106287Y-99898675D01*
X131087097Y-99923136D01*
X131060806Y-99939786D01*
X131041626Y-99940746D01*
X131013154Y-99929779D01*
X130990472Y-99907788D01*
X130982871Y-99887795D01*
X130975296Y-99858944D01*
X130960131Y-99830806D01*
X130939491Y-99805528D01*
X130931059Y-99797021D01*
X130907244Y-99779574D01*
X130877183Y-99769568D01*
X130846413Y-99770604D01*
X130816762Y-99782569D01*
X130797282Y-99797746D01*
X130779305Y-99821747D01*
X130769407Y-99849865D01*
X130768058Y-99880094D01*
X130775730Y-99910432D01*
X130792893Y-99938873D01*
X130800805Y-99947586D01*
X130826613Y-99968259D01*
X130854452Y-99980822D01*
X130884909Y-99983025D01*
X130912200Y-99972766D01*
X130941178Y-99961923D01*
X130972666Y-99965875D01*
X130992094Y-99980745D01*
X131002424Y-100010213D01*
X130996132Y-100039041D01*
X130976668Y-100064402D01*
X130974063Y-100066545D01*
X130947799Y-100083118D01*
X130919480Y-100093335D01*
X130889509Y-100097165D01*
X130858290Y-100094576D01*
X130826226Y-100085536D01*
X130793720Y-100070014D01*
X130761174Y-100047978D01*
X130736983Y-100027157D01*
X130728994Y-100019397D01*
X130707963Y-99996173D01*
X130684006Y-99961371D01*
X130668261Y-99926990D01*
X130659721Y-99893463D01*
X130657379Y-99861218D01*
X130660227Y-99830686D01*
X130670358Y-99793385D01*
X130685540Y-99760915D01*
X130703383Y-99734296D01*
X130717077Y-99718785D01*
X130743630Y-99697043D01*
X130774667Y-99680054D01*
X130808952Y-99668484D01*
X130845246Y-99662997D01*
X130882313Y-99664256D01*
X130918914Y-99672927D01*
X130953814Y-99689673D01*
X130978126Y-99707931D01*
X130985773Y-99715158D01*
X131005450Y-99738211D01*
X131022425Y-99762653D01*
X131037999Y-99785208D01*
X131063490Y-99785829D01*
X131078153Y-99759198D01*
X131093490Y-99732209D01*
X131096857Y-99726350D01*
X131091987Y-99703863D01*
G37*
D13*
G36*
X113525903Y-43954320D02*
G01*
X113563777Y-43963988D01*
X113594211Y-43992763D01*
X113606600Y-44033845D01*
X113608945Y-44508849D01*
X113615941Y-44550154D01*
X113638684Y-44589081D01*
X113674290Y-44617039D01*
X113712786Y-44631481D01*
X113756663Y-44636441D01*
X113800715Y-44631381D01*
X113839442Y-44616730D01*
X113870859Y-44593284D01*
X113895622Y-44555878D01*
X113904385Y-44516108D01*
X113904577Y-44508849D01*
X113904577Y-44033845D01*
X113914997Y-43996093D01*
X113944058Y-43965914D01*
X113985275Y-43954320D01*
X114026037Y-43966189D01*
X114054231Y-43996907D01*
X114063628Y-44035018D01*
X114063628Y-44530147D01*
X114057424Y-44580856D01*
X114039609Y-44628109D01*
X114011376Y-44670889D01*
X113984082Y-44699424D01*
X113952101Y-44724440D01*
X113915938Y-44745506D01*
X113876095Y-44762193D01*
X113833076Y-44774070D01*
X113787384Y-44780708D01*
X113755686Y-44782010D01*
X113708713Y-44779076D01*
X113663980Y-44770571D01*
X113622007Y-44756944D01*
X113583314Y-44738640D01*
X113548421Y-44716109D01*
X113517847Y-44689796D01*
X113492112Y-44660149D01*
X113466224Y-44616206D01*
X113451095Y-44568192D01*
X113447550Y-44530147D01*
X113447550Y-44035018D01*
X113456946Y-43996907D01*
X113485141Y-43966189D01*
X113525903Y-43954320D01*
G37*
G36*
X112960209Y-43986075D02*
G01*
X112993589Y-44009633D01*
X113024844Y-44043037D01*
X113052462Y-44076832D01*
X113077375Y-44108227D01*
X113108166Y-44147316D01*
X113136941Y-44184007D01*
X113164528Y-44219137D01*
X113191752Y-44253545D01*
X113219440Y-44288068D01*
X113248419Y-44323545D01*
X113279515Y-44360814D01*
X113287717Y-44370510D01*
X113311719Y-44401467D01*
X113329180Y-44437259D01*
X113333635Y-44468011D01*
X113324995Y-44511343D01*
X113301443Y-44547806D01*
X113266535Y-44572947D01*
X113223823Y-44582317D01*
X113010062Y-44582317D01*
X112981961Y-44609955D01*
X112981925Y-44611431D01*
X112981925Y-44674152D01*
X112972266Y-44712923D01*
X112943293Y-44743918D01*
X112905590Y-44755720D01*
X112901423Y-44755827D01*
X112862520Y-44745896D01*
X112831469Y-44716343D01*
X112819660Y-44678323D01*
X112819552Y-44674152D01*
X112819552Y-44610258D01*
X112791897Y-44582353D01*
X112790439Y-44582317D01*
X112776956Y-44582317D01*
X112738636Y-44570725D01*
X112712852Y-44537576D01*
X112708764Y-44513929D01*
X112720294Y-44475176D01*
X112750227Y-44449879D01*
X112776956Y-44444369D01*
X112791611Y-44444369D01*
X112819517Y-44416731D01*
X112819552Y-44415255D01*
X112819552Y-44413106D01*
X112964144Y-44413106D01*
X112988903Y-44443763D01*
X112995407Y-44444369D01*
X113144298Y-44444369D01*
X113161102Y-44411933D01*
X113007717Y-44205597D01*
X112967734Y-44206165D01*
X112964144Y-44220056D01*
X112964144Y-44413106D01*
X112819552Y-44413106D01*
X112819552Y-44066672D01*
X112829213Y-44025673D01*
X112855290Y-43996425D01*
X112893430Y-43980572D01*
X112918226Y-43978158D01*
X112960209Y-43986075D01*
G37*
D12*
G36*
X124238948Y-112962345D02*
G01*
X124257433Y-112939223D01*
X124285784Y-112927911D01*
X124315319Y-112928046D01*
X124316459Y-112928149D01*
X124348072Y-112931750D01*
X124378101Y-112929557D01*
X124409551Y-112919816D01*
X124436909Y-112902199D01*
X124442983Y-112896544D01*
X124461584Y-112872270D01*
X124473406Y-112844169D01*
X124478579Y-112813221D01*
X124477231Y-112780408D01*
X124469490Y-112746711D01*
X124455486Y-112713111D01*
X124435347Y-112680590D01*
X124416294Y-112657496D01*
X124409202Y-112650128D01*
X124386757Y-112630131D01*
X124354791Y-112608611D01*
X124321416Y-112593109D01*
X124287636Y-112583775D01*
X124254454Y-112580761D01*
X124222876Y-112584219D01*
X124193905Y-112594301D01*
X124168547Y-112611159D01*
X124162889Y-112616450D01*
X124143923Y-112641572D01*
X124132215Y-112670907D01*
X124127617Y-112703342D01*
X124129219Y-112732766D01*
X124134392Y-112757896D01*
X124136318Y-112789292D01*
X124123324Y-112817997D01*
X124103720Y-112831883D01*
X124073598Y-112835789D01*
X124046290Y-112824593D01*
X124030665Y-112801521D01*
X124030665Y-112800278D01*
X124022225Y-112765022D01*
X124018145Y-112729718D01*
X124018463Y-112694796D01*
X124023217Y-112660684D01*
X124032445Y-112627811D01*
X124046185Y-112596604D01*
X124064473Y-112567494D01*
X124087347Y-112540908D01*
X124118464Y-112514763D01*
X124152900Y-112494749D01*
X124189981Y-112480810D01*
X124229033Y-112472884D01*
X124269381Y-112470915D01*
X124310350Y-112474842D01*
X124351265Y-112484607D01*
X124391451Y-112500150D01*
X124417505Y-112513694D01*
X124442735Y-112529763D01*
X124466941Y-112548339D01*
X124489924Y-112569405D01*
X124511103Y-112592515D01*
X124529749Y-112616828D01*
X124545851Y-112642147D01*
X124559398Y-112668271D01*
X124574900Y-112708532D01*
X124584588Y-112749482D01*
X124588422Y-112790449D01*
X124586363Y-112830761D01*
X124578372Y-112869743D01*
X124564411Y-112906723D01*
X124544440Y-112941027D01*
X124518421Y-112971982D01*
X124493010Y-112993954D01*
X124465150Y-113011775D01*
X124435238Y-113025460D01*
X124403671Y-113035024D01*
X124370846Y-113040484D01*
X124337159Y-113041855D01*
X124303009Y-113039153D01*
X124268792Y-113032395D01*
X124243712Y-113015322D01*
X124234446Y-112985167D01*
X124238948Y-112962345D01*
G37*
G36*
X123978128Y-113432692D02*
G01*
X123964140Y-113405725D01*
X123968677Y-113376712D01*
X123985796Y-113352280D01*
X124015101Y-113323309D01*
X124040601Y-113298612D01*
X124062406Y-113277785D01*
X124085918Y-113255339D01*
X124106734Y-113234490D01*
X124121353Y-113208043D01*
X124118434Y-113203477D01*
X124088938Y-113196994D01*
X124058864Y-113197039D01*
X124025172Y-113199740D01*
X123992497Y-113204855D01*
X123973569Y-113209487D01*
X123942478Y-113216872D01*
X123911309Y-113220677D01*
X123880419Y-113220884D01*
X123850166Y-113217479D01*
X123820909Y-113210445D01*
X123793006Y-113199767D01*
X123766816Y-113185430D01*
X123742696Y-113167416D01*
X123721340Y-113144546D01*
X123703074Y-113115726D01*
X123689105Y-113082463D01*
X123680638Y-113046267D01*
X123678879Y-113008648D01*
X123685034Y-112971116D01*
X123700309Y-112935179D01*
X123718475Y-112910181D01*
X123725909Y-112902347D01*
X123753787Y-112877388D01*
X123780549Y-112858247D01*
X123814544Y-112840905D01*
X123846666Y-112831815D01*
X123876978Y-112829784D01*
X123912420Y-112835349D01*
X123945258Y-112847741D01*
X123969735Y-112861001D01*
X123990964Y-112881767D01*
X123999486Y-112911098D01*
X123986522Y-112939755D01*
X123960844Y-112954187D01*
X123931173Y-112948538D01*
X123900054Y-112933778D01*
X123870957Y-112926702D01*
X123837224Y-112934798D01*
X123805788Y-112958765D01*
X123797202Y-112967837D01*
X123783769Y-112996448D01*
X123781891Y-113027550D01*
X123789670Y-113056085D01*
X123808839Y-113082935D01*
X123829221Y-113098299D01*
X123863326Y-113111545D01*
X123894159Y-113116265D01*
X123926672Y-113117046D01*
X123959506Y-113115073D01*
X123991300Y-113111531D01*
X124020694Y-113107605D01*
X124051991Y-113103964D01*
X124062270Y-113103377D01*
X124094412Y-113102411D01*
X124128928Y-113102153D01*
X124164321Y-113104086D01*
X124199095Y-113109692D01*
X124231753Y-113120453D01*
X124260800Y-113137852D01*
X124271072Y-113147002D01*
X124284416Y-113173948D01*
X124279363Y-113203573D01*
X124262056Y-113228347D01*
X124061960Y-113428443D01*
X124036756Y-113444790D01*
X124006076Y-113447660D01*
X123978128Y-113432692D01*
G37*
D14*
%TO.C,REF\u002A\u002A*%
X269800000Y-83300000D02*
G75*
G02*
X266800000Y-83300000I-1500000J0D01*
G01*
X266800000Y-83300000D02*
G75*
G02*
X269800000Y-83300000I1500000J0D01*
G01*
X270250000Y-98500000D02*
G75*
G02*
X266350000Y-98500000I-1950000J0D01*
G01*
X266350000Y-98500000D02*
G75*
G02*
X270250000Y-98500000I1950000J0D01*
G01*
X293650000Y-83250000D02*
G75*
G02*
X290650000Y-83250000I-1500000J0D01*
G01*
X290650000Y-83250000D02*
G75*
G02*
X293650000Y-83250000I1500000J0D01*
G01*
X294150000Y-98500000D02*
G75*
G02*
X290250000Y-98500000I-1950000J0D01*
G01*
X290250000Y-98500000D02*
G75*
G02*
X294150000Y-98500000I1950000J0D01*
G01*
X108724998Y-101024200D02*
G75*
G02*
X104725000Y-101024200I-1999999J0D01*
G01*
X104725000Y-101024200D02*
G75*
G02*
X108724998Y-101024200I1999999J0D01*
G01*
X108225000Y-116234999D02*
G75*
G02*
X105225000Y-116234999I-1500000J0D01*
G01*
X105225000Y-116234999D02*
G75*
G02*
X108225000Y-116234999I1500000J0D01*
G01*
X223025000Y-101025000D02*
G75*
G02*
X219025000Y-101025000I-2000000J0D01*
G01*
X219025000Y-101025000D02*
G75*
G02*
X223025000Y-101025000I2000000J0D01*
G01*
X222525000Y-116234999D02*
G75*
G02*
X219525000Y-116234999I-1500000J0D01*
G01*
X219525000Y-116234999D02*
G75*
G02*
X222525000Y-116234999I1500000J0D01*
G01*
X288200000Y-49800000D02*
G75*
G02*
X284300000Y-49800000I-1950000J0D01*
G01*
X284300000Y-49800000D02*
G75*
G02*
X288200000Y-49800000I1950000J0D01*
G01*
X288200000Y-73700000D02*
G75*
G02*
X284300000Y-73700000I-1950000J0D01*
G01*
X284300000Y-73700000D02*
G75*
G02*
X288200000Y-73700000I1950000J0D01*
G01*
X302950000Y-49800000D02*
G75*
G02*
X299950000Y-49800000I-1500000J0D01*
G01*
X299950000Y-49800000D02*
G75*
G02*
X302950000Y-49800000I1500000J0D01*
G01*
X303000000Y-73650000D02*
G75*
G02*
X300000000Y-73650000I-1500000J0D01*
G01*
X300000000Y-73650000D02*
G75*
G02*
X303000000Y-73650000I1500000J0D01*
G01*
X108700000Y-101025000D02*
G75*
G02*
X104800000Y-101025000I-1950000J0D01*
G01*
X104800000Y-101025000D02*
G75*
G02*
X108700000Y-101025000I1950000J0D01*
G01*
X108250000Y-116234999D02*
G75*
G02*
X105250000Y-116234999I-1500000J0D01*
G01*
X105250000Y-116234999D02*
G75*
G02*
X108250000Y-116234999I1500000J0D01*
G01*
X203950000Y-101025000D02*
G75*
G02*
X200050000Y-101025000I-1950000J0D01*
G01*
X200050000Y-101025000D02*
G75*
G02*
X203950000Y-101025000I1950000J0D01*
G01*
X203500000Y-116234999D02*
G75*
G02*
X200500000Y-116234999I-1500000J0D01*
G01*
X200500000Y-116234999D02*
G75*
G02*
X203500000Y-116234999I1500000J0D01*
G01*
X276925000Y-26300000D02*
G75*
G02*
X273925000Y-26300000I-1500000J0D01*
G01*
X273925000Y-26300000D02*
G75*
G02*
X276925000Y-26300000I1500000J0D01*
G01*
X277375000Y-41500000D02*
G75*
G02*
X273475000Y-41500000I-1950000J0D01*
G01*
X273475000Y-41500000D02*
G75*
G02*
X277375000Y-41500000I1950000J0D01*
G01*
X300775000Y-26250000D02*
G75*
G02*
X297775000Y-26250000I-1500000J0D01*
G01*
X297775000Y-26250000D02*
G75*
G02*
X300775000Y-26250000I1500000J0D01*
G01*
X301275000Y-41500000D02*
G75*
G02*
X297375000Y-41500000I-1950000J0D01*
G01*
X297375000Y-41500000D02*
G75*
G02*
X301275000Y-41500000I1950000J0D01*
G01*
X32300000Y-83300000D02*
G75*
G02*
X29300000Y-83300000I-1500000J0D01*
G01*
X29300000Y-83300000D02*
G75*
G02*
X32300000Y-83300000I1500000J0D01*
G01*
X32750000Y-98500000D02*
G75*
G02*
X28850000Y-98500000I-1950000J0D01*
G01*
X28850000Y-98500000D02*
G75*
G02*
X32750000Y-98500000I1950000J0D01*
G01*
X56150000Y-83250000D02*
G75*
G02*
X53150000Y-83250000I-1500000J0D01*
G01*
X53150000Y-83250000D02*
G75*
G02*
X56150000Y-83250000I1500000J0D01*
G01*
X56650000Y-98500000D02*
G75*
G02*
X52750000Y-98500000I-1950000J0D01*
G01*
X52750000Y-98500000D02*
G75*
G02*
X56650000Y-98500000I1950000J0D01*
G01*
X274550000Y-64300000D02*
G75*
G02*
X271550000Y-64300000I-1500000J0D01*
G01*
X271550000Y-64300000D02*
G75*
G02*
X274550000Y-64300000I1500000J0D01*
G01*
X275000000Y-79500000D02*
G75*
G02*
X271100000Y-79500000I-1950000J0D01*
G01*
X271100000Y-79500000D02*
G75*
G02*
X275000000Y-79500000I1950000J0D01*
G01*
X298400000Y-64250000D02*
G75*
G02*
X295400000Y-64250000I-1500000J0D01*
G01*
X295400000Y-64250000D02*
G75*
G02*
X298400000Y-64250000I1500000J0D01*
G01*
X298900000Y-79500000D02*
G75*
G02*
X295000000Y-79500000I-1950000J0D01*
G01*
X295000000Y-79500000D02*
G75*
G02*
X298900000Y-79500000I1950000J0D01*
G01*
D13*
%TO.C,D20*%
X119006250Y-56268750D02*
X119556250Y-56268750D01*
X119156250Y-55668750D02*
X119956250Y-55668750D01*
X119556250Y-55168750D02*
X119556250Y-55668750D01*
X119556250Y-56268750D02*
X119156250Y-55668750D01*
X119556250Y-56268750D02*
X119556250Y-56668750D01*
X119956250Y-55668750D02*
X119556250Y-56268750D01*
X120106250Y-56268750D02*
X119556250Y-56268750D01*
%TO.C,D3*%
X71506250Y-37268750D02*
X72056250Y-37268750D01*
X71656250Y-36668750D02*
X72456250Y-36668750D01*
X72056250Y-36168750D02*
X72056250Y-36668750D01*
X72056250Y-37268750D02*
X71656250Y-36668750D01*
X72056250Y-37268750D02*
X72056250Y-37668750D01*
X72456250Y-36668750D02*
X72056250Y-37268750D01*
X72606250Y-37268750D02*
X72056250Y-37268750D01*
%TO.C,D54*%
X273381250Y-94268750D02*
X273931250Y-94268750D01*
X273531250Y-93668750D02*
X274331250Y-93668750D01*
X273931250Y-93168750D02*
X273931250Y-93668750D01*
X273931250Y-94268750D02*
X273531250Y-93668750D01*
X273931250Y-94268750D02*
X273931250Y-94668750D01*
X274331250Y-93668750D02*
X273931250Y-94268750D01*
X274481250Y-94268750D02*
X273931250Y-94268750D01*
%TO.C,D59*%
X166506250Y-113268750D02*
X167056250Y-113268750D01*
X166656250Y-112668750D02*
X167456250Y-112668750D01*
X167056250Y-112168750D02*
X167056250Y-112668750D01*
X167056250Y-113268750D02*
X166656250Y-112668750D01*
X167056250Y-113268750D02*
X167056250Y-113668750D01*
X167456250Y-112668750D02*
X167056250Y-113268750D01*
X167606250Y-113268750D02*
X167056250Y-113268750D01*
%TO.C,D43*%
X45381250Y-94268750D02*
X45931250Y-94268750D01*
X45531250Y-93668750D02*
X46331250Y-93668750D01*
X45931250Y-93168750D02*
X45931250Y-93668750D01*
X45931250Y-94268750D02*
X45531250Y-93668750D01*
X45931250Y-94268750D02*
X45931250Y-94668750D01*
X46331250Y-93668750D02*
X45931250Y-94268750D01*
X46481250Y-94268750D02*
X45931250Y-94268750D01*
%TO.C,D8*%
X166506250Y-37268750D02*
X167056250Y-37268750D01*
X166656250Y-36668750D02*
X167456250Y-36668750D01*
X167056250Y-36168750D02*
X167056250Y-36668750D01*
X167056250Y-37268750D02*
X166656250Y-36668750D01*
X167056250Y-37268750D02*
X167056250Y-37668750D01*
X167456250Y-36668750D02*
X167056250Y-37268750D01*
X167606250Y-37268750D02*
X167056250Y-37268750D01*
%TO.C,D29*%
X298700000Y-56268750D02*
X299250000Y-56268750D01*
X298850000Y-55668750D02*
X299650000Y-55668750D01*
X299250000Y-55168750D02*
X299250000Y-55668750D01*
X299250000Y-56268750D02*
X298850000Y-55668750D01*
X299250000Y-56268750D02*
X299250000Y-56668750D01*
X299650000Y-55668750D02*
X299250000Y-56268750D01*
X299800000Y-56268750D02*
X299250000Y-56268750D01*
%TO.C,D56*%
X252006250Y-113268750D02*
X252556250Y-113268750D01*
X252156250Y-112668750D02*
X252956250Y-112668750D01*
X252556250Y-112168750D02*
X252556250Y-112668750D01*
X252556250Y-113268750D02*
X252156250Y-112668750D01*
X252556250Y-113268750D02*
X252556250Y-113668750D01*
X252956250Y-112668750D02*
X252556250Y-113268750D01*
X253106250Y-113268750D02*
X252556250Y-113268750D01*
D15*
%TO.C,R5*%
X111092164Y-111170000D02*
X111307836Y-111170000D01*
X111092164Y-111890000D02*
X111307836Y-111890000D01*
D13*
%TO.C,D14*%
X280506250Y-37268750D02*
X281056250Y-37268750D01*
X280656250Y-36668750D02*
X281456250Y-36668750D01*
X281056250Y-36168750D02*
X281056250Y-36668750D01*
X281056250Y-37268750D02*
X280656250Y-36668750D01*
X281056250Y-37268750D02*
X281056250Y-37668750D01*
X281456250Y-36668750D02*
X281056250Y-37268750D01*
X281606250Y-37268750D02*
X281056250Y-37268750D01*
%TO.C,D49*%
X171256250Y-94268750D02*
X171806250Y-94268750D01*
X171406250Y-93668750D02*
X172206250Y-93668750D01*
X171806250Y-93168750D02*
X171806250Y-93668750D01*
X171806250Y-94268750D02*
X171406250Y-93668750D01*
X171806250Y-94268750D02*
X171806250Y-94668750D01*
X172206250Y-93668750D02*
X171806250Y-94268750D01*
X172356250Y-94268750D02*
X171806250Y-94268750D01*
D15*
%TO.C,C8*%
X127762101Y-112738578D02*
X127762101Y-112522906D01*
X128482101Y-112738578D02*
X128482101Y-112522906D01*
%TO.C,U3*%
X112807101Y-105013242D02*
X112477101Y-105253242D01*
X112477101Y-104773242D01*
X112807101Y-105013242D01*
G36*
X112807101Y-105013242D02*
G01*
X112477101Y-105253242D01*
X112477101Y-104773242D01*
X112807101Y-105013242D01*
G37*
D13*
%TO.C,D35*%
X142756250Y-75268750D02*
X143306250Y-75268750D01*
X142906250Y-74668750D02*
X143706250Y-74668750D01*
X143306250Y-74168750D02*
X143306250Y-74668750D01*
X143306250Y-75268750D02*
X142906250Y-74668750D01*
X143306250Y-75268750D02*
X143306250Y-75668750D01*
X143706250Y-74668750D02*
X143306250Y-75268750D01*
X143856250Y-75268750D02*
X143306250Y-75268750D01*
%TO.C,D6*%
X128506250Y-37268750D02*
X129056250Y-37268750D01*
X128656250Y-36668750D02*
X129456250Y-36668750D01*
X129056250Y-36168750D02*
X129056250Y-36668750D01*
X129056250Y-37268750D02*
X128656250Y-36668750D01*
X129056250Y-37268750D02*
X129056250Y-37668750D01*
X129456250Y-36668750D02*
X129056250Y-37268750D01*
X129606250Y-37268750D02*
X129056250Y-37268750D01*
%TO.C,D41*%
X256756250Y-75268750D02*
X257306250Y-75268750D01*
X256906250Y-74668750D02*
X257706250Y-74668750D01*
X257306250Y-74168750D02*
X257306250Y-74668750D01*
X257306250Y-75268750D02*
X256906250Y-74668750D01*
X257306250Y-75268750D02*
X257306250Y-75668750D01*
X257706250Y-74668750D02*
X257306250Y-75268750D01*
X257856250Y-75268750D02*
X257306250Y-75268750D01*
D15*
%TO.C,C12*%
X122057836Y-40340000D02*
X121842164Y-40340000D01*
X122057836Y-41060000D02*
X121842164Y-41060000D01*
D13*
%TO.C,D61*%
X271006250Y-113268750D02*
X271556250Y-113268750D01*
X271156250Y-112668750D02*
X271956250Y-112668750D01*
X271556250Y-112168750D02*
X271556250Y-112668750D01*
X271556250Y-113268750D02*
X271156250Y-112668750D01*
X271556250Y-113268750D02*
X271556250Y-113668750D01*
X271956250Y-112668750D02*
X271556250Y-113268750D01*
X272106250Y-113268750D02*
X271556250Y-113268750D01*
%TO.C,D26*%
X233006250Y-56268750D02*
X233556250Y-56268750D01*
X233156250Y-55668750D02*
X233956250Y-55668750D01*
X233556250Y-55168750D02*
X233556250Y-55668750D01*
X233556250Y-56268750D02*
X233156250Y-55668750D01*
X233556250Y-56268750D02*
X233556250Y-56668750D01*
X233956250Y-55668750D02*
X233556250Y-56268750D01*
X234106250Y-56268750D02*
X233556250Y-56268750D01*
%TO.C,D37*%
X180756250Y-75268750D02*
X181306250Y-75268750D01*
X180906250Y-74668750D02*
X181706250Y-74668750D01*
X181306250Y-74168750D02*
X181306250Y-74668750D01*
X181306250Y-75268750D02*
X180906250Y-74668750D01*
X181306250Y-75268750D02*
X181306250Y-75668750D01*
X181706250Y-74668750D02*
X181306250Y-75268750D01*
X181856250Y-75268750D02*
X181306250Y-75268750D01*
%TO.C,D22*%
X157006250Y-56268750D02*
X157556250Y-56268750D01*
X157156250Y-55668750D02*
X157956250Y-55668750D01*
X157556250Y-55168750D02*
X157556250Y-55668750D01*
X157556250Y-56268750D02*
X157156250Y-55668750D01*
X157556250Y-56268750D02*
X157556250Y-56668750D01*
X157956250Y-55668750D02*
X157556250Y-56268750D01*
X158106250Y-56268750D02*
X157556250Y-56268750D01*
%TO.C,D63*%
X85756250Y-113268750D02*
X86306250Y-113268750D01*
X85906250Y-112668750D02*
X86706250Y-112668750D01*
X86306250Y-112168750D02*
X86306250Y-112668750D01*
X86306250Y-113268750D02*
X85906250Y-112668750D01*
X86306250Y-113268750D02*
X86306250Y-113668750D01*
X86706250Y-112668750D02*
X86306250Y-113268750D01*
X86856250Y-113268750D02*
X86306250Y-113268750D01*
D15*
%TO.C,C7*%
X122513794Y-104639932D02*
X122361291Y-104792435D01*
X123022911Y-105149049D02*
X122870408Y-105301552D01*
D13*
%TO.C,D21*%
X138006250Y-56268750D02*
X138556250Y-56268750D01*
X138156250Y-55668750D02*
X138956250Y-55668750D01*
X138556250Y-55168750D02*
X138556250Y-55668750D01*
X138556250Y-56268750D02*
X138156250Y-55668750D01*
X138556250Y-56268750D02*
X138556250Y-56668750D01*
X138956250Y-55668750D02*
X138556250Y-56268750D01*
X139106250Y-56268750D02*
X138556250Y-56268750D01*
%TO.C,D5*%
X114350000Y-36750000D02*
X114900000Y-36750000D01*
X114500000Y-36150000D02*
X115300000Y-36150000D01*
X114900000Y-35650000D02*
X114900000Y-36150000D01*
X114900000Y-36750000D02*
X114500000Y-36150000D01*
X114900000Y-36750000D02*
X114900000Y-37150000D01*
X115300000Y-36150000D02*
X114900000Y-36750000D01*
X115450000Y-36750000D02*
X114900000Y-36750000D01*
%TO.C,D19*%
X100006250Y-56268750D02*
X100556250Y-56268750D01*
X100156250Y-55668750D02*
X100956250Y-55668750D01*
X100556250Y-55168750D02*
X100556250Y-55668750D01*
X100556250Y-56268750D02*
X100156250Y-55668750D01*
X100556250Y-56268750D02*
X100556250Y-56668750D01*
X100956250Y-55668750D02*
X100556250Y-56268750D01*
X101106250Y-56268750D02*
X100556250Y-56268750D01*
%TO.C,D28*%
X271006250Y-56268750D02*
X271556250Y-56268750D01*
X271156250Y-55668750D02*
X271956250Y-55668750D01*
X271556250Y-55168750D02*
X271556250Y-55668750D01*
X271556250Y-56268750D02*
X271156250Y-55668750D01*
X271556250Y-56268750D02*
X271556250Y-56668750D01*
X271956250Y-55668750D02*
X271556250Y-56268750D01*
X272106250Y-56268750D02*
X271556250Y-56268750D01*
%TO.C,D7*%
X147506250Y-37268750D02*
X148056250Y-37268750D01*
X147656250Y-36668750D02*
X148456250Y-36668750D01*
X148056250Y-36168750D02*
X148056250Y-36668750D01*
X148056250Y-37268750D02*
X147656250Y-36668750D01*
X148056250Y-37268750D02*
X148056250Y-37668750D01*
X148456250Y-36668750D02*
X148056250Y-37268750D01*
X148606250Y-37268750D02*
X148056250Y-37268750D01*
%TO.C,D48*%
X152256250Y-94268750D02*
X152806250Y-94268750D01*
X152406250Y-93668750D02*
X153206250Y-93668750D01*
X152806250Y-93168750D02*
X152806250Y-93668750D01*
X152806250Y-94268750D02*
X152406250Y-93668750D01*
X152806250Y-94268750D02*
X152806250Y-94668750D01*
X153206250Y-93668750D02*
X152806250Y-94268750D01*
X153356250Y-94268750D02*
X152806250Y-94268750D01*
%TO.C,D60*%
X228256250Y-113268750D02*
X228806250Y-113268749D01*
X228406250Y-112668750D02*
X229206250Y-112668750D01*
X228806250Y-112168750D02*
X228806250Y-112668750D01*
X228806250Y-113268749D02*
X228406250Y-112668750D01*
X228806250Y-113268749D02*
X228806250Y-113668750D01*
X229206250Y-112668750D02*
X228806250Y-113268749D01*
X229356250Y-113268750D02*
X228806250Y-113268749D01*
D15*
%TO.C,R4*%
X132131291Y-101699049D02*
X132283794Y-101851552D01*
X132640408Y-101189932D02*
X132792911Y-101342435D01*
D11*
%TO.C,Y1*%
X134617127Y-96696184D02*
X134228218Y-96802250D01*
X134334284Y-96413342D01*
X134617127Y-96696184D01*
G36*
X134617127Y-96696184D02*
G01*
X134228218Y-96802250D01*
X134334284Y-96413342D01*
X134617127Y-96696184D01*
G37*
D13*
%TO.C,D42*%
X275756250Y-75268750D02*
X276306250Y-75268750D01*
X275906250Y-74668750D02*
X276706250Y-74668750D01*
X276306250Y-74168750D02*
X276306250Y-74668750D01*
X276306250Y-75268750D02*
X275906250Y-74668750D01*
X276306250Y-75268750D02*
X276306250Y-75668750D01*
X276706250Y-74668750D02*
X276306250Y-75268750D01*
X276856250Y-75268750D02*
X276306250Y-75268750D01*
%TO.C,D50*%
X190256250Y-94268750D02*
X190806250Y-94268750D01*
X190406250Y-93668750D02*
X191206250Y-93668750D01*
X190806250Y-93168750D02*
X190806250Y-93668750D01*
X190806250Y-94268750D02*
X190406250Y-93668750D01*
X190806250Y-94268750D02*
X190806250Y-94668750D01*
X191206250Y-93668750D02*
X190806250Y-94268750D01*
X191356250Y-94268750D02*
X190806250Y-94268750D01*
%TO.C,D12*%
X242506250Y-37268750D02*
X243056250Y-37268750D01*
X242656250Y-36668750D02*
X243456250Y-36668750D01*
X243056250Y-36168750D02*
X243056250Y-36668750D01*
X243056250Y-37268750D02*
X242656250Y-36668750D01*
X243056250Y-37268750D02*
X243056250Y-37668750D01*
X243456250Y-36668750D02*
X243056250Y-37268750D01*
X243606250Y-37268750D02*
X243056250Y-37268750D01*
D15*
%TO.C,R6*%
X111307836Y-109820000D02*
X111092164Y-109820000D01*
X111307836Y-110540000D02*
X111092164Y-110540000D01*
D13*
%TO.C,D34*%
X123756250Y-75268750D02*
X124306250Y-75268750D01*
X123906250Y-74668750D02*
X124706250Y-74668750D01*
X124306250Y-74168750D02*
X124306250Y-74668750D01*
X124306250Y-75268750D02*
X123906250Y-74668750D01*
X124306250Y-75268750D02*
X124306250Y-75668750D01*
X124706250Y-74668750D02*
X124306250Y-75268750D01*
X124856250Y-75268750D02*
X124306250Y-75268750D01*
D15*
%TO.C,U1*%
X123566790Y-105840742D02*
X124026409Y-106300361D01*
X128212482Y-101195050D02*
X128672101Y-100735431D01*
X128672101Y-100735431D02*
X129131720Y-101195050D01*
X128672101Y-110946053D02*
X128212482Y-110486434D01*
X129131720Y-110486434D02*
X128672101Y-110946053D01*
X133317793Y-106300361D02*
X133777412Y-105840742D01*
X133777412Y-105840742D02*
X133317793Y-105381123D01*
D13*
%TO.C,D39*%
X218756250Y-75268750D02*
X219306250Y-75268750D01*
X218906250Y-74668750D02*
X219706250Y-74668750D01*
X219306250Y-74168750D02*
X219306250Y-74668750D01*
X219306250Y-75268750D02*
X218906250Y-74668750D01*
X219306250Y-75268750D02*
X219306250Y-75668750D01*
X219706250Y-74668750D02*
X219306250Y-75268750D01*
X219856250Y-75268750D02*
X219306250Y-75268750D01*
%TO.C,D62*%
X294756250Y-113268750D02*
X295306250Y-113268750D01*
X294906250Y-112668750D02*
X295706250Y-112668750D01*
X295306250Y-112168750D02*
X295306250Y-112668750D01*
X295306250Y-113268750D02*
X294906250Y-112668750D01*
X295306250Y-113268750D02*
X295306250Y-113668750D01*
X295706250Y-112668750D02*
X295306250Y-113268750D01*
X295856250Y-113268750D02*
X295306250Y-113268750D01*
D15*
%TO.C,C9*%
X123431291Y-110432435D02*
X123583794Y-110279932D01*
X123940408Y-110941552D02*
X124092911Y-110789049D01*
%TO.C,R3*%
X36192164Y-78665000D02*
X36407836Y-78665000D01*
X36192164Y-79385000D02*
X36407836Y-79385000D01*
%TO.C,R1*%
X120617682Y-110210742D02*
X120336520Y-110210742D01*
X120617682Y-111230742D02*
X120336520Y-111230742D01*
D13*
%TO.C,D17*%
X62006250Y-56268750D02*
X62556250Y-56268750D01*
X62156250Y-55668750D02*
X62956250Y-55668750D01*
X62556250Y-55168750D02*
X62556250Y-55668750D01*
X62556250Y-56268750D02*
X62156250Y-55668750D01*
X62556250Y-56268750D02*
X62556250Y-56668750D01*
X62956250Y-55668750D02*
X62556250Y-56268750D01*
X63106250Y-56268750D02*
X62556250Y-56268750D01*
%TO.C,D31*%
X66756250Y-75268750D02*
X67306250Y-75268750D01*
X66906250Y-74668750D02*
X67706250Y-74668750D01*
X67306250Y-74168750D02*
X67306250Y-74668750D01*
X67306250Y-75268750D02*
X66906250Y-74668750D01*
X67306250Y-75268750D02*
X67306250Y-75668750D01*
X67706250Y-74668750D02*
X67306250Y-75268750D01*
X67856250Y-75268750D02*
X67306250Y-75268750D01*
%TO.C,D51*%
X209256250Y-94268750D02*
X209806250Y-94268750D01*
X209406250Y-93668750D02*
X210206250Y-93668750D01*
X209806250Y-93168750D02*
X209806250Y-93668750D01*
X209806250Y-94268750D02*
X209406250Y-93668750D01*
X209806250Y-94268750D02*
X209806250Y-94668750D01*
X210206250Y-93668750D02*
X209806250Y-94268750D01*
X210356250Y-94268750D02*
X209806250Y-94268750D01*
%TO.C,D46*%
X114256250Y-94268750D02*
X114806250Y-94268750D01*
X114406250Y-93668750D02*
X115206250Y-93668750D01*
X114806250Y-93168750D02*
X114806250Y-93668750D01*
X114806250Y-94268750D02*
X114406250Y-93668750D01*
X114806250Y-94268750D02*
X114806250Y-94668750D01*
X115206250Y-93668750D02*
X114806250Y-94268750D01*
X115356250Y-94268750D02*
X114806250Y-94268750D01*
%TO.C,D4*%
X94700000Y-34225000D02*
X95250000Y-34225000D01*
X94850000Y-33625000D02*
X95650000Y-33625000D01*
X95250000Y-33125000D02*
X95250000Y-33625000D01*
X95250000Y-34225000D02*
X94850000Y-33625000D01*
X95250000Y-34225000D02*
X95250000Y-34625000D01*
X95650000Y-33625000D02*
X95250000Y-34225000D01*
X95800000Y-34225000D02*
X95250000Y-34225000D01*
%TO.C,D1*%
X33506250Y-37268750D02*
X34056250Y-37268749D01*
X33656250Y-36668750D02*
X34456250Y-36668750D01*
X34056250Y-36168750D02*
X34056250Y-36668750D01*
X34056250Y-37268749D02*
X33656250Y-36668750D01*
X34056250Y-37268749D02*
X34056250Y-37668750D01*
X34456250Y-36668750D02*
X34056250Y-37268749D01*
X34606250Y-37268750D02*
X34056250Y-37268749D01*
%TO.C,D52*%
X228256250Y-94268750D02*
X228806250Y-94268750D01*
X228406250Y-93668750D02*
X229206250Y-93668750D01*
X228806250Y-93168750D02*
X228806250Y-93668750D01*
X228806250Y-94268750D02*
X228406250Y-93668750D01*
X228806250Y-94268750D02*
X228806250Y-94668750D01*
X229206250Y-93668750D02*
X228806250Y-94268750D01*
X229356250Y-94268750D02*
X228806250Y-94268750D01*
D15*
%TO.C,C16*%
X111092164Y-112130000D02*
X111307836Y-112130000D01*
X111092164Y-112850000D02*
X111307836Y-112850000D01*
%TO.C,C5*%
X133451291Y-102002435D02*
X133603794Y-101849932D01*
X133960408Y-102511552D02*
X134112911Y-102359049D01*
D13*
%TO.C,D58*%
X62006250Y-113268750D02*
X62556250Y-113268750D01*
X62156250Y-112668750D02*
X62956250Y-112668750D01*
X62556250Y-112168750D02*
X62556250Y-112668750D01*
X62556250Y-113268750D02*
X62156250Y-112668750D01*
X62556250Y-113268750D02*
X62556250Y-113668750D01*
X62956250Y-112668750D02*
X62556250Y-113268750D01*
X63106250Y-113268750D02*
X62556250Y-113268750D01*
D15*
%TO.C,C17*%
X125053794Y-100811552D02*
X124901291Y-100659049D01*
X125562911Y-100302435D02*
X125410408Y-100149932D01*
D13*
%TO.C,D25*%
X214006250Y-56268750D02*
X214556250Y-56268750D01*
X214156250Y-55668750D02*
X214956250Y-55668750D01*
X214556250Y-55168750D02*
X214556250Y-55668750D01*
X214556250Y-56268750D02*
X214156250Y-55668750D01*
X214556250Y-56268750D02*
X214556250Y-56668750D01*
X214956250Y-55668750D02*
X214556250Y-56268750D01*
X215106250Y-56268750D02*
X214556250Y-56268750D01*
%TO.C,D38*%
X199756250Y-75268750D02*
X200306250Y-75268750D01*
X199906250Y-74668750D02*
X200706250Y-74668750D01*
X200306250Y-74168750D02*
X200306250Y-74668750D01*
X200306250Y-75268750D02*
X199906250Y-74668750D01*
X200306250Y-75268750D02*
X200306250Y-75668750D01*
X200706250Y-74668750D02*
X200306250Y-75268750D01*
X200856250Y-75268750D02*
X200306250Y-75268750D01*
%TO.C,D44*%
X76256250Y-94268750D02*
X76806250Y-94268750D01*
X76406250Y-93668750D02*
X77206250Y-93668750D01*
X76806250Y-93168750D02*
X76806250Y-93668750D01*
X76806250Y-94268750D02*
X76406250Y-93668750D01*
X76806250Y-94268750D02*
X76806250Y-94668750D01*
X77206250Y-93668750D02*
X76806250Y-94268750D01*
X77356250Y-94268750D02*
X76806250Y-94268750D01*
D15*
%TO.C,U2*%
X119930000Y-41482501D02*
X120580000Y-41482500D01*
X119930000Y-44602501D02*
X120580000Y-44602502D01*
X121230000Y-41482501D02*
X120580000Y-41482500D01*
X121230000Y-44602501D02*
X120580000Y-44602502D01*
X119657500Y-44882500D02*
X119177500Y-44882501D01*
X119417500Y-44552501D01*
X119657500Y-44882500D01*
G36*
X119657500Y-44882500D02*
G01*
X119177500Y-44882501D01*
X119417500Y-44552501D01*
X119657500Y-44882500D01*
G37*
D13*
%TO.C,D2*%
X52506250Y-37268750D02*
X53056250Y-37268750D01*
X52656250Y-36668750D02*
X53456250Y-36668750D01*
X53056250Y-36168750D02*
X53056250Y-36668750D01*
X53056250Y-37268750D02*
X52656250Y-36668750D01*
X53056250Y-37268750D02*
X53056250Y-37668750D01*
X53456250Y-36668750D02*
X53056250Y-37268750D01*
X53606250Y-37268750D02*
X53056250Y-37268750D01*
%TO.C,D53*%
X247256250Y-94268750D02*
X247806250Y-94268750D01*
X247406250Y-93668750D02*
X248206250Y-93668750D01*
X247806250Y-93168750D02*
X247806250Y-93668750D01*
X247806250Y-94268750D02*
X247406250Y-93668750D01*
X247806250Y-94268750D02*
X247806250Y-94668750D01*
X248206250Y-93668750D02*
X247806250Y-94268750D01*
X248356250Y-94268750D02*
X247806250Y-94268750D01*
D15*
%TO.C,C1*%
X124253794Y-110949932D02*
X124101291Y-111102435D01*
X124762911Y-111459049D02*
X124610408Y-111611552D01*
D13*
%TO.C,D24*%
X195006250Y-56268750D02*
X195556250Y-56268750D01*
X195156250Y-55668750D02*
X195956250Y-55668750D01*
X195556250Y-55168750D02*
X195556250Y-55668750D01*
X195556250Y-56268750D02*
X195156250Y-55668750D01*
X195556250Y-56268750D02*
X195556250Y-56668750D01*
X195956250Y-55668750D02*
X195556250Y-56268750D01*
X196106250Y-56268750D02*
X195556250Y-56268750D01*
%TO.C,D11*%
X223506250Y-37268750D02*
X224056250Y-37268750D01*
X223656250Y-36668750D02*
X224456250Y-36668750D01*
X224056250Y-36168750D02*
X224056250Y-36668750D01*
X224056250Y-37268750D02*
X223656250Y-36668750D01*
X224056250Y-37268750D02*
X224056250Y-37668750D01*
X224456250Y-36668750D02*
X224056250Y-37268750D01*
X224606250Y-37268750D02*
X224056250Y-37268750D01*
%TO.C,D15*%
X299506250Y-37268750D02*
X300056250Y-37268750D01*
X299656250Y-36668750D02*
X300456250Y-36668750D01*
X300056250Y-36168750D02*
X300056250Y-36668750D01*
X300056250Y-37268750D02*
X299656250Y-36668750D01*
X300056250Y-37268750D02*
X300056250Y-37668750D01*
X300456250Y-36668750D02*
X300056250Y-37268750D01*
X300606250Y-37268750D02*
X300056250Y-37268750D01*
%TO.C,D9*%
X185506250Y-37268750D02*
X186056250Y-37268750D01*
X185656250Y-36668750D02*
X186456250Y-36668750D01*
X186056250Y-36168750D02*
X186056250Y-36668750D01*
X186056250Y-37268750D02*
X185656250Y-36668750D01*
X186056250Y-37268750D02*
X186056250Y-37668750D01*
X186456250Y-36668750D02*
X186056250Y-37268750D01*
X186606250Y-37268750D02*
X186056250Y-37268750D01*
D15*
%TO.C,C14*%
X131603794Y-99821552D02*
X131451291Y-99669049D01*
X132112911Y-99312435D02*
X131960408Y-99159932D01*
%TO.C,C13*%
X117670000Y-42677836D02*
X117670000Y-42462164D01*
X118390000Y-42677836D02*
X118390000Y-42462164D01*
D13*
%TO.C,D55*%
X299506250Y-94268750D02*
X300056250Y-94268750D01*
X299656250Y-93668750D02*
X300456250Y-93668750D01*
X300056250Y-93168750D02*
X300056250Y-93668750D01*
X300056250Y-94268750D02*
X299656250Y-93668750D01*
X300056250Y-94268750D02*
X300056250Y-94668750D01*
X300456250Y-93668750D02*
X300056250Y-94268750D01*
X300606250Y-94268750D02*
X300056250Y-94268750D01*
%TO.C,D10*%
X204506250Y-37268750D02*
X205056250Y-37268750D01*
X204656250Y-36668750D02*
X205456250Y-36668750D01*
X205056250Y-36168750D02*
X205056250Y-36668750D01*
X205056250Y-37268750D02*
X204656250Y-36668750D01*
X205056250Y-37268750D02*
X205056250Y-37668750D01*
X205456250Y-36668750D02*
X205056250Y-37268750D01*
X205606250Y-37268750D02*
X205056250Y-37268750D01*
%TO.C,D47*%
X133256250Y-94268750D02*
X133806250Y-94268750D01*
X133406250Y-93668750D02*
X134206250Y-93668750D01*
X133806250Y-93168750D02*
X133806250Y-93668750D01*
X133806250Y-94268750D02*
X133406250Y-93668750D01*
X133806250Y-94268750D02*
X133806250Y-94668750D01*
X134206250Y-93668750D02*
X133806250Y-94268750D01*
X134356250Y-94268750D02*
X133806250Y-94268750D01*
D15*
%TO.C,C6*%
X133541291Y-109309049D02*
X133693794Y-109461552D01*
X134050408Y-108799932D02*
X134202911Y-108952435D01*
D13*
%TO.C,D18*%
X81006250Y-56268750D02*
X81556250Y-56268750D01*
X81156250Y-55668750D02*
X81956250Y-55668750D01*
X81556250Y-55168750D02*
X81556250Y-55668750D01*
X81556250Y-56268750D02*
X81156250Y-55668750D01*
X81556250Y-56268750D02*
X81556250Y-56668750D01*
X81956250Y-55668750D02*
X81556250Y-56268750D01*
X82106250Y-56268750D02*
X81556250Y-56268750D01*
D15*
%TO.C,C4*%
X129662101Y-112522906D02*
X129662101Y-112738578D01*
X130382101Y-112522906D02*
X130382101Y-112738578D01*
D13*
%TO.C,D32*%
X85756250Y-75268750D02*
X86306250Y-75268750D01*
X85906250Y-74668750D02*
X86706250Y-74668750D01*
X86306250Y-74168750D02*
X86306250Y-74668750D01*
X86306250Y-75268750D02*
X85906250Y-74668750D01*
X86306250Y-75268750D02*
X86306250Y-75668750D01*
X86706250Y-74668750D02*
X86306250Y-75268750D01*
X86856250Y-75268750D02*
X86306250Y-75268750D01*
%TO.C,D13*%
X261506250Y-37268750D02*
X262056250Y-37268750D01*
X261656250Y-36668750D02*
X262456250Y-36668750D01*
X262056250Y-36168750D02*
X262056250Y-36668750D01*
X262056250Y-37268750D02*
X261656250Y-36668750D01*
X262056250Y-37268750D02*
X262056250Y-37668750D01*
X262456250Y-36668750D02*
X262056250Y-37268750D01*
X262606250Y-37268750D02*
X262056250Y-37268750D01*
D15*
%TO.C,C11*%
X126809761Y-112736238D02*
X126809761Y-112520566D01*
X127529761Y-112736238D02*
X127529761Y-112520566D01*
D13*
%TO.C,D16*%
X38256250Y-56268750D02*
X38806250Y-56268750D01*
X38406250Y-55668750D02*
X39206250Y-55668750D01*
X38806250Y-55168750D02*
X38806250Y-55668750D01*
X38806250Y-56268750D02*
X38406250Y-55668750D01*
X38806250Y-56268750D02*
X38806250Y-56668750D01*
X39206250Y-55668750D02*
X38806250Y-56268750D01*
X39356250Y-56268750D02*
X38806250Y-56268750D01*
D15*
%TO.C,C10*%
X134275545Y-102521683D02*
X134123042Y-102674186D01*
X134784662Y-103030800D02*
X134632159Y-103183303D01*
%TO.C,R2*%
X120341521Y-111710742D02*
X120622681Y-111710742D01*
X120341521Y-112730742D02*
X120622681Y-112730742D01*
D13*
%TO.C,D23*%
X176006250Y-56268750D02*
X176556250Y-56268750D01*
X176156250Y-55668750D02*
X176956250Y-55668750D01*
X176556250Y-55168750D02*
X176556250Y-55668750D01*
X176556250Y-56268750D02*
X176156250Y-55668750D01*
X176556250Y-56268750D02*
X176556250Y-56668750D01*
X176956250Y-55668750D02*
X176556250Y-56268750D01*
X177106250Y-56268750D02*
X176556250Y-56268750D01*
D15*
%TO.C,C3*%
X128712101Y-112522906D02*
X128712101Y-112738578D01*
X129432101Y-112522906D02*
X129432101Y-112738578D01*
%TO.C,C15*%
X132961439Y-101179197D02*
X132808936Y-101026694D01*
X133470556Y-100670080D02*
X133318053Y-100517577D01*
%TO.C,U4*%
X112620000Y-40570000D02*
X113420000Y-40569999D01*
X112620000Y-43690000D02*
X113420000Y-43690001D01*
X114220000Y-40570000D02*
X113420000Y-40569999D01*
X114220000Y-43690000D02*
X113420000Y-43690001D01*
X112360000Y-43970000D02*
X111880000Y-43970000D01*
X112120000Y-43640000D01*
X112360000Y-43970000D01*
G36*
X112360000Y-43970000D02*
G01*
X111880000Y-43970000D01*
X112120000Y-43640000D01*
X112360000Y-43970000D01*
G37*
%TO.C,C2*%
X124923794Y-111619932D02*
X124771291Y-111772435D01*
X125432911Y-112129049D02*
X125280408Y-112281552D01*
D13*
%TO.C,D45*%
X95256250Y-94268750D02*
X95806250Y-94268750D01*
X95406250Y-93668750D02*
X96206250Y-93668750D01*
X95806250Y-93168750D02*
X95806250Y-93668750D01*
X95806250Y-94268750D02*
X95406250Y-93668750D01*
X95806250Y-94268750D02*
X95806250Y-94668750D01*
X96206250Y-93668750D02*
X95806250Y-94268750D01*
X96356250Y-94268750D02*
X95806250Y-94268750D01*
%TO.C,D36*%
X161756250Y-75268750D02*
X162306250Y-75268750D01*
X161906250Y-74668750D02*
X162706250Y-74668750D01*
X162306250Y-74168750D02*
X162306250Y-74668750D01*
X162306250Y-75268750D02*
X161906250Y-74668750D01*
X162306250Y-75268750D02*
X162306250Y-75668750D01*
X162706250Y-74668750D02*
X162306250Y-75268750D01*
X162856250Y-75268750D02*
X162306250Y-75268750D01*
%TO.C,D30*%
X41840000Y-75268750D02*
X42390000Y-75268750D01*
X41990000Y-74668750D02*
X42790000Y-74668750D01*
X42390000Y-74168750D02*
X42390000Y-74668750D01*
X42390000Y-75268750D02*
X41990000Y-74668750D01*
X42390000Y-75268750D02*
X42390000Y-75668750D01*
X42790000Y-74668750D02*
X42390000Y-75268750D01*
X42940000Y-75268750D02*
X42390000Y-75268750D01*
%TO.C,D40*%
X237756250Y-75268750D02*
X238306250Y-75268750D01*
X237906250Y-74668750D02*
X238706250Y-74668750D01*
X238306250Y-74168750D02*
X238306250Y-74668750D01*
X238306250Y-75268750D02*
X237906250Y-74668750D01*
X238306250Y-75268750D02*
X238306250Y-75668750D01*
X238706250Y-74668750D02*
X238306250Y-75268750D01*
X238856250Y-75268750D02*
X238306250Y-75268750D01*
%TO.C,D33*%
X104756250Y-75268750D02*
X105306250Y-75268750D01*
X104906250Y-74668750D02*
X105706250Y-74668750D01*
X105306250Y-74168750D02*
X105306250Y-74668750D01*
X105306250Y-75268750D02*
X104906250Y-74668750D01*
X105306250Y-75268750D02*
X105306250Y-75668750D01*
X105706250Y-74668750D02*
X105306250Y-75268750D01*
X105856250Y-75268750D02*
X105306250Y-75268750D01*
%TO.C,D27*%
X252006250Y-56268750D02*
X252556250Y-56268750D01*
X252156250Y-55668750D02*
X252956250Y-55668750D01*
X252556250Y-55168750D02*
X252556250Y-55668750D01*
X252556250Y-56268750D02*
X252156250Y-55668750D01*
X252556250Y-56268750D02*
X252556250Y-56668750D01*
X252956250Y-55668750D02*
X252556250Y-56268750D01*
X253106250Y-56268750D02*
X252556250Y-56268750D01*
%TO.C,D57*%
X38256250Y-113268750D02*
X38806250Y-113268750D01*
X38406250Y-112668750D02*
X39206250Y-112668750D01*
X38806250Y-112168750D02*
X38806250Y-112668750D01*
X38806250Y-113268750D02*
X38406250Y-112668750D01*
X38806250Y-113268750D02*
X38806250Y-113668750D01*
X39206250Y-112668750D02*
X38806250Y-113268750D01*
X39356250Y-113268750D02*
X38806250Y-113268750D01*
%TD*%
M02*
