M48
; DRILL file {KiCad 8.0.1} date 2025-07-13T23:20:02+0900
; FORMAT={-:-/ absolute / metric / decimal}
; #@! TF.CreationDate,2025-07-13T23:20:02+09:00
; #@! TF.GenerationSoftware,Kicad,Pcbnew,8.0.1
; #@! TF.FileFunction,NonPlated,1,2,NPTH
FMAT,2
METRIC
; #@! TA.AperFunction,NonPlated,NPTH,ComponentDrill
T1C1.750
; #@! TA.AperFunction,NonPlated,NPTH,ComponentDrill
T2C3.048
; #@! TA.AperFunction,NonPlated,NPTH,ComponentDrill
T3C3.988
; #@! TA.AperFunction,NonPlated,NPTH,ComponentDrill
T4C4.000
%
G90
G05
T1
X25.795Y-33.25
X28.17Y-71.25
X30.545Y-52.25
X30.545Y-109.25
X32.92Y-71.25
X35.955Y-33.25
X37.67Y-90.25
X38.33Y-71.25
X40.705Y-52.25
X40.705Y-109.25
X43.08Y-71.25
X44.795Y-33.25
X47.83Y-90.25
X54.295Y-52.25
X54.295Y-109.25
X54.955Y-33.25
X59.045Y-71.25
X63.795Y-33.25
X64.455Y-52.25
X64.455Y-109.25
X68.545Y-90.25
X69.205Y-71.25
X73.295Y-52.25
X73.955Y-33.25
X78.045Y-71.25
X78.045Y-109.25
X78.705Y-90.25
X82.795Y-33.25
X83.455Y-52.25
X87.545Y-90.25
X88.205Y-71.25
X88.205Y-109.25
X92.295Y-52.25
X92.955Y-33.25
X97.045Y-71.25
X97.705Y-90.25
X101.745Y-33.825
X102.455Y-52.25
X106.545Y-90.25
X107.205Y-71.25
X111.295Y-52.25
X111.905Y-33.825
X116.045Y-71.25
X116.705Y-90.25
X120.795Y-33.25
X121.455Y-52.25
X125.545Y-90.25
X126.205Y-71.25
X130.295Y-52.25
X130.955Y-33.25
X135.045Y-71.25
X135.705Y-90.25
X139.795Y-33.25
X140.455Y-52.25
X144.545Y-90.25
X145.205Y-71.25
X149.295Y-52.25
X149.295Y-109.25
X149.955Y-33.25
X154.045Y-71.25
X154.705Y-90.25
X158.795Y-33.25
X158.795Y-109.25
X159.455Y-52.25
X159.455Y-109.25
X163.545Y-90.25
X164.205Y-71.25
X168.295Y-52.25
X168.955Y-33.25
X168.955Y-109.25
X173.045Y-71.25
X173.705Y-90.25
X177.795Y-33.25
X178.455Y-52.25
X182.545Y-90.25
X183.205Y-71.25
X187.295Y-52.25
X187.955Y-33.25
X192.045Y-71.25
X192.705Y-90.25
X196.795Y-33.25
X197.455Y-52.25
X201.545Y-90.25
X202.205Y-71.25
X206.295Y-52.25
X206.955Y-33.25
X211.045Y-71.25
X211.705Y-90.25
X215.795Y-33.25
X216.455Y-52.25
X220.545Y-90.25
X220.545Y-109.25
X221.205Y-71.25
X225.295Y-52.25
X225.955Y-33.25
X230.045Y-71.25
X230.705Y-90.25
X230.705Y-109.25
X234.795Y-33.25
X235.455Y-52.25
X239.545Y-90.25
X239.545Y-109.25
X240.205Y-71.25
X244.295Y-52.25
X244.295Y-109.25
X244.955Y-33.25
X249.045Y-71.25
X249.705Y-90.25
X249.705Y-109.25
X253.795Y-33.25
X254.455Y-52.25
X254.455Y-109.25
X259.205Y-71.25
X263.295Y-52.25
X263.295Y-109.25
X263.955Y-33.25
X265.67Y-90.25
X268.045Y-71.25
X272.795Y-33.25
X273.455Y-52.25
X273.455Y-109.25
X275.17Y-90.25
X275.83Y-90.25
X278.205Y-71.25
X279.92Y-71.25
X282.295Y-33.25
X282.955Y-33.25
X285.33Y-90.25
X287.045Y-52.25
X287.045Y-109.25
X290.08Y-71.25
X291.795Y-33.25
X291.795Y-90.25
X292.455Y-33.25
X294.5Y-56.67
X294.5Y-66.83
X297.205Y-52.25
X297.205Y-109.25
X301.955Y-33.25
X301.955Y-90.25
T2
X30.812Y-83.265
X54.688Y-83.265
X106.725Y-116.235
X106.75Y-116.235
X202.0Y-116.235
X221.025Y-116.235
X268.312Y-83.265
X273.062Y-64.265
X275.437Y-26.265
X292.188Y-83.265
X296.938Y-64.265
X299.313Y-26.265
X301.485Y-49.812
X301.485Y-73.688
T3
X30.812Y-98.475
X54.688Y-98.475
X106.725Y-101.025
X106.75Y-101.025
X202.0Y-101.025
X221.025Y-101.025
X268.312Y-98.475
X273.062Y-79.475
X275.437Y-41.475
X286.275Y-49.812
X286.275Y-73.688
X292.188Y-98.475
X296.938Y-79.475
X299.313Y-41.475
T4
X30.875Y-33.25
X33.25Y-71.25
X35.625Y-52.25
X35.625Y-109.25
X38.0Y-71.25
X42.75Y-90.25
X49.875Y-33.25
X59.375Y-52.25
X59.375Y-109.25
X64.125Y-71.25
X68.875Y-33.25
X73.625Y-90.25
X78.375Y-52.25
X83.125Y-71.25
X83.125Y-109.25
X87.875Y-33.25
X92.625Y-90.25
X97.375Y-52.25
X102.125Y-71.25
X106.825Y-33.825
X111.625Y-90.25
X116.375Y-52.25
X121.125Y-71.25
X125.875Y-33.25
X130.625Y-90.25
X135.375Y-52.25
X140.125Y-71.25
X144.875Y-33.25
X149.625Y-90.25
X154.375Y-52.25
X154.375Y-109.25
X159.125Y-71.25
X163.875Y-33.25
X163.875Y-109.25
X168.625Y-90.25
X173.375Y-52.25
X178.125Y-71.25
X182.875Y-33.25
X187.625Y-90.25
X192.375Y-52.25
X197.125Y-71.25
X201.875Y-33.25
X206.625Y-90.25
X211.375Y-52.25
X216.125Y-71.25
X220.875Y-33.25
X225.625Y-90.25
X225.625Y-109.25
X230.375Y-52.25
X235.125Y-71.25
X239.875Y-33.25
X244.625Y-90.25
X244.625Y-109.25
X249.375Y-52.25
X249.375Y-109.25
X254.125Y-71.25
X258.875Y-33.25
X268.375Y-52.25
X268.375Y-109.25
X270.75Y-90.25
X273.125Y-71.25
X277.875Y-33.25
X280.25Y-90.25
X285.0Y-71.25
X287.375Y-33.25
X292.125Y-52.25
X292.125Y-109.25
X294.5Y-61.75
X296.875Y-33.25
X296.875Y-90.25
M30
